<?xml version="1.0" standalone="no"?>
<!DOCTYPE svg PUBLIC "-//W3C//DTD SVG 1.1//EN" "http://www.w3.org/Graphics/SVG/1.1/DTD/svg11.dtd">
<svg xmlns="http://www.w3.org/2000/svg">
<metadata>Copyright (C) 2023 by original authors @ fontello.com</metadata>
<defs>
<font id="ddmlicons" horiz-adv-x="1000" >
<font-face font-family="ddmlicons" font-weight="400" font-stretch="normal" units-per-em="1000" ascent="850" descent="-150" />
<missing-glyph horiz-adv-x="1000" />
<glyph glyph-name="radio" unicode="&#xf000;" d="M500-81q-88 0-167 34-79 33-138 92-58 59-92 137t-34 168q0 90 34 168 34 79 92 137 58 59 137 93 78 34 168 34 90 0 169-34t137-92q58-58 92-137t34-169q0-90-34-168-34-79-93-137-58-59-136-92t-169-34z m0 82q146 0 247 102t102 247q0 146-102 247t-247 102q-145 0-247-102-102-101-102-247 0-145 102-247 102-102 247-102z m0 349z" horiz-adv-x="1000" />

<glyph glyph-name="radio-checked" unicode="&#xf001;" d="M500 156q81 0 138 57 56 56 56 137 0 81-56 138-57 56-138 56-81 0-137-56-57-57-57-138 0-81 57-137 56-57 137-57z m0-237q-88 0-167 34-79 33-138 92-58 59-92 137t-34 168q0 90 34 168 34 79 92 137 58 59 137 93 78 34 168 34 90 0 169-34t137-92q58-58 92-137t34-169q0-90-34-168-34-79-93-137-58-59-136-92t-169-34z m0 82q146 0 247 102t102 247q0 146-102 247t-247 102q-145 0-247-102-102-101-102-247 0-145 102-247 102-102 247-102z m0 349z" horiz-adv-x="1000" />

<glyph glyph-name="checkbox" unicode="&#xf002;" d="M193-40q-34 0-58 25-25 24-25 58v614q0 35 25 59 24 25 58 25h614q35 0 59-25 25-24 25-59v-614q0-34-25-58-24-25-59-25z m0 83h614v614h-614v-614z" horiz-adv-x="1000" />

<glyph glyph-name="checkbox-checked" unicode="&#xf003;" d="M435 173l308 308-56 58-252-251-118 118-57-57z m-242-213q-34 0-58 25-25 24-25 58v614q0 35 25 59 24 25 58 25h614q35 0 59-25 25-24 25-59v-614q0-34-25-58-24-25-59-25z m0 83h614v614h-614v-614z m0 614v-614 614z" horiz-adv-x="1000" />

<glyph glyph-name="off" unicode="&#xf004;" d="M292 87q-110 0-187 77-77 77-77 186 0 110 77 187t187 77h416q110 0 187-77 77-78 77-187 0-110-77-187t-187-76z m0 76h416q79 0 133 54t55 133q0 78-55 133t-133 55h-416q-78 0-133-55t-55-133q0-78 55-133t133-54z m-1 82q43 0 74 31t31 74q0 44-31 75t-74 30q-44 0-75-30t-31-75q0-44 31-74t75-31z m209 105z" horiz-adv-x="1000" />

<glyph glyph-name="on" unicode="&#xf005;" d="M292 87q-110 0-187 77-77 77-77 186 0 110 77 187t187 77h416q110 0 187-77 77-78 77-187 0-110-77-187t-187-76z m0 76h416q79 0 133 54t55 133q0 78-55 133t-133 55h-416q-78 0-133-55t-55-133q0-78 55-133t133-54z m417 82q44 0 75 31t31 74q0 44-31 75t-75 30q-43 0-74-30t-31-75q0-44 31-74t74-31z m-209 105z" horiz-adv-x="1000" />

<glyph glyph-name="cursor" unicode="&#xf006;" d="M316 228l107 150h217l-324 254z m276-326l-162 345-197-277v832l646-506h-338l158-344z m-169 476z" horiz-adv-x="1000" />

<glyph glyph-name="panel" unicode="&#xf007;" d="M193-40q-35 0-59 24t-24 59v614q0 35 24 59 24 25 59 25h614q35 0 59-25 25-24 25-59v-614q0-35-25-59t-59-24z m0 228v-145h614v145z m0 82h614v387h-614z m0-82v-145z" horiz-adv-x="1000" />

<glyph glyph-name="panel-open" unicode="&#xf008;" d="M345 398h310l-155 155z m-152-438q-35 0-59 24t-24 59v614q0 35 24 59 24 25 59 25h614q35 0 59-25 25-24 25-59v-614q0-35-25-59t-59-24z m0 228v-145h614v145z m0 82h614v387h-614z m0-82v-145 145z" horiz-adv-x="1000" />

<glyph glyph-name="panel-close" unicode="&#xf009;" d="M500 398l155 155h-310z m307 343q35 0 59-25 25-24 25-59v-614q0-35-25-59t-59-24h-614q-35 0-59 24t-24 59v614q0 35 24 59 24 25 59 25z m-614-553v-145h614v145z m614 82v387h-614v-387z m-614-82v-145 145z" horiz-adv-x="1000" />

<glyph glyph-name="filter" unicode="&#xf00a;" d="M458 2q-24 0-40 16-16 16-16 40v245l-246 315q-19 25-5 53 14 28 45 28h608q31 0 46-28 14-28-6-53l-245-315v-250q0-22-15-36t-37-15z m42 311l239 303h-477z m0 0z" horiz-adv-x="1000" />

<glyph glyph-name="send" unicode="&#xf00b;" d="M112 2v696l822-348z m76 118l550 230-550 233v-162l258-71-258-69z m0 0v463-302z" horiz-adv-x="1000" />

<glyph glyph-name="lock" unicode="&#xf00c;" d="M234-80q-34 0-58 24t-24 58v442q0 34 24 59 24 24 58 24h62v87q0 86 59 146t145 60q85 0 145-60 59-60 59-146v-87h62q34 0 59-24 24-25 24-59v-442q0-33-24-58-25-24-59-24z m0 82h532v442h-532v-442z m266 141q33 0 57 23t23 55q0 31-23 57t-57 25q-33 0-57-25t-23-57q0-32 23-55 24-23 57-23z m-122 384h244v87q0 52-35 88-36 36-87 36t-86-36q-36-36-36-88z m-144-525v442-442z" horiz-adv-x="1000" />

<glyph glyph-name="unlock" unicode="&#xf00d;" d="M234 527h388v87q0 52-35 88-36 36-87 36t-86-36q-36-36-36-88h-82q0 86 59 146t145 60q85 0 145-60 59-60 59-146v-87h62q34 0 59-24 24-25 24-59v-442q0-33-24-58-25-24-59-24h-532q-34 0-58 24t-24 58v442q0 34 24 59 24 24 58 24z m0-525h532v442h-532v-442z m266 141q33 0 57 23t23 55q0 31-23 57t-57 25q-33 0-57-25t-23-57q0-32 23-55 24-23 57-23z m-266-141v442-442z" horiz-adv-x="1000" />

<glyph glyph-name="key-a" unicode="&#xf00e;" d="M292 273q-32 0-54 22t-23 55q0 31 22 54t55 23q31 0 54-22t23-55q0-31-23-54t-54-23z m0-186q-110 0-187 77-77 77-77 186 0 109 77 187 77 77 187 77 80 0 139-38t92-112h369l125-124-184-169-92 68-91-66-80 64h-47q-26-65-85-108-59-42-146-42z m0 76q62 0 113 41t65 108h126l54-45 92 65 85-63 81 71-46 49h-392q-11 60-62 104-51 45-116 45-78 0-133-55t-55-133q0-78 55-133t133-54z" horiz-adv-x="1000" />

<glyph glyph-name="key-b" unicode="&#xf00f;" d="M292 87q-110 0-187 77-77 77-77 186 0 109 77 187 77 77 187 77 87 0 146-43t85-107h449v-227h-110v-143h-208v143h-131q-26-65-85-108-59-42-146-42z m0 76q77 0 124 52 48 52 54 97h264v-143h51v143h111v77h-426q-6 44-54 96-47 53-124 53-78 0-133-55t-55-133q0-78 55-133t133-54z m0 110q33 0 55 22 22 22 22 55 0 33-22 55-22 22-55 22-33 0-55-22t-22-55q0-32 22-55t55-22z m0 77z" horiz-adv-x="1000" />

<glyph glyph-name="circle" unicode="&#xf010;" d="M500-81q-88 0-167 34-79 33-138 92-58 59-92 137t-34 168q0 90 34 168 34 79 92 137 58 59 137 93 78 34 168 34 90 0 169-34t137-92q58-58 92-137t34-169q0-90-34-168-34-79-93-137-58-59-136-92t-169-34z m0 82q146 0 247 102t102 247q0 146-102 247t-247 102q-145 0-247-102-102-101-102-247 0-145 102-247 102-102 247-102z m0 349z" horiz-adv-x="1000" />

<glyph glyph-name="box" unicode="&#xf011;" d="M193-40q-34 0-58 25-25 24-25 58v614q0 35 25 59 24 25 58 25h614q35 0 59-25 25-24 25-59v-614q0-34-25-58-24-25-59-25z m0 83h614v614h-614v-614z" horiz-adv-x="1000" />

<glyph glyph-name="romb" unicode="&#xf012;" d="M500-89q-16 0-31 7-15 6-27 17l-357 357q-11 12-17 27-6 15-6 31 0 16 6 31 6 15 17 27l357 357q12 12 27 18t31 6q16 0 31-6 15-6 27-18l357-357q12-12 18-27t6-31q0-16-6-31-6-15-18-27l-357-357q-12-11-27-17-15-7-31-7z m0 84l356 355-356 356-355-356 355-355z m0 355z" horiz-adv-x="1000" />

<glyph glyph-name="pentagon" unicode="&#xf013;" d="M296 38h408l139 413-343 239-343-239z m-46-63l-167 500 417 292 417-292-167-500z m250 389z" horiz-adv-x="1000" />

<glyph glyph-name="hexagon" unicode="&#xf014;" d="M277-35l-222 385 222 385h446l222-385-222-385z m48 83h350l174 302-174 302h-350l-175-302z m175 302z" horiz-adv-x="1000" />

<glyph glyph-name="octagon" unicode="&#xf015;" d="M338-40l-228 228v325l228 228h325l228-228v-325l-228-228z m34 83h256l179 179v256l-179 179h-256l-179-179v-256z m128 307z" horiz-adv-x="1000" />

<glyph glyph-name="droplet" unicode="&#xf016;" d="M500-60q-145 0-246 99-102 100-102 242 0 70 27 133t75 111l246 242 246-242q49-48 76-111 27-63 27-133 0-142-102-242t-247-99z m0 82q110 0 188 75 78 75 78 185 0 51-21 99-20 47-55 83l-190 187-190-187q-35-36-55-83-21-48-21-99 0-110 78-185 78-75 188-75z" horiz-adv-x="1000" />

<glyph glyph-name="label" unicode="&#xf017;" d="M892 350l-182-256q-16-23-39-37-23-13-50-13h-430q-34 0-58 24-25 24-25 58v448q0 34 25 59 24 24 58 24h430q27 0 50-14 23-14 39-37z m-103 0l-157 224h-441v-448h441z m-598 0v-224 448z" horiz-adv-x="1000" />

<glyph glyph-name="arrow-label" unicode="&#xf018;" d="M103 44l197 306-197 307h522q27 0 50-14 23-14 39-36l183-257-183-258q-16-21-38-35-22-13-48-13z m151 82h384l158 224-158 224h-384l145-224z m145 224l-145 224 145-224-145-224z" horiz-adv-x="1000" />

<glyph glyph-name="chevron" unicode="&#xf019;" d="M500-122l-317 239q-16 11-24 29-7 19-7 39v518q0 34 25 59 24 25 57 25h532q34 0 59-25 24-25 24-59v-518q0-20-8-39t-24-29z m0 103l266 204v518h-532v-518z m44 479h-310 532z" horiz-adv-x="1000" />

<glyph glyph-name="bookmark" unicode="&#xf01a;" d="M194-47v710q0 34 24 58 25 25 58 25h448q34 0 59-25 24-24 24-58v-710l-307 130z m82 125l224 94 224-94v585h-448z m0 585h448-224z" horiz-adv-x="1000" />

<glyph glyph-name="bookmarks" unicode="&#xf01b;" d="M103-122v716q0 34 25 59 24 24 59 24h482q33 0 58-24 25-25 25-59v-716l-325 139z m84 125l240 105 242-105v591h-482z m627-4v741h-549v82h549q34 0 58-25 25-24 25-57v-741z m-627 595h482-242z" horiz-adv-x="1000" />

<glyph glyph-name="shield" unicode="&#xf01c;" d="M500-81q-152 38-250 175-98 137-98 301v258l348 130 349-130v-258q0-164-98-301-99-137-251-175z m0 85q117 42 191 149 75 107 75 242v200l-266 100-266-100v-200q0-135 75-242 74-107 191-149z m0 345z" horiz-adv-x="1000" />

<glyph glyph-name="badge" unicode="&#xf01d;" d="M354-106l-82 141-165 34 19 159-104 122 104 121-19 159 165 34 82 142 146-66 146 66 83-142 164-34-19-159 104-121-104-122 19-159-164-34-83-141-146 66z m37 107l109 47 113-47 68 103 119 30-11 122 82 94-82 96 11 122-119 28-71 103-110-47-112 47-69-103-119-28 12-122-83-96 83-94-12-124 119-28z m109 349z" horiz-adv-x="1000" />

<glyph glyph-name="zone" unicode="&#xf01e;" d="M208-82q-58 0-99 41-41 41-41 99 0 47 27 85 28 37 72 50v315q-44 12-72 49-27 38-27 85 0 58 41 99 41 41 99 41 47 0 85-27 37-28 50-72h315q13 44 50 72 37 27 84 27 58 0 99-41 41-41 41-99 0-47-27-84-28-37-72-50v-315q44-13 72-50 27-38 27-85 0-58-41-99-41-41-99-41-47 0-85 27-37 28-49 72h-315q-13-44-50-72-38-27-85-27z m0 666q25 0 42 17t17 41q0 25-17 41t-42 17q-25 0-41-17-16-16-16-41t16-41q16-17 41-17z m584 0q25 0 41 17t17 41q0 25-17 41t-41 17q-25 0-41-17-17-16-17-41t17-41q16-17 41-17z m-449-484h315q10 33 34 58 25 24 58 35v315q-34 10-58 34-24 24-34 58h-315q-11-33-35-58-25-24-58-34v-315q33-11 58-35 24-25 35-58z m449-99q25 0 41 16t17 41q0 25-17 42t-41 17q-25 0-41-17-17-17-17-42t17-41q16-16 41-16z m-584 0q25 0 42 16t17 41q0 25-17 42t-42 17q-25 0-41-17-16-17-16-42t16-41q16-16 41-16z m0 641z m584 0z m0-584z m-584 0z" horiz-adv-x="1000" />

<glyph glyph-name="target" unicode="&#xf01f;" d="M463-121v78q-144 16-243 114t-113 242h-78v75h78q16 143 114 242t242 113v78h75v-78q143-15 241-113 98-99 114-242h78v-75h-78q-15-144-113-242-99-98-242-114v-78z m37 160q128 0 220 91t92 220q0 128-92 220t-220 92q-128 0-220-92t-91-220q0-128 91-220t220-91z m0 155q-66 0-111 45-45 45-45 111 0 66 45 111 45 45 111 45 66 0 111-45 45-45 45-111 0-66-45-111-45-45-111-45z m0 76q33 0 57 23t23 57q0 33-23 57t-57 23q-33 0-57-23t-23-57q0-33 23-57t57-23z m0 80z" horiz-adv-x="1000" />

<glyph glyph-name="heart" unicode="&#xf020;" d="M499-44l-52 47q-113 103-185 178t-117 133q-43 59-60 107-17 49-17 99 0 100 67 168 67 67 166 67 59 0 109-26t89-78q46 54 94 79 48 25 104 25 100 0 168-67 67-68 67-168 0-50-17-98-17-48-60-107t-117-134q-73-75-185-178z m0 109q105 97 173 165 68 69 107 120 40 51 55 91 15 40 15 79 0 67-42 109t-109 43q-52 0-97-33-45-33-73-92h-57q-27 58-73 92-45 33-97 33-66 0-108-43t-42-109q0-40 16-80 15-41 55-93t107-120q68-68 170-162z m2 304z" horiz-adv-x="1000" />

<glyph glyph-name="flag" unicode="&#xf021;" d="M194-40v739h384l20-90h251v-415h-295l-20 88h-258v-322z m327 486z m104-170h141v250h-239l-20 90h-231v-251h329z" horiz-adv-x="1000" />

<glyph glyph-name="star" unicode="&#xf022;" d="M345 75l155 93 155-94-41 176 136 119-180 15-70 166-70-166-180-14 137-119z m-124-172l74 318-247 213 325 29 127 300 127-300 325-29-247-213 74-318-279 169z m279 399z" horiz-adv-x="1000" />

<glyph glyph-name="stars" unicode="&#xf023;" d="M722 197l179 154 116-10-202-173 62-265-102 64z m-107 330l-57 133 44 103 103-243z m-333-452l156 93 155-94-42 176 137 119-181 15-69 166-70-166-180-14 136-119z m-124-172l74 318-247 213 325 29 128 300 127-300 325-29-247-213 74-318-279 169z m280 389z" horiz-adv-x="1000" />

<glyph glyph-name="bolt" unicode="&#xf024;" d="M416 31l282 341h-182l35 285-256-370h157z m-95-114l42 291h-218l398 575h103l-42-333h262l-444-533z m175 426z" horiz-adv-x="1000" />

<glyph glyph-name="flash" unicode="&#xf025;" d="M487 155l185 268h-134l79 274h-258v-378h128z m-83-264v346h-128v543h450l-79-274h183z m83 428h-128 128z" horiz-adv-x="1000" />

<glyph glyph-name="notification" unicode="&#xf026;" d="M142 46v82h92v303q0 93 54 166 54 74 143 94v27q0 28 21 47 20 18 48 18t48-18q21-19 21-47v-27q89-20 144-94 55-73 55-166v-303h91v-82z m358 319z m0-446q-35 0-62 26-26 26-26 61h177q0-36-26-62t-63-25z m-183 209h367v303q0 77-53 132-53 54-130 54t-131-54q-53-55-53-132z" horiz-adv-x="1000" />

<glyph glyph-name="notification-active" unicode="&#xf027;" d="M102 432q0 89 37 169 37 80 106 137l51-57q-56-46-87-111-31-66-31-138z m721 0q0 72-29 138-29 65-86 111l51 57q69-58 105-137 35-80 35-169z m-681-386v82h92v303q0 93 54 166 54 74 143 94v27q0 28 21 47 20 18 48 18t48-18q21-19 21-47v-27q89-20 144-94 55-73 55-166v-303h91v-82z m358 319z m0-446q-35 0-62 26-26 26-26 61h177q0-36-26-62t-63-25z m-183 209h367v303q0 77-53 132-53 54-130 54t-131-54q-53-55-53-132z" horiz-adv-x="1000" />

<glyph glyph-name="eye" unicode="&#xf028;" d="M500 194q74 0 126 51 51 52 51 126 0 74-51 125-52 52-126 52-74 0-125-52-52-51-52-125 0-74 52-126 51-51 125-51z m0 70q-45 0-76 31t-31 76q0 45 31 76t76 31q45 0 76-31t31-76q0-45-31-76t-76-31z m0-219q-157 0-283 90t-189 236q63 145 189 235 126 91 283 91t283-91q126-90 189-235-63-145-189-236-126-90-283-90z m0 326z m0-250q126 0 231 68t161 182q-55 113-161 182-105 68-231 68t-231-68q-105-69-162-182 57-114 162-182 105-68 231-68z" horiz-adv-x="1000" />

<glyph glyph-name="user" unicode="&#xf029;" d="M500 358q-75 0-123 48-48 48-48 123 0 76 48 124 48 48 123 48 75 0 123-48 49-48 49-124 0-75-49-123-48-48-123-48z m-348-363v113q0 43 22 75 22 32 57 48 71 33 137 48 65 16 132 16 68 0 133-16t135-48q36-15 59-47 22-32 22-76v-113z m82 82h532v29q0 16-10 31-10 15-25 21-64 32-118 43-54 12-113 12-58 0-114-12t-118-43q-15-6-24-21-10-15-10-31z m266 365q39 0 64 25 25 25 25 62 0 40-25 64-25 25-64 25-38 0-63-25-25-24-25-63 0-38 25-63 25-25 63-25z m0 87z m0-452z" horiz-adv-x="1000" />

<glyph glyph-name="pin" unicode="&#xf02a;" d="M676 332l90-80v-83h-224v-249l-42-42-42 42v249h-223v83l84 80v335h-52v82h461v-82h-52z m-329-80h300l-54 49v366h-192v-366z m150 0z" horiz-adv-x="1000" />

<glyph glyph-name="tag" unicode="&#xf02b;" d="M597-64q-25-24-60-24t-60 24l-390 391q-13 14-18 29t-5 32v316q0 36 23 60 23 24 59 24h317q16 0 32-6 17-6 30-18l389-389q25-26 25-61 0-35-25-61z m-56 58l316 316-394 394h-317v-316z m-286 548q22 0 38 16 16 16 16 38 0 22-16 38-16 16-38 16-22 0-38-16-16-16-16-38 0-22 16-38 16-16 38-16z m-109 162z" horiz-adv-x="1000" />

<glyph glyph-name="clock" unicode="&#xf02c;" d="M647 147l56 55-162 165v203h-75v-235z m-147-228q-88 0-167 34-79 33-138 92-58 59-92 137t-34 168q0 89 34 167 34 79 92 138 59 59 138 93 79 34 167 34t167-34q79-34 138-93 59-59 93-138 34-78 34-167t-34-167q-34-79-93-138-59-59-137-92t-168-34z m0 431z m0-349q144 0 246 102 103 102 103 247 0 144-103 246-102 103-246 103-144 0-246-103-103-102-103-246 0-145 103-247 102-102 246-102z" horiz-adv-x="1000" />

<glyph glyph-name="wreck" unicode="&#xf02d;" d="M732-37l-277 279q-22-8-44-12-22-5-48-5-108 0-182 75-75 75-75 180 0 35 10 69t26 61l154-153 96 90-159 157q27 17 62 27t68 11q108 0 184-76 76-76 76-186 0-24-4-47t-13-46l278-277q16-15 16-37t-16-36l-79-74q-15-14-37-14t-36 14z m39 69l42 42-298 298q16 22 25 51 8 30 8 57 0 78-58 133-58 54-132 55l106-108q9-9 9-22 0-14-9-23l-138-130q-9-9-23-9-13 0-23 9l-101 100q3-80 57-132 54-52 127-52 26 0 55 8t51 25z m-274 319z" horiz-adv-x="1000" />

<glyph glyph-name="like" unicode="&#xf02e;" d="M734-50h-464v550l283 293 52-39q8-6 12-18 4-12 4-28v-5l-45-203h305q33 0 58-25 26-25 26-58v-59q0-8 1-17 1-10-2-17l-135-309q-11-28-38-46-26-19-57-19z m-388 82h402l132 315v70h-400l50 237-184-196z m0 426v-426z m-76 42v-83h-125v-385h125v-82h-207v550z" horiz-adv-x="1000" />

<glyph glyph-name="unlike" unicode="&#xf02f;" d="M254 709h466v-550l-283-292-54 38q-7 6-11 18-4 12-4 28v5l45 203h-306q-32 0-57 26t-25 58v58q0 8-2 17-1 9 2 17l134 310q12 27 39 46 27 18 56 18z m389-82h-402l-133-314v-70h400l-50-238 185 196z m0-426v426z m77-42v84h124v384h-124v82h207v-550z" horiz-adv-x="1000" />

<glyph glyph-name="circle-minus" unicode="&#xf030;" d="M292 312h416v83h-416z m208-393q-88 0-167 34-79 33-138 92-58 59-92 137t-34 168q0 90 34 168 34 79 92 137 58 59 137 93 78 34 168 34 90 0 169-34t137-92q58-58 92-137t34-169q0-90-34-168-34-79-93-137-58-59-136-92t-169-34z m0 82q146 0 247 102t102 247q0 146-102 247t-247 102q-145 0-247-102-102-101-102-247 0-145 102-247 102-102 247-102z m0 349z" horiz-adv-x="1000" />

<glyph glyph-name="circle-plus" unicode="&#xf031;" d="M469 139h69v173h174v68h-174v182h-69v-182h-180v-68h180z m31-220q-90 0-168 34-78 33-137 92t-92 137q-34 78-34 168 0 91 34 169t92 136q58 59 137 93 78 34 168 34 91 0 169-34 79-34 137-92t92-137q34-78 34-169 0-90-34-168-34-79-93-137-58-59-136-92t-169-34z m1 82q145 0 246 102 102 102 102 248 0 145-102 246-101 102-247 102-145 0-247-102-102-101-102-247 0-145 102-247 102-102 248-102z m-1 349z" horiz-adv-x="1000" />

<glyph glyph-name="circle-check" unicode="&#xf032;" d="M438 152l301 301-60 60-241-242-120 120-59-60z m62-233q-88 0-167 34-79 33-138 92-58 59-92 137t-34 168q0 90 34 168 34 79 92 137 58 59 137 93 78 34 168 34 90 0 169-34t137-92q58-58 92-137t34-169q0-90-34-168-34-79-93-137-58-59-136-92t-169-34z m0 82q146 0 247 102t102 247q0 146-102 247t-247 102q-145 0-247-102-102-101-102-247 0-145 102-247 102-102 247-102z m0 349z" horiz-adv-x="1000" />

<glyph glyph-name="circle-close" unicode="&#xf033;" d="M349 150l151 151 151-151 49 49-151 151 151 151-49 49-151-151-151 151-49-49 151-151-151-151z m151-231q-88 0-167 34-79 33-138 92-58 59-92 137t-34 168q0 90 34 168 34 79 92 137 58 59 137 93 78 34 168 34 90 0 169-34t137-92q58-58 92-137t34-169q0-90-34-168-34-79-93-137-58-59-136-92t-169-34z m0 82q146 0 247 102t102 247q0 146-102 247t-247 102q-145 0-247-102-102-101-102-247 0-145 102-247 102-102 247-102z m0 349z" horiz-adv-x="1000" />

<glyph glyph-name="circle-info" unicode="&#xf034;" d="M466 135h75v257h-75z m34 325q19 0 31 12 12 12 12 30 0 20-12 32t-31 12q-19 0-31-12-12-12-12-32 0-18 12-30 12-12 31-12z m0-541q-90 0-168 34-78 33-137 92t-92 137q-34 78-34 168 0 91 34 169t92 136q58 59 137 93 78 34 168 34 91 0 169-34 79-34 137-92t92-137q34-78 34-169 0-90-34-168-34-79-93-137-58-59-136-92t-169-34z m1 82q145 0 246 102 102 102 102 248 0 145-102 246-101 102-247 102-145 0-247-102-102-101-102-247 0-145 102-247 102-102 248-102z m-1 349z" horiz-adv-x="1000" />

<glyph glyph-name="circle-question" unicode="&#xf035;" d="M503 107q18 0 31 13 13 13 13 32 0 18-13 31-13 13-31 13-19 0-32-13-13-13-13-31 0-19 13-32 13-13 32-13z m-41 152h70q0 26 7 49 7 22 40 50 31 24 44 51 14 28 14 60 0 56-35 90-35 35-95 35-53 0-94-28-41-27-60-75l65-24q12 30 34 46 22 15 50 15 29 0 49-17 20-17 20-44 0-21-13-41t-35-38q-30-26-46-55-15-28-15-74z m38-340q-88 0-167 34-79 33-138 92-58 59-92 137t-34 168q0 90 34 168 34 79 92 137 58 59 137 93 78 34 168 34 90 0 169-34t137-92q58-58 92-137t34-169q0-90-34-168-34-79-93-137-58-59-136-92t-169-34z m0 82q146 0 247 102t102 247q0 146-102 247t-247 102q-145 0-247-102-102-101-102-247 0-145 102-247 102-102 247-102z m0 349z" horiz-adv-x="1000" />

<glyph glyph-name="circle-exclamation" unicode="&#xf036;" d="M500 127q21 0 34 13t13 34q0 20-13 34t-34 14q-21 0-34-14t-13-34q0-21 13-34t34-13z m-38 173h83v274h-83z m38-381q-90 0-168 34-78 33-137 92t-92 137q-34 78-34 168 0 91 34 169t92 136q58 59 137 93 78 34 168 34 91 0 169-34 79-34 137-92t92-137q34-78 34-169 0-90-34-168-34-79-93-137-58-59-136-92t-169-34z m1 82q145 0 246 102 102 102 102 248 0 145-102 246-101 102-247 102-145 0-247-102-102-101-102-247 0-145 102-247 102-102 248-102z m-1 349z" horiz-adv-x="1000" />

<glyph glyph-name="circle-bolt" unicode="&#xf037;" d="M484 93l172 309h-134v204l-179-308h141z m16-174q-88 0-167 34-79 33-138 92-58 59-92 137t-34 168q0 90 34 168 34 79 92 137 58 59 137 93 78 34 168 34 90 0 169-34t137-92q58-58 92-137t34-169q0-90-34-168-34-79-93-137-58-59-136-92t-169-34z m0 82q146 0 247 102t102 247q0 146-102 247t-247 102q-145 0-247-102-102-101-102-247 0-145 102-247 102-102 247-102z m0 349z" horiz-adv-x="1000" />

<glyph glyph-name="circle-star" unicode="&#xf038;" d="M333 100l167 127 167-127-67 205 167 118h-203l-64 211-65-211h-203l167-118z m167-181q-88 0-167 34-79 33-138 92-58 59-92 137t-34 168q0 90 34 168 34 79 92 137 58 59 137 93 78 34 168 34 90 0 169-34t137-92q58-58 92-137t34-169q0-90-34-168-34-79-93-137-58-59-136-92t-169-34z m0 82q146 0 247 102t102 247q0 146-102 247t-247 102q-145 0-247-102-102-101-102-247 0-145 102-247 102-102 247-102z m0 349z" horiz-adv-x="1000" />

<glyph glyph-name="circle-notification" unicode="&#xf039;" d="M500 80q23 0 39 16 16 17 17 39h-113q1-22 17-39 17-16 40-16z m-200 118h399v58h-42v122q0 63-32 115t-93 63v33q0 13-9 23-9 9-23 9-13 0-23-9t-10-23v-33q-60-11-92-61-33-50-33-111v-128h-42z m102 58v136q0 41 28 72 28 30 70 30 41 0 69-30 28-31 28-72v-136z m98-337q-90 0-168 34-78 33-137 92t-92 137q-34 78-34 168 0 91 34 169t92 136q58 59 137 93 78 34 168 34 91 0 169-34 79-34 137-92t92-137q34-78 34-169 0-90-34-168-34-79-93-137-58-59-136-92t-169-34z m1 82q145 0 246 102 102 102 102 248 0 145-102 246-101 102-247 102-145 0-247-102-102-101-102-247 0-145 102-247 102-102 248-102z m-1 349z" horiz-adv-x="1000" />

<glyph glyph-name="circle-flag" unicode="&#xf03a;" d="M333 100h64v208h99l42-83h212v250h-121l-41 83h-255z m247 189l-41 83h-142v123h148l42-83h100v-123z m-80-370q-88 0-167 34-79 33-138 92-58 59-92 137t-34 168q0 90 34 168 34 79 92 137 58 59 137 93 78 34 168 34 90 0 169-34t137-92q58-58 92-137t34-169q0-90-34-168-34-79-93-137-58-59-136-92t-169-34z m0 82q146 0 247 102t102 247q0 146-102 247t-247 102q-145 0-247-102-102-101-102-247 0-145 102-247 102-102 247-102z m0 349z" horiz-adv-x="1000" />

<glyph glyph-name="circle-refresh" unicode="&#xf03b;" d="M502 53l124 123-123 123-50-49 42-41q-27 1-52 11-24 10-44 29-20 21-31 47-11 27-11 53 0 17 5 35 5 19 14 36l-51 50q-19-28-28-58-8-31-8-62 0-41 15-80 16-39 47-69 29-30 65-45 36-15 75-16l-38-38z m173 177q19 28 28 59 9 30 9 61 0 41-16 80-15 39-46 70-29 29-66 44-36 15-74 16l37 38-49 49-124-123 123-123 50 49-42 42q25-2 51-12 25-10 45-29 20-21 31-47 11-27 11-53 0-17-5-35-5-19-14-36z m-175-311q-88 0-167 34-79 33-138 92-58 59-92 138-34 79-34 167 0 90 34 168 34 79 92 137 59 59 138 93 79 34 167 34 90 0 168-34 79-34 137-93 59-58 93-137 34-78 34-168 0-88-34-167-34-79-93-138-58-59-137-92-78-34-168-34z m0 82q146 0 247 102t102 247q0 146-102 247t-247 102q-145 0-247-102-102-101-102-247 0-145 102-247 102-102 247-102z m0 349z" horiz-adv-x="1000" />

<glyph glyph-name="circle-pending" unicode="&#xf03c;" d="M282 298q22 0 37 15 15 15 15 37 0 22-15 37-15 15-37 15-22 0-37-15-15-15-15-37 0-22 15-37 15-15 37-15z m218 0q22 0 37 15 15 15 15 37 0 22-15 37-15 15-37 15-22 0-37-15-15-15-15-37 0-22 15-37 15-15 37-15z m217 0q22 0 37 15 15 15 15 37 0 22-15 37-15 15-37 15-22 0-37-15-15-15-15-37 0-22 15-37 15-15 37-15z m-217-379q-90 0-168 34-78 33-137 92t-92 137q-34 78-34 168 0 91 34 169t92 136q58 59 137 93 78 34 168 34 91 0 169-34 79-34 137-92t92-137q34-78 34-169 0-90-34-168-34-79-93-137-58-59-136-92t-169-34z m1 82q145 0 246 102 102 102 102 248 0 145-102 246-101 102-247 102-145 0-247-102-102-101-102-247 0-145 102-247 102-102 248-102z m-1 349z" horiz-adv-x="1000" />

<glyph glyph-name="circle-wreck" unicode="&#xf03d;" d="M672 133l42 39q9 9 9 21t-9 22l-154 154q4 12 7 25 3 13 3 28 0 61-44 105-44 44-105 44-19 0-39-7-19-7-36-16l87-86-50-47-84 83q-11-16-17-36-6-20-6-40 0-60 42-102 42-42 103-42 13 0 27 2 15 2 29 7l152-154q9-8 22-8 13 0 21 8z m-172-214q-88 0-167 34-79 33-138 92-58 59-92 137t-34 168q0 90 34 168 34 79 92 137 58 59 137 93 78 34 168 34 90 0 169-34t137-92q59-58 92-137 34-78 34-169 0-90-34-168-34-79-93-137-58-59-136-92t-169-34z m0 82q146 0 247 102t102 247q0 146-102 247t-247 102q-145 0-247-102-102-101-102-247 0-145 102-247 102-102 247-102z m0 349z" horiz-adv-x="1000" />

<glyph glyph-name="circle-cloud" unicode="&#xf03e;" d="M354 202h309q47 0 82 30 35 30 35 76 0 46-35 76-35 30-82 30-5 63-47 108t-109 46q-52 0-95-29-44-30-58-81-54 1-94-37t-39-91q0-54 39-91t94-37z m0 63q-28 0-49 18t-22 47q0 27 22 47t49 19h58v19q0 39 29 65t69 25q38 0 64-26 26-26 26-64v-64h63q19 0 37-11 18-12 18-32 0-18-17-31t-38-12z m146-346q-88 0-167 34-79 33-138 92-58 59-92 137t-34 168q0 90 34 168 34 79 92 137 58 59 137 93 78 34 168 34 90 0 169-34t137-92q58-58 92-137t34-169q0-90-34-168-34-79-93-137-58-59-136-92t-169-34z m0 82q146 0 247 102t102 247q0 146-102 247t-247 102q-145 0-247-102-102-101-102-247 0-145 102-247 102-102 247-102z m0 349z" horiz-adv-x="1000" />

<glyph glyph-name="circle-like" unicode="&#xf03f;" d="M375 128h240q14 0 24 6 10 7 17 19l82 189q2 5 3 15 2 11 2 16v25q0 15-7 21-7 7-21 7h-223l29 139q2 10-1 20t-10 17l-17 19-168-181-8-17q-4-8-4-18v-214q0-24 18-44 19-19 44-19z m125-209q-88 0-167 34-79 33-138 92-58 59-92 137t-34 168q0 90 34 168 34 79 92 137 58 59 137 93 78 34 168 34 90 0 169-34t137-92q58-58 92-137t34-169q0-90-34-168-34-79-93-137-58-59-136-92t-169-34z m0 82q146 0 247 102t102 247q0 146-102 247t-247 102q-145 0-247-102-102-101-102-247 0-145 102-247 102-102 247-102z m0 349z" horiz-adv-x="1000" />

<glyph glyph-name="box-minus" unicode="&#xf040;" d="M260 315h481v75h-481z m-67-355q-34 0-58 25-25 24-25 58v614q0 35 25 59 24 25 58 25h614q35 0 59-25 25-24 25-59v-614q0-34-25-58-24-25-59-25z m0 83h614v614h-614v-614z m0 614v-614 614z" horiz-adv-x="1000" />

<glyph glyph-name="box-plus" unicode="&#xf041;" d="M463 139h75v174h174v75h-174v174h-75v-174h-174v-75h174z m-270-179q-34 0-58 25-25 24-25 58v614q0 35 25 59 24 25 58 25h614q35 0 59-25 25-24 25-59v-614q0-34-25-58-24-25-59-25z m0 83h614v614h-614v-614z m0 614v-614 614z" horiz-adv-x="1000" />

<glyph glyph-name="box-check" unicode="&#xf042;" d="M435 173l308 308-56 58-252-251-118 118-57-57z m-242-213q-34 0-58 25-25 24-25 58v614q0 35 25 59 24 25 58 25h614q35 0 59-25 25-24 25-59v-614q0-34-25-58-24-25-59-25z m0 83h614v614h-614v-614z m0 614v-614 614z" horiz-adv-x="1000" />

<glyph glyph-name="box-close" unicode="&#xf043;" d="M350 151l150 150 150-150 49 49-150 150 150 150-49 49-150-150-150 150-49-49 150-150-150-150z m-157-191q-34 0-58 25-25 24-25 58v614q0 35 25 59 24 25 58 25h614q35 0 59-25 25-24 25-59v-614q0-34-25-58-24-25-59-25z m0 83h614v614h-614v-614z m0 614v-614 614z" horiz-adv-x="1000" />

<glyph glyph-name="romb-info" unicode="&#xf044;" d="M500 789q16 0 31-7 15-6 27-17l357-357q11-12 17-27 7-15 7-31 0-16-7-31-6-15-17-27l-357-357q-12-12-27-18t-31-6q-16 0-31 6-15 6-27 18l-357 357q-12 12-18 27t-5 31q0 16 5 31 6 15 18 27l357 357q12 11 27 17 15 7 31 7z m0-84l-356-355 356-356 355 356-355 355z m38-310l-75 0 0-250 75 0z m-38 128q-16 0-27-11-10-11-10-27 0-15 10-27t27-11q16 0 27 11 11 12 11 27t-11 27q-11 11-27 11z m0-173z" horiz-adv-x="1000" />

<glyph glyph-name="box-question" unicode="&#xf045;" d="M495 106q18 0 31 13t14 32q0 18-14 31-13 13-31 13-19 0-31-13t-13-31q0-19 13-32 13-13 31-13z m-39 154h68q0 30 10 52 10 21 38 47 29 31 43 57 14 27 14 59 0 57-36 90-37 32-95 32-56 0-95-29t-57-74l64-26q15 27 36 43 21 16 51 16 29 0 46-15 16-16 16-41 0-20-11-38-11-17-32-38-41-40-50-65-10-25-10-70z m-263-300q-34 0-58 25-25 24-25 58v614q0 35 25 59 24 25 58 25h614q35 0 59-25 25-24 25-59v-614q0-34-25-58-24-25-59-25z m0 83h614v614h-614v-614z m0 614v-614 614z" horiz-adv-x="1000" />

<glyph glyph-name="romb-exclamation" unicode="&#xf046;" d="M500-89q-16 0-31 7-15 6-27 17l-357 357q-11 12-17 27-6 15-6 31 0 16 6 31 6 15 17 27l357 357q12 12 27 18t31 6q16 0 31-6 15-6 27-18l357-357q12-12 18-27t6-31q0-16-6-31-6-15-18-27l-357-357q-12-11-27-17-15-7-31-7z m0 84l356 355-356 356-355-356 355-355z m-37 310h75v250h-75z m37-128q16 0 27 11 11 11 11 27 0 15-11 27t-27 11q-16 0-27-11-10-12-10-27t10-27q11-11 27-11z m0 173z" horiz-adv-x="1000" />

<glyph glyph-name="box-settings" unicode="&#xf047;" d="M466 142h68l12 58q19 5 32 14 14 9 25 20l67-19 32 64-51 34q4 19 4 37 0 18-4 39l51 32-32 66-67-21q-11 11-25 20-13 9-32 14l-12 58h-68l-12-57q-20-6-33-15t-24-20l-67 21-32-66 51-32q-4-21-4-39 0-18 4-37l-51-34 32-64 67 19q11-11 24-20 13-9 33-15z m34 123q-36 0-61 25-24 25-24 60 0 37 25 61 25 24 60 24 37 0 61-25 24-25 24-60 0-36-25-61-25-24-60-24z m-307-305q-34 0-58 25-25 24-25 58v614q0 35 25 59 24 25 58 25h614q35 0 59-25 25-24 25-59v-614q0-34-25-58-24-25-59-25z m0 83h614v614h-614v-614z m0 614v-614 614z" horiz-adv-x="1000" />

<glyph glyph-name="loc-plus" unicode="&#xf048;" d="M466 271h68v125h125v69h-125v125h-68v-125h-125v-69h125z m34-242q133 122 197 222 63 99 63 174 0 119-75 194-76 75-185 75t-185-75q-75-75-75-194 0-75 65-174t195-222z m0-108q-173 147-258 272-86 126-86 232 0 160 104 256 104 96 240 96 137 0 240-96 104-96 104-256 0-106-86-232t-258-272z m0 504z" horiz-adv-x="1000" />

<glyph glyph-name="loc-check" unicode="&#xf049;" d="M462 307l196 197-49 48-147-148-68 68-48-49z m38-278q133 122 197 222 63 99 63 174 0 119-75 194-76 75-185 75t-185-75q-75-75-75-194 0-75 65-174t195-222z m0-108q-173 147-258 272-86 126-86 232 0 160 104 256 104 96 240 96 137 0 240-96 104-96 104-256 0-106-86-232t-258-272z m0 504z" horiz-adv-x="1000" />

<glyph glyph-name="loc-exclamation" unicode="&#xf04a;" d="M466 381h68v219h-68z m34-138q15 0 25 10 9 11 9 24 0 15-9 25-10 10-25 10-13 0-24-10-10-10-10-25 0-13 10-24 11-10 24-10z m0-214q133 122 197 222 63 99 63 174 0 119-75 194-76 75-185 75t-185-75q-75-75-75-194 0-75 65-174t195-222z m0-108q-173 147-258 272-86 126-86 232 0 160 104 256 104 96 240 96 137 0 240-96 104-96 104-256 0-106-86-232t-258-272z m0 504z" horiz-adv-x="1000" />

<glyph glyph-name="loc-question" unicode="&#xf04b;" d="M500 193q16 0 27 11t12 27q0 16-12 27t-27 12q-16 0-27-12t-11-27q0-15 11-27t27-11z m-26 126h52q0 12 1 23 0 10 6 20 4 8 12 15t26 24q23 20 33 40t11 48q0 48-32 74-31 27-80 27-40 0-72-23-32-22-44-57l47-18q8 18 26 33 18 15 43 15 28 0 43-15 16-16 16-38 0-18-9-32t-29-31q-18-17-28-28-9-11-14-21-4-9-6-22-2-13-2-34z m26-290q133 122 197 222 63 99 63 174 0 119-75 194-76 75-185 75t-185-75q-75-75-75-194 0-75 65-174t195-222z m0-108q-173 147-258 272-86 126-86 232 0 160 104 256 104 96 240 96 137 0 240-96 104-96 104-256 0-106-86-232t-258-272z m0 504z" horiz-adv-x="1000" />

<glyph glyph-name="loc-edit" unicode="&#xf04c;" d="M368 301h53l145 147-51 51-147-145z m232 181l28 28q3 4 3 8t-3 8l-35 36q-3 3-8 3t-8-3l-28-29z m-100-453q133 122 197 222 63 99 63 174 0 119-75 194-76 75-185 75t-185-75q-75-75-75-194 0-75 65-174t195-222z m0-108q-173 147-258 272-86 126-86 232 0 160 104 256 104 96 240 96 137 0 240-96 104-96 104-256 0-106-86-232t-258-272z m0 504z" horiz-adv-x="1000" />

<glyph glyph-name="loc-home" unicode="&#xf04d;" d="M500 29q133 122 197 222 63 99 63 174 0 119-75 194-76 75-185 75t-185-75q-75-75-75-194 0-75 65-174t195-222z m0-108q-173 147-258 272-86 126-86 232 0 160 104 256 104 96 240 96 137 0 240-96 104-96 104-256 0-106-86-232t-258-272z m-112 394h66v110h92v-110h67v185l-113 75-112-75z m112 110z" horiz-adv-x="1000" />

<glyph glyph-name="location" unicode="&#xf04e;" d="M500 357q31 0 54 23 22 22 22 53 0 32-22 54-23 22-54 22-31 0-54-22-22-22-22-54 0-31 22-53 23-23 54-23z m0-328q133 122 197 222 63 99 63 174 0 119-75 194-76 75-185 75t-185-75q-75-75-75-194 0-75 65-174t195-222z m0-108q-173 147-258 272-86 126-86 232 0 160 104 256 104 96 240 96 137 0 240-96 104-96 104-256 0-106-86-232t-258-272z m0 504z" horiz-adv-x="1000" />

<glyph glyph-name="loc-user" unicode="&#xf04f;" d="M500 235q53 0 96 25t70 67q-36 27-77 41-42 13-89 13t-88-13q-42-14-78-41 26-42 70-67 43-25 96-25z m0 209q30 0 52 21 21 22 21 52 0 30-21 51-22 22-52 22-30 0-52-22-21-21-21-51 0-30 21-52 22-21 52-21z m0-415q133 122 197 222 63 99 63 174 0 119-75 194-76 75-185 75t-185-75q-75-75-75-194 0-75 65-174t195-222z m0-108q-173 147-258 272-86 126-86 232 0 160 104 256 104 96 240 96 137 0 240-96 104-96 104-256 0-106-86-232t-258-272z m0 504z" horiz-adv-x="1000" />

<glyph glyph-name="shield-plus" unicode="&#xf050;" d="M458 225h84v104h104v84h-104v104h-84v-104h-104v-84h104z m42-306q-152 38-250 175-98 137-98 301v258l348 130 349-130v-258q0-164-98-301-99-137-251-175z m0 85q117 42 191 149 75 107 75 242v200l-266 100-266-100v-200q0-135 75-242 74-107 191-149z m0 345z" horiz-adv-x="1000" />

<glyph glyph-name="shield-check" unicode="&#xf051;" d="M454 206l243 243-49 48-191-191-106 106-50-50z m46-287q-152 38-250 175-98 137-98 301v258l348 130 349-130v-258q0-164-98-301-99-137-251-175z m0 85q117 42 191 149 75 107 75 242v200l-266 100-266-100v-200q0-135 75-242 74-107 191-149z m0 345z" horiz-adv-x="1000" />

<glyph glyph-name="shield-close" unicode="&#xf052;" d="M402 207l98 95 98-95 52 52-97 95 97 96-52 51-98-95-98 95-52-51 97-96-97-95z m98-288q-152 38-250 175-98 137-98 301v258l348 130 349-130v-258q0-164-98-301-99-137-251-175z m0 85q117 42 191 149 75 107 75 242v200l-266 100-266-100v-200q0-135 75-242 74-107 191-149z m0 345z" horiz-adv-x="1000" />

<glyph glyph-name="shield-info" unicode="&#xf053;" d="M466 144h68v271h-68z m34 329q18 0 30 12 12 12 12 31 0 17-12 29-12 12-30 12-18 0-30-12-12-12-12-30 0-18 12-30 12-12 30-12z m0-554q-152 38-250 175-98 137-98 301v258l348 130 349-130v-258q0-164-98-301-99-137-251-175z m0 85q117 42 191 149 75 107 75 242v200l-266 100-266-100v-200q0-135 75-242 74-107 191-149z m0 345z" horiz-adv-x="1000" />

<glyph glyph-name="shield-exclamation" unicode="&#xf054;" d="M500 189q18 0 30 12 12 12 12 30 0 18-12 30-12 12-30 12-18 0-30-12-12-12-12-31 0-17 12-29 12-12 30-12z m-34 142h68v226h-68z m34-412q-152 38-250 175-98 137-98 301v258l348 130 349-130v-258q0-164-98-301-99-137-251-175z m0 85q117 42 191 149 75 107 75 242v200l-266 100-266-100v-200q0-135 75-242 74-107 191-149z m0 345z" horiz-adv-x="1000" />

<glyph glyph-name="shield-star" unicode="&#xf055;" d="M384 210l116 86 113-86-47 138 115 83h-139l-42 136-42-136h-138l112-83z m116-291q-152 38-250 175-98 137-98 301v258l348 130 349-130v-258q0-164-98-301-99-137-251-175z m0 85q117 42 191 149 75 107 75 242v200l-266 100-266-100v-200q0-135 75-242 74-107 191-149z m0 345z" horiz-adv-x="1000" />

<glyph glyph-name="shield-heart" unicode="&#xf056;" d="M500 195q99 89 127 125 27 35 27 72 0 35-25 60t-59 25q-21 0-39-9t-31-22q-12 13-31 22-18 9-39 9-35 0-60-25t-24-60q0-18 5-34 4-15 21-37 17-21 47-51 30-29 81-75z m0-276q-152 38-250 175-98 137-98 301v258l348 130 349-130v-258q0-164-98-301-99-137-251-175z m0 85q117 42 191 149 75 107 75 242v200l-266 100-266-100v-200q0-135 75-242 74-107 191-149z m0 345z" horiz-adv-x="1000" />

<glyph glyph-name="shield-clock" unicode="&#xf057;" d="M500 163q81 0 140 58 59 59 59 141 0 81-59 139-59 58-140 58-81 0-140-58-58-58-58-139 0-82 58-141 59-58 140-58z m77 88l-106 98v147h50v-131l89-81z m-77-332q-152 38-250 175-98 137-98 301v258l348 130 349-130v-258q0-164-98-301-99-137-251-175z m0 85q117 42 191 149 75 107 75 242v200l-266 100-266-100v-200q0-135 75-242 74-107 191-149z m0 345z" horiz-adv-x="1000" />

<glyph glyph-name="octagon-close" unicode="&#xf058;" d="M338-40l-228 228v325l228 228h325l228-228v-325l-228-228z m34 83h256l179 179v256l-179 179h-256l-179-179v-256z m2 133l126 125 126-125 49 48-126 126 126 126-49 49-126-126-126 126-48-49 125-126-125-126z m126 174z" horiz-adv-x="1000" />

<glyph glyph-name="octagon-exclamation" unicode="&#xf059;" d="M500 132q18 0 30 13t13 31q0 17-13 30t-30 13q-18 0-30-13t-13-30q0-18 13-31 12-13 30-13z m-34 148h68v295h-68z m-128-320l-228 228v325l228 228h325l228-228v-325l-228-228z m34 83h256l179 179v256l-179 179h-256l-179-179v-256z m128 307z" horiz-adv-x="1000" />

<glyph glyph-name="total-silence" unicode="&#xf05a;" d="M503 105q102 0 175 73t73 175q0 102-73 175t-175 73q-102 0-175-73t-73-175q0-102 73-175t175-73z m-125 211v75h243v-75z m122-397q-88 0-167 34-79 33-138 92-58 59-92 137t-34 168q0 90 34 168 34 79 92 137 58 59 137 93 78 34 168 34 90 0 169-34t137-92q58-58 92-137t34-169q0-90-34-168-34-79-93-137-58-59-136-92t-169-34z m0 82q146 0 247 102t102 247q0 146-102 247t-247 102q-145 0-247-102-102-101-102-247 0-145 102-247 102-102 247-102z m0 349z" horiz-adv-x="1000" />

<glyph glyph-name="triangle-exclamation" unicode="&#xf05b;" d="M29-32l471 814 471-814z m133 76h677l-339 585z m342 54q14 0 24 10t10 24q0 14-10 23-10 10-24 10t-23-10q-10-10-10-24t10-23q10-10 23-10z m-31 115h62v228h-62z m27 124z" horiz-adv-x="1000" />

<glyph glyph-name="label-star" unicode="&#xf05c;" d="M892 350l-182-256q-16-23-39-37-23-13-50-13h-430q-34 0-58 24-25 24-25 58v448q0 34 25 59 24 24 58 24h430q27 0 50-14 23-14 39-37z m-103 0l-157 224h-441v-448h441z m-598 0v-224 448z m248-144l43 100 105 47-105 46-43 95-43-95-105-46 105-47z" horiz-adv-x="1000" />

<glyph glyph-name="more" unicode="&#xf05d;" d="M615 398q-21 0-35-14t-14-34q0-21 14-34 14-14 34-14 21 0 35 14 14 13 14 34 0 21-14 34-14 14-34 14z m-163 0q-22 0-35-14-14-13-14-34 0-21 14-34 13-14 34-14 21 0 35 14t14 34q0 21-14 34-14 14-34 14z m-163 0q-21 0-35-14t-14-34q0-21 14-34 14-14 34-14 21 0 35 14 14 13 14 34 0 21-14 34-14 14-34 14z m603-48l-182-256q-16-23-39-37-23-14-51-14l-429 0q-35 0-59 24t-24 59l0 448q0 34 24 58t59 24l429 0q28 0 51-13t39-37z m-103 0l-158 224-440 0 0-448 440 0z m-598 0v-224l0 448z" horiz-adv-x="1000" />

<glyph glyph-name="backspace" unicode="&#xf05e;" d="M469 183l115 116 115-116 52 52-116 115 114 115-52 52-113-116-115 116-53-52 116-115-116-115z m-361 167l182 256q16 23 39 37 23 14 51 14h429q35 0 59-24t24-59v-448q0-34-24-58t-59-24h-429q-28 0-51 13t-39 37z m104 0l157-224h440v448h-440z m597 0v224-448z" horiz-adv-x="1000" />

<glyph glyph-name="grade" unicode="&#xf05f;" d="M394 272l39 130-108 80h132l43 139 42-139h133l-107-80 38-130-106 80z m-146-394v319q-51 51-73 113-23 63-23 127 0 146 100 247t248 100q147 0 248-100 101-101 101-247 0-64-23-127t-74-113v-319l-252 83z m252 293q112 0 189 77 77 77 77 189 0 111-77 188-77 77-189 77-111 0-188-77-78-77-78-188 0-112 78-189 77-77 188-77z m-183-199l183 60 183-60v172q-42-29-90-43-47-13-93-13-46 0-93 13-48 14-90 43z m183 86z" horiz-adv-x="1000" />

<glyph glyph-name="folder" unicode="&#xf060;" d="M152 2q-33 0-58 25-24 25-24 57v538q0 33 24 58 25 25 58 25h280l69-68h349q33 0 58-25 25-25 25-59v-469q0-32-25-57t-58-25z m0 620v-538h698v469h-383l-69 69h-246z m0 0v-538z" horiz-adv-x="1000" />

<glyph glyph-name="folder-opened" unicode="&#xf061;" d="M151 2q-32 0-57 25t-25 57v538q0 33 25 58 25 25 57 25h281l69-68h348q33 0 58-25 25-25 25-59h-466l-70 69h-245v-540l106 409h736l-109-415q-11-39-36-57-25-17-67-17z m89 82h560l79 324h-560z m0 0l79 324-79-324z m-89 469v69-69z" horiz-adv-x="1000" />

<glyph glyph-name="folder-rights" unicode="&#xf062;" d="M326 198l192 192-45 44-148-147-59 59-44-44z m274 0l67 67 66-67 44 44-67 66 67 67-44 44-66-67-67 67-44-44 67-67-67-66z m-448-196q-33 0-58 25-24 25-24 57v538q0 33 24 58 25 25 58 25h280l69-68h349q33 0 58-25 25-25 25-59v-469q0-32-25-57t-58-25z m0 620v-538h698v469h-383l-69 69h-246z m0 0v-538z" horiz-adv-x="1000" />

<glyph glyph-name="folder-zip" unicode="&#xf063;" d="M151 2q-32 0-57 25t-25 57v538q0 33 25 58 25 25 57 25h280l69-68h349q33 0 58-25 25-25 25-59v-469q0-32-25-57t-58-25z m516 82h182v469h-182v-94h93v-93h-93v-94h93v-94h-93z m-516 0h423v94h93v94h-94v94h94v92h-94v95h-107l-69 69h-246v-538z m0 469v69-538 469z" horiz-adv-x="1000" />

<glyph glyph-name="folder-copy" unicode="&#xf064;" d="M110-42q-33 0-57 25-25 24-25 58v590h82v-590h765v-83z m146 145q-34 0-59 25-24 24-24 59v523q0 35 24 59 25 25 59 25h244l69-69h321q33 0 57-24 25-25 25-59v-455q0-35-25-59-24-25-57-25z m0 84h634v455h-356l-68 68h-210v-523z m0 0v523-523z" horiz-adv-x="1000" />

<glyph glyph-name="file" unicode="&#xf065;" d="M234-81q-33 0-57 24-25 25-25 58v698q0 34 25 59 24 24 57 24h378l237-237v-544q0-33-24-58-25-24-59-24z m335 586v194h-335v-698h532v504z m-335 194v-194 194-698 698z" horiz-adv-x="1000" />

<glyph glyph-name="file-audio" unicode="&#xf066;" d="M445 47q44 0 75 30t31 74v218h121v62h-163v-199q-11 10-28 15-17 6-36 6-43 0-72-29t-28-72q0-43 28-74t72-31z m-211-128q-33 0-57 24-25 25-25 58v698q0 34 25 59 24 24 57 24h378l237-237v-544q0-33-24-58-25-24-59-24z m335 586v194h-335v-698h532v504z m-335 194v-194 194-698 698z" horiz-adv-x="1000" />

<glyph glyph-name="file-video" unicode="&#xf067;" d="M367 100h182q15 0 26 11 10 11 10 26v57l84-48v158l-84-48v58q0 14-10 25-11 11-26 11h-182q-15 0-26-11-11-11-11-25v-177q0-15 11-26 11-11 26-11z m-133-181q-33 0-57 24-25 25-25 58v698q0 34 25 59 24 24 57 24h378l237-237v-544q0-33-24-58-25-24-59-24z m335 586v194h-335v-698h532v504z m-335 194v-194 194-698 698z" horiz-adv-x="1000" />

<glyph glyph-name="file-text" unicode="&#xf068;" d="M332 109h336v69h-336z m0 178h336v68h-336z m-98-368q-33 0-57 24-25 25-25 58v698q0 34 25 59 24 24 57 24h378l237-237v-544q0-33-24-58-25-24-59-24z m335 586v194h-335v-698h532v504z m-335 194v-194 194-698 698z" horiz-adv-x="1000" />

<glyph glyph-name="page-break" unicode="&#xf069;" d="M234-81q-34 0-58 24t-24 58v162h82v-162h532v162h83v-162q0-34-24-58t-59-24z m-82 452v328q0 34 24 59 24 24 58 24h378l237-237v-174h-83v134h-197v194h-335v-328z m210-146v83h277v-83z m339 0v83h268v-83z m-670 0v83h268v-83z m469 146z m0-208z" horiz-adv-x="1000" />

<glyph glyph-name="scan" unicode="&#xf06a;" d="M234-81q-34 0-58 24t-24 58v162h82v-162h532v162h83v-162q0-34-24-58t-59-24z m-82 452v328q0 34 24 59 24 24 58 24h378l237-237v-174h-83v134h-197v194h-335v-328z m-121-146v83h938v-83z m469 146z m0-208z" horiz-adv-x="1000" />

<glyph glyph-name="file-copy" unicode="&#xf06b;" d="M819 23h-524q-35 0-59 24-24 25-24 59v634q0 33 24 57 24 25 59 25h356l250-250v-466q0-34-24-59-25-24-58-24z m-211 510v207h-313v-634h524v427z m-459-655q-33 0-58 25-24 24-24 57v640h82v-640h523v-82z m146 862v-207 207-634 634z" horiz-adv-x="1000" />

<glyph glyph-name="file-diff" unicode="&#xf06c;" d="M526 392h63v87h87v63h-87v87h-63v-87h-87v-63h87z m-87-143h237v63h-237z m-144-226q-35 0-59 24-24 25-24 59v634q0 33 24 57 24 25 59 25h356l250-250v-466q0-34-24-59-25-24-58-24z m0 83h524v427l-211 207h-313v-634z m-146-228q-33 0-58 25-24 24-24 57v640h82v-640h523v-82z m146 228v634-634z" horiz-adv-x="1000" />

<glyph glyph-name="database" unicode="&#xf06d;" d="M500-40q-163 0-277 53-113 53-113 129v416q0 75 115 129 114 54 275 54 160 0 276-54 115-54 115-129v-416q0-76-114-129t-277-53z m0 524q90 0 183 28 93 27 121 61-29 33-123 61-94 28-181 28-91 0-183-28-92-27-122-61 30-36 121-63t184-26z m-1-222q43 0 86 5t83 14q39 10 76 24t68 32v141q-32-16-68-30-37-14-77-22-40-9-82-14-42-6-86-6-43 0-86 6t-83 14q-40 9-76 22-36 14-65 30v-141q28-18 64-32t76-23q40-10 83-15t87-5z m1-223q49 0 101 8 52 8 96 22 45 14 76 33t39 37v117q-31-17-67-31-36-13-76-23-40-9-82-14-43-5-88-5-44 0-87 5-43 5-83 14-40 10-76 24t-64 30v-118q7-18 38-36t75-32q44-14 96-23 52-8 102-8z" horiz-adv-x="1000" />

<glyph glyph-name="archive" unicode="&#xf06e;" d="M193-40q-34 0-58 25-25 24-25 58v545q0 18 5 32t13 25l59 79q11 10 25 16 13 6 31 6h514q18 0 31-6 13-6 25-16l59-79q9-12 14-25 5-14 5-32v-545q0-34-25-58-24-25-59-25z m15 655h584l-39 48h-507z m-15-63v-509h614v509z m307-418l171 171-48 48-86-87v208h-72v-208l-88 87-47-48z m-307-91h614-614z" horiz-adv-x="1000" />

<glyph glyph-name="unarchive" unicode="&#xf06f;" d="M193-40q-34 0-58 25-25 24-25 58v545q0 18 5 32t13 25l59 79q11 10 25 16 13 6 31 6h514q18 0 31-6 13-6 25-16l59-79q9-12 14-25 5-14 5-32v-545q0-34-25-58-24-25-59-25z m15 655h584l-39 48h-507z m-15-63v-509h614v509z m272-418h72v210l86-88 48 48-171 170-170-170 47-48 88 88z m-272-91h614-614z" horiz-adv-x="1000" />

<glyph glyph-name="cloud" unicode="&#xf070;" d="M263 2q-97 0-166 68t-69 165q0 85 53 151t136 80q23 103 102 167 80 65 183 65 119 0 202-85 84-86 88-207v-25q77-3 128-56 52-54 52-133 0-78-56-134t-134-56z m0 82h518q44 0 76 32 33 32 33 77t-33 76q-32 32-76 32h-71v94q0 93-61 156t-151 64q-90 0-152-67-62-66-62-159h-25q-62 0-105-44t-44-108q0-64 45-108t108-45z m237 266z" horiz-adv-x="1000" />

<glyph glyph-name="cloud-download" unicode="&#xf071;" d="M262 2q-97 0-166 67-68 68-68 164 0 87 54 151 53 65 135 79 17 86 86 153 69 67 159 67 29 0 51-16 22-17 22-44v-305l84 84 50-50-168-168-168 168 50 50 84-84v294q-86-15-134-81-49-65-49-142h-25q-61 0-105-44-44-43-44-108 0-66 46-109 45-44 106-44h520q44 0 76 32t32 77q0 45-32 76t-77 32h-67v92q0 69-33 116t-84 80v88q87-30 140-106t55-168v-25q77-2 128-55 52-52 52-132 0-78-56-134-57-55-134-55z m238 385z" horiz-adv-x="1000" />

<glyph glyph-name="cloud-upload" unicode="&#xf072;" d="M262 2q-96 0-165 68-69 69-69 164 0 85 52 151t137 81q23 103 102 167 80 65 183 65 120 0 203-85 83-86 87-207v-25q77-3 128-56 52-54 52-133 0-78-56-134t-135-56h-233q-33 0-58 25-24 24-24 57v242l-90-89-50 48 174 174 174-174-50-48-90 89v-242h247q44 0 76 33 33 32 33 76 0 45-33 76t-76 32h-71v94q0 90-60 155-61 65-152 65-91 0-152-68t-62-158h-25q-62 0-105-44t-44-108q0-63 45-108 44-45 107-45h141v-82z m238 306z" horiz-adv-x="1000" />

<glyph glyph-name="edit" unicode="&#xf073;" d="M192 37h38l458 458-40 38-456-457z m637 502l-136 136 32 31q24 25 58 25t58-23l31-31q21-21 19-49-1-28-21-48z m-44-43l-528-528h-135v135l527 528z m-116 19l-21 18 40-38z" horiz-adv-x="1000" />

<glyph glyph-name="save" unicode="&#xf074;" d="M891 568v-525q0-34-25-58-24-25-59-25h-614q-34 0-58 25-25 24-25 58v614q0 35 25 59 24 25 58 25h525z m-84-37l-126 126h-488v-614h614z m-307-421q45 0 77 32t31 77q0 45-31 76t-77 32q-45 0-77-31t-31-77q0-45 31-77t77-32z m-252 343h373v149h-373z m-55 78v-488 614z" horiz-adv-x="1000" />

<glyph glyph-name="delete" unicode="&#xf075;" d="M267-40q-35 0-59 24t-24 59v583h-53v83h221v42h295v-42h222v-83h-53v-583q0-34-25-58-24-25-58-25z m466 666h-466v-583h466z m-358-498h72v416h-72z m178 0h73v416h-73z m-286 498v-583z" horiz-adv-x="1000" />

<glyph glyph-name="remove" unicode="&#xf076;" d="M377 155l123 125 124-125 56 58-123 125 123 125-56 57-124-125-123 125-57-57 124-125-124-125z m-110-195q-34 0-58 25-25 24-25 58v583h-53v83h221v42h295v-42h222v-83h-53v-583q0-34-25-58-24-25-58-25z m466 666h-466v-583h466z m-466 0v-583z" horiz-adv-x="1000" />

<glyph glyph-name="restore" unicode="&#xf077;" d="M464 194h73v202l79-84 52 51-167 167-168-167 51-51 80 84z m-197-234q-34 0-58 25-25 24-25 58v583h-53v83h221v42h295v-42h222v-83h-53v-583q0-34-25-58-24-25-58-25z m466 666h-466v-583h466z m-466 0v-583z" horiz-adv-x="1000" />

<glyph glyph-name="settings" unicode="&#xf078;" d="M392-81l-22 135q-17 6-36 17-19 11-33 23l-127-60-110 196 116 85q-2 7-2 17-1 11-1 18t1 18q0 10 2 17l-116 86 110 194 128-59q14 12 32 22t36 16l22 138h216l22-137q17-6 36-16 19-10 33-23l127 59 111-194-117-83q1-9 2-19t1-19q0-8-1-18t-2-18l117-84-111-196-128 60q-14-12-32-23-18-12-36-17l-22-135z m107 296q56 0 96 39 39 40 39 96 0 56-39 96-40 39-96 39-56 0-96-39-39-40-39-96 0-56 39-96 40-39 96-39z m0 62q-31 0-52 21t-21 52q0 30 21 52 21 21 52 21 30 0 52-21 21-22 21-52 0-30-21-52-22-21-52-21z m1 73z m-41-349h82l14 117q36 8 67 26 32 18 57 44l111-48 36 67-97 71q4 18 7 36t3 36q0 19-2 37t-8 35l97 71-36 67-111-47q-24 28-55 47-31 19-69 23l-14 116h-82l-14-116q-37-6-68-25-32-18-57-45l-110 47-36-67 96-70q-4-19-7-36t-3-37q0-19 3-37 3-18 7-36l-96-70 36-67 110 48q26-26 58-45t67-26z" horiz-adv-x="1000" />

<glyph glyph-name="calendar" unicode="&#xf079;" d="M193-81q-34 0-58 24-25 25-25 58v636q0 34 25 58 24 25 58 25h62v62h78v-62h334v62h78v-62h62q35 0 59-25 25-24 25-58v-636q0-33-25-58-24-24-59-24z m0 82h614v443h-614v-443z m0 505h614v131h-614z m0 0v131-131z" horiz-adv-x="1000" />

<glyph glyph-name="calendar-range" unicode="&#xf07a;" d="M312 262q-20 0-34 13-13 14-13 33 0 20 13 34t34 14q19 0 33-14 13-14 13-34t-13-33q-14-13-33-13z m191 0q-20 0-33 13-14 14-14 33 0 20 14 34t33 14q20 0 34-14 13-14 13-34t-13-33q-14-13-34-13z m185 0q-20 0-34 13-13 14-13 33 0 20 13 34t34 14q19 0 33-14 13-14 13-34t-13-33q-14-13-33-13z m-495-343q-34 0-58 24-25 25-25 58v636q0 34 25 58 24 25 58 25h62v62h78v-62h334v62h78v-62h62q35 0 59-25 25-24 25-58v-636q0-33-25-58-24-24-59-24z m0 82h614v443h-614v-443z m0 505h614v131h-614z m0 0v131-131z" horiz-adv-x="1000" />

<glyph glyph-name="calendar-month" unicode="&#xf07b;" d="M193-81q-34 0-58 24-25 25-25 58v636q0 34 25 58 24 25 58 25h62v62h78v-62h334v62h78v-62h62q35 0 59-25 25-24 25-58v-636q0-33-25-58-24-24-59-24z m0 82h614v443h-614v-443z m0 505h614v131h-614z m0 0v131-131z m307-242q-19 0-32 13-13 13-13 31 0 19 13 32 13 13 32 13 19 0 32-13 13-13 13-32 0-18-13-31-13-13-32-13z m-167 0q-18 0-31 13-13 13-13 31 0 19 13 32 13 13 31 13 19 0 32-13 13-13 13-32 0-18-13-31-13-13-32-13z m334 0q-19 0-32 13-13 13-13 31 0 19 13 32 13 13 32 13 18 0 31-13 14-13 14-32 0-18-14-31-13-13-31-13z m-167-167q-19 0-32 13-13 13-13 32 0 18 13 31 13 14 32 14 19 0 32-14 13-13 13-31 0-19-13-32-13-13-32-13z m-167 0q-18 0-31 13-13 13-13 32 0 18 13 31 13 14 31 14 19 0 32-14 13-13 13-31 0-19-13-32-13-13-32-13z m334 0q-19 0-32 13-13 13-13 32 0 18 13 31 13 14 32 14 18 0 31-14 14-13 14-31 0-19-14-32-13-13-31-13z" horiz-adv-x="1000" />

<glyph glyph-name="calendar-event" unicode="&#xf07c;" d="M622 79q-43 0-72 29-29 30-29 72 0 43 29 72 29 29 72 29 43 0 72-29 29-29 29-72 0-42-29-72-29-29-72-29z m-429-160q-34 0-58 24-25 25-25 58v636q0 34 25 58 24 25 58 25h62v62h78v-62h334v62h78v-62h62q35 0 59-25 25-24 25-58v-636q0-33-25-58-24-24-59-24z m0 82h614v443h-614v-443z m0 505h614v131h-614z m0 0v131-131z" horiz-adv-x="1000" />

<glyph glyph-name="calendar-today" unicode="&#xf07d;" d="M371 170q-43 0-72 29-29 29-29 72 0 43 30 72 29 29 72 29 42 0 71-30t29-72q0-42-29-71t-72-29z m-178-251q-34 0-58 24-25 25-25 58v636q0 34 25 58 24 25 58 25h62v62h78v-62h334v62h78v-62h62q35 0 59-25 25-24 25-58v-636q0-33-25-58-24-24-59-24z m0 82h614v443h-614v-443z m0 505h614v131h-614z m0 0v131-131z" horiz-adv-x="1000" />

<glyph glyph-name="mic" unicode="&#xf07e;" d="M500 271q-52 0-87 37-35 37-35 90v258q0 50 36 86 35 35 86 35t87-35q35-36 35-86v-258q0-53-35-90-35-37-87-37z m0 252z m-37-575v144q-119 12-198 99-80 87-80 207h77q0-99 69-166 70-67 169-67t169 67q70 67 70 166h76q0-120-80-207-79-87-197-99v-144z m37 405q18 0 29 13t11 32v258q0 16-12 27-11 11-28 11t-28-11q-12-11-12-27v-258q0-19 11-32 11-13 29-13z" horiz-adv-x="1000" />

<glyph glyph-name="directions" unicode="&#xf07f;" d="M341 220h74v134h161v-96l134 134-134 135v-98h-198q-15 0-26-11-11-11-11-26z m159-302q-16 0-32 5-16 5-27 17l-351 351q-12 11-17 27-5 16-5 32 0 17 5 32t17 27l351 351q11 12 27 18 16 5 32 5 17 0 32-5t27-18l351-351q12-11 18-27 5-15 5-32 0-16-5-32-6-16-18-27l-351-351q-11-12-27-17t-32-5z m-175 257l175-176 351 351-351 351-351-351z m175 175z" horiz-adv-x="1000" />

<glyph glyph-name="circle-arrow" unicode="&#xf080;" d="M458 180h84v183l73-74 58 58-173 173-173-173 58-58 73 74z m42-261q-88 0-167 34-79 33-138 92-58 59-92 137t-34 168q0 90 34 168 34 79 92 137 58 59 137 93 78 34 168 34 90 0 169-34t137-92q58-58 92-137t34-169q0-90-34-168-34-79-93-137-58-59-136-92t-169-34z m0 82q146 0 247 102t102 247q0 146-102 247t-247 102q-145 0-247-102-102-101-102-247 0-145 102-247 102-102 247-102z m0 349z" horiz-adv-x="1000" />

<glyph glyph-name="circle-arrow-big" unicode="&#xf081;" d="M540 113l-1 334 89-90 56 56-184 185-184-185 56-56 88 89 0-332z m265-68q-63-63-142-94-80-32-163-32-83 0-162 31t-143 95q-63 63-95 143-32 80-32 162 0 83 32 162 31 80 94 144 64 63 144 95t162 31q82 0 162-31t144-95q63-64 94-144 32-79 32-162 0-82-32-162t-95-143z m-58 58q103 103 103 247t-103 247q-103 103-247 103t-247-103q-102-103-102-247-1-144 102-247 103-102 247-102 144 0 247 102z m-247 247z" horiz-adv-x="1000" />

<glyph glyph-name="romb-arrow" unicode="&#xf082;" d="M932 350q0-16-5-32-5-16-17-27l-351-351q-11-12-27-17-16-5-32-5-17 0-32 5t-27 17l-351 351q-12 11-18 27-5 16-5 32 0 17 5 32t18 27l351 351q11 12 27 18 15 5 32 5 16 0 32-5 16-6 27-18l351-351q12-11 17-27t5-32z m-257-175l176 175-351 351-351-351 351-351z m30 175l-205 205-205-205 45-45 129 129 0-289 62 0 0 289 129-129z m-205 0z" horiz-adv-x="1000" />

<glyph glyph-name="circle-renew" unicode="&#xf083;" d="M502 53l124 123-123 123-50-49 42-41q-27 1-52 11-24 10-44 29-20 21-31 47-11 27-11 53 0 17 5 35 5 19 14 36l-51 50q-19-28-28-58-8-31-8-62 0-41 15-80 16-39 47-69 29-30 65-45 36-15 75-16l-38-38z m173 177q19 28 28 59 9 30 9 61 0 41-16 80-15 39-46 70-29 29-66 44-36 15-74 16l37 38-49 49-124-123 123-123 50 49-42 42q25-2 51-12 25-10 45-29 20-21 31-47 11-27 11-53 0-17-5-35-5-19-14-36z m-175-311q-88 0-167 34-79 33-138 92-58 59-92 138-34 79-34 167 0 90 34 168 34 79 92 137 59 59 138 93 79 34 167 34 90 0 168-34 79-34 137-93 59-58 93-137 34-78 34-168 0-88-34-167-34-79-93-138-58-59-137-92-78-34-168-34z m0 82q146 0 247 102t102 247q0 146-102 247t-247 102q-145 0-247-102-102-101-102-247 0-145 102-247 102-102 247-102z m0 349z" horiz-adv-x="1000" />

<glyph glyph-name="circle-prev" unicode="&#xf084;" d="M750 273h-62q-6 67-54 111-49 45-116 45-44 0-90-25-46-25-75-69h92v-62h-195v195h63v-90q38 56 94 85 57 29 111 29 95 0 161-64t71-155z m-250-354q89 0 167 34 79 33 138 92 59 59 92 137t34 168q0 90-34 168-33 79-92 137-58 59-137 93-78 34-168 34-90 0-169-34t-137-92q-57-58-92-137t-34-169q0-90 34-168 35-79 93-137 58-59 136-92t169-34z m0 82q-146 0-247 102t-102 247q0 146 102 247t247 102q145 0 247-102 102-101 102-247 0-145-102-247-102-102-247-102z m0 349z" horiz-adv-x="1000" />

<glyph glyph-name="circle-next" unicode="&#xf085;" d="M250 273h63q5 67 53 111 49 45 116 45 44 0 90-25 46-25 75-69h-92v-62h195v195h-62v-90q-39 56-95 85-56 29-111 29-94 0-161-64t-71-155z m250-354q-88 0-167 34-79 33-138 92-58 59-92 137t-34 168q0 90 34 168 34 79 92 137 58 59 137 93 78 34 168 34 90 0 169-34t137-92q58-58 92-137t34-169q0-90-34-168-34-79-93-137-58-59-136-92t-169-34z m0 82q146 0 247 102t102 247q0 146-102 247t-247 102q-145 0-247-102-102-101-102-247 0-145 102-247 102-102 247-102z m0 349z" horiz-adv-x="1000" />

<glyph glyph-name="arrow-fat" unicode="&#xf086;" d="M324-33v323h-218l394 491 394-491h-219v-323z m83 82h186v323h126l-219 278-219-278h126z m93 323z" horiz-adv-x="1000" />

<glyph glyph-name="arrow-fat-line" unicode="&#xf087;" d="M324 71v219h-218l394 491 394-491h-219v-219z m83 82h186v219h126l-219 278-219-278h126z m93 256z m-369-501v83h739v-83z" horiz-adv-x="1000" />

<glyph glyph-name="circle-swap" unicode="&#xf088;" d="M589 73l162 162-45 44-86-86v199h-63v-199l-84 85-45-45z m-205 235h63v199l85-84 44 44-160 160-163-162 45-44 86 86z m116-389q-88 0-167 34-79 33-138 92-58 59-92 137t-34 168q0 90 34 168 34 79 92 137 58 59 137 93 78 34 168 34 90 0 169-34t137-92q58-58 92-137t34-169q0-90-34-168-34-79-93-137-58-59-136-92t-169-34z m0 82q146 0 247 102t102 247q0 146-102 247t-247 102q-145 0-247-102-102-101-102-247 0-145 102-247 102-102 247-102z m0 349z" horiz-adv-x="1000" />

<glyph glyph-name="circle-download" unicode="&#xf089;" d="M292 144h416v62h-416z m205 129l165 164-44 43-89-87v207h-62v-207l-89 87-44-43z m3-354q-88 0-167 34-79 33-138 92-58 59-92 137t-34 168q0 90 34 168 34 79 92 137 58 59 137 93 78 34 168 34 90 0 169-34t137-92q58-58 92-137t34-169q0-90-34-168-34-79-93-137-58-59-136-92t-169-34z m0 82q146 0 247 102t102 247q0 146-102 247t-247 102q-145 0-247-102-102-101-102-247 0-145 102-247 102-102 247-102z m0 349z" horiz-adv-x="1000" />

<glyph glyph-name="circle-chevron" unicode="&#xf08a;" d="M500 496l-193-192 58-55 135 135 135-135 58 55z m0 285q89 0 167-34 79-33 138-92 59-59 92-137t34-168q0-90-34-168-33-79-92-137-58-59-137-93-78-34-168-34-90 0-169 34t-137 92q-57 58-92 137t-34 169q0 90 34 168 35 79 93 137 58 59 136 92t169 34z m0-82q-146 0-247-102t-102-247q0-146 102-247t247-102q145 0 247 102 102 101 102 247 0 145-102 247-102 102-247 102z m0-349z" horiz-adv-x="1000" />

<glyph glyph-name="circle-drop" unicode="&#xf08b;" d="M500 478l-169-169h339z m0 303q89 0 167-34 79-33 138-92 59-59 92-137t34-168q0-90-34-168-33-79-92-137-58-59-137-93-78-34-168-34-90 0-169 34t-137 92q-57 58-92 137t-34 169q0 90 34 168 35 79 93 137 58 59 136 92t169 34z m0-82q-146 0-247-102t-102-247q0-146 102-247t247-102q145 0 247 102 102 101 102 247 0 145-102 247-102 102-247 102z m0-349z" horiz-adv-x="1000" />

<glyph glyph-name="navigation" unicode="&#xf08c;" d="M195-52l-46 46 351 800 351-800-46-46-305 140z m85 130l220 98 220-98-220 512z m220 98z" horiz-adv-x="1000" />

<glyph glyph-name="circle-navigation" unicode="&#xf08d;" d="M332 142l168 76 168-76 14 15-182 442-182-442z m168-223q-88 0-167 34-79 33-138 92-58 59-92 137t-34 168q0 90 34 168 34 79 92 137 58 59 137 93 78 34 168 34 90 0 169-34t137-92q58-58 92-137t34-169q0-90-34-168-34-79-93-137-58-59-136-92t-169-34z m0 82q146 0 247 102t102 247q0 146-102 247t-247 102q-145 0-247-102-102-101-102-247 0-145 102-247 102-102 247-102z m0 349z" horiz-adv-x="1000" />

<glyph glyph-name="triangle" unicode="&#xf08e;" d="M816 169l-638 0 319 501z m-319 82z m168 0l-168 265-168-265z" horiz-adv-x="1000" />

<glyph glyph-name="circle-triangle" unicode="&#xf08f;" d="M683 246l-183 287-183-287z m248 104q0-88-34-167-33-79-92-138-59-59-137-92t-168-34q-90 0-168 34-79 33-137 92-58 58-93 137-34 78-34 168 0 90 34 169t92 137q58 58 137 92t169 34q90 0 168-34 79-34 137-93 59-58 92-136t34-169z m-82 0q0 146-102 247t-247 102q-146 0-247-102t-102-247q0-145 102-247 101-102 247-102 145 0 247 102 102 102 102 247z m-349 0z" horiz-adv-x="1000" />

<glyph glyph-name="line-arrow" unicode="&#xf090;" d="M193 300l307 483 307-483-265 0 0-377-84 0 0 377z m150 82l314 0-157 246z m157 0z" horiz-adv-x="1000" />

<glyph glyph-name="line-notch" unicode="&#xf091;" d="M193 300l307 483 307-483-265 149 0-516-84 0 0 516z" horiz-adv-x="1000" />

<glyph glyph-name="line-diamond" unicode="&#xf092;" d="M314 475l186-186 187 186-187 187z m-118 0l304 304 304-304-262-262 0-290-84 0 0 290z m304 0z" horiz-adv-x="1000" />

<glyph glyph-name="line-circle" unicode="&#xf093;" d="M324 517q0-73 52-125 51-51 124-51 73 0 125 51 51 52 51 125 0 73-51 124-52 52-125 52-73 0-124-52-52-51-52-124z m-82 0q0 108 75 183 75 75 183 75 108 0 183-75 75-75 75-183 0-97-62-169-62-71-154-85l0-340-84 0 0 340q-92 14-154 85-62 72-62 169z m258 0z" horiz-adv-x="1000" />

<glyph glyph-name="line-square" unicode="&#xf094;" d="M347 691l0-308 307 0 0 308z m-83-390l0 473 473 0 0-473-195 0 0-378-84 0 0 378z m236 237z" horiz-adv-x="1000" />

<glyph glyph-name="arrow-swipe" unicode="&#xf095;" d="M500 6q-90 0-154 65-65 64-65 154 0 88 53 143 53 55 124 73v182l-88-90-58 60 188 188 189-188-59-59-88 89v-182q72-18 124-73 53-55 53-143 0-90-64-154-63-65-155-65z m0 84q57 0 96 40t39 95q0 57-39 96t-96 39q-55 0-95-39-40-39-40-96 0-55 40-95 40-40 95-40z m0 135z" horiz-adv-x="1000" />

<glyph glyph-name="box-capslock" unicode="&#xf096;" d="M299 145h403v73h-403z m51 163l150 149 150-149 52 51-202 203-201-203z m-157-348q-34 0-58 25-25 24-25 58v614q0 35 25 59 24 25 58 25h614q35 0 59-25 25-24 25-59v-614q0-34-25-58-24-25-59-25z m0 83h614v614h-614v-614z m0 614v-614 614z" horiz-adv-x="1000" />

<glyph glyph-name="arrow-azimuth" unicode="&#xf097;" d="M775-54l-275 274-275-274 1 613 274 274 274-274z m-78 440l-1 141-196 196-196-196-1-141 197 197z m0-252l0 142-197 196-197-196 0-142 197 197z" horiz-adv-x="1000" />

<glyph glyph-name="hub" unicode="&#xf098;" d="M241-128q-56 0-94 38t-39 94q0 54 39 93t94 38q13 0 26-2 13-2 24-7l80 102q-18 24-28 54-11 31-6 62l-116 41q-17-26-45-41-28-15-63-15-56 0-94 39t-39 92q0 56 39 95 38 39 94 39 54 0 92-39t39-95v-2l116-43q19 32 45 49t58 26v125q-41 11-68 48-27 36-27 79 0 54 38 93 39 39 94 39t94-39q38-39 38-93 0-43-27-79t-67-48v-125q31-9 57-26t47-49l114 43v2q0 56 39 95 38 39 93 39 55 0 94-39 39-39 39-95 0-54-39-92t-94-39q-36 0-65 15-28 15-44 43l-115-43q3-32-7-62-9-30-28-54l81-103q11 5 23 8 13 2 26 2 56 0 94-38t39-93q0-55-39-94t-94-38q-54 0-93 38-39 39-39 94 0 23 6 41t17 34l-80 102q-33-15-70-15t-71 15l-79-103q10-15 17-33 6-18 6-41 0-55-39-94t-93-38z m-128 532q22 0 39 17 17 17 17 41 0 22-17 39-17 16-40 16-23 0-40-16-16-17-16-41 0-22 16-39 17-17 41-17z m128-456q24 0 40 16 16 16 16 40 0 23-16 40-16 16-40 16t-40-16q-17-17-17-40 0-24 17-40 16-16 40-16z m259 737q24 0 40 17 16 16 16 40t-16 40q-16 16-40 16t-40-16q-16-16-16-40t16-40q16-17 40-17z m0-437q34 0 58 24t23 57q0 35-23 58t-58 23q-33 0-57-23t-24-58q0-33 24-57t57-24z m259-300q24 0 41 16 16 16 16 40 0 23-16 40-17 16-41 16t-40-16q-16-17-16-40 0-24 16-40 16-16 40-16z m130 456q23 0 39 17 16 17 16 41 0 22-16 39-16 16-40 16-23 0-40-16-17-17-17-41 0-22 17-39 17-17 41-17z m-389 338z m-387-282z m387-131z m388 131z m-647-456z m518 0z" horiz-adv-x="1000" />

<glyph glyph-name="account-tree" unicode="&#xf099;" d="M626-42v131h-168v440h-83v-135h-316v348h316v-130h251v130h315v-348h-315v135h-84v-358h84v135h315v-348z m-483 701v-183z m565-435v-183z m0 435v-183z m0-183h149v183h-149z m0-435h149v183h-149z m-565 435h150v183h-150z" horiz-adv-x="1000" />

<glyph glyph-name="lan" unicode="&#xf09a;" d="M112-80v298h128v170h223v94h-130v298h334v-298h-129v-94h222v-170h129v-298h-330v298h125v95h-368v-95h125v-298z m297 638h182v146h-182z m-221-562h177v146h-177z m447 0h178v146h-178z m-135 562z m-135-416z m270 0z" horiz-adv-x="1000" />

<glyph glyph-name="family-history" unicode="&#xf09b;" d="M500-100q-70 0-118 48-49 49-49 119 0 58 36 102 36 44 89 58v81h-254v160h-114v311h312v-311h-114v-76h425v82q-54 14-90 57-35 44-35 103 0 69 49 118t118 48q69 0 117-48t49-118q0-59-36-103t-89-57v-166h-254v-81q53-14 89-58 36-44 36-102 0-70-49-119-48-48-118-48z m254 650q36 0 60 25 24 24 24 58 0 36-24 60t-59 25q-35 0-60-25t-24-59q0-35 24-59t59-25z m-581 0h146v147h-146z m327-568q34 0 59 25 24 24 24 59 0 35-24 60t-59 24q-34 0-59-24-24-25-24-59 0-36 24-60t59-25z m-254 642z m509 10z m-255-567z" horiz-adv-x="1000" />

<glyph glyph-name="schema" unicode="&#xf09c;" d="M150-135v256h104v101h-104v256h104v101h-104v256h294v-256h-104v-101h104v-86h154v86h294v-256h-294v86h-154v-86h-104v-101h104v-256z m82 83h130v91h-130z m0 356h130v92h-130z m448 0h129v92h-129z m-448 359h130v89h-130z m65 44z m0-357z m448 0z m-448-357z" horiz-adv-x="1000" />

<glyph glyph-name="tenancy" unicode="&#xf09d;" d="M155-31q-55 0-93 38-38 38-38 93 0 55 38 93 38 38 93 38 11 0 21-1t19-5l170 231q-18 22-28 48-10 25-10 54 0 72 51 123t122 50q72 0 122-50t51-123q0-29-9-54t-27-48l168-232q10 4 19 6 9 1 21 1 55 0 93-38 38-38 38-93 0-55-38-93-38-38-93-38-55 0-93 38-38 38-38 93 0 22 6 41 6 18 19 34l-165 226q-7-4-16-6-8-2-16-3v-168q38-12 64-46t25-78q0-55-38-93-38-38-93-38-55 0-93 38-38 38-38 93 0 44 25 78t64 46v168q-8 1-16 3-9 2-16 6l-164-225q11-17 18-35 8-19 8-41 0-55-39-93-39-38-94-38z m3 75q23 0 39 16 17 17 17 40 0 23-17 40-16 16-39 16-24 0-40-16-16-17-16-40 0-23 16-40 16-16 40-16z m342 514z m0-514q23 0 40 16 16 17 16 40 0 23-16 40-17 16-40 16-23 0-40-16-16-17-16-40 0-23 16-40 17-16 40-16z m344 0q24 0 40 16t17 40q0 23-17 40-16 16-40 16-23 0-39-16-16-17-16-40 0-23 16-40 16-16 39-16z m-686 56z m342 0z m345 0z m-345 362q41 0 69 28 28 28 28 68 0 41-28 69-28 28-69 28-41 0-69-28-28-28-28-69 0-40 28-68 28-28 69-28z" horiz-adv-x="1000" />

<glyph glyph-name="conversion-path" unicode="&#xf09e;" d="M798-39q-49 0-84 30-35 29-43 68h-209q-71 0-117 46-46 46-46 117 0 71 46 117 46 45 117 45h80q40 0 67 27 26 27 26 67 0 41-26 67-27 27-67 27h-212q-10-40-45-69t-83-29q-55 0-94 39t-38 93q0 56 38 94t94 39q49 0 83-30t45-68h212q71 0 116-46 46-46 46-117 0-71-46-116-45-46-116-46h-80q-41 0-68-27-26-26-26-67 0-41 26-67 27-27 68-27h209q9 40 44 69 34 29 83 29 55 0 94-38t38-94q0-55-38-94t-94-39z m-596 589q24 0 40 16 16 16 16 40t-16 40q-16 17-40 17t-40-17q-16-16-16-40t16-40q16-16 40-16z" horiz-adv-x="1000" />

<glyph glyph-name="mediation" unicode="&#xf09f;" d="M196-115q-53 0-89 35-35 35-35 88t35 88q36 35 89 35 31 0 57-12t42-39q64 36 107 98 42 62 54 135h-146q-12-40-44-63-33-23-70-23-53 0-89 35-35 35-35 88t35 88q36 35 89 35 37 0 70-22t44-63h146q-11 72-53 134-43 62-108 98-17-27-42-39-26-12-57-12-53 0-89 35-35 35-35 88t35 88q36 35 89 35 52 0 87-35 36-35 36-87 89-45 146-127 56-83 69-178h247l-88 88 54 55 181-181-181-181-54 55 88 89h-247q-13-99-71-179-58-80-144-127 0-52-36-87-35-35-87-35z" horiz-adv-x="1000" />

<glyph glyph-name="quote" unicode="&#xf0a0;" d="M618 381h153v153h-153z m-389 0h153v153h-153z m417-256l83 173h-194v319h319v-319l-83-173z m-389 0l84 173h-194v319h318v-319l-83-173z m49 332z m388 0z" horiz-adv-x="1000" />

<glyph glyph-name="polyline" unicode="&#xf0a1;" d="M640-80v108l-312 155h-223v257h209l117 131v217h257v-257h-191l-137-153v-127l280-137v62h256v-256z m-134 686h104v104h-104z m-325-347h104v105h-104z m534-263h104v104h-104z m-157 662z m-325-346z m534-264z" horiz-adv-x="1000" />

<glyph glyph-name="area-entities" unicode="&#xf0a2;" d="M28-122v242h82v460h-82v242h242v-82h460v82h242v-242h-82v-460h82v-242h-242v82h-460v-82z m242 165h460v77h77v460h-77v77h-460v-77h-77v-460h77z m53 132l148 403h57l150-403h-65l-38 107h-147l-37-107z m120 160h115l-55 160h-7z m-345 314h103v103h-103z m701 0h103v103h-103z m0-701h103v103h-103z m-701 0h103v103h-103z m701 701z m0-598z m-598 0z m0 598z" horiz-adv-x="1000" />

<glyph glyph-name="area-text" unicode="&#xf0a3;" d="M469 183v271h-125v63h312v-63h-125v-271z m-441-305v242h82v460h-82v242h242v-82h460v82h242v-242h-82v-460h82v-242h-242v82h-460v-82z m242 165h460v77h77v460h-77v77h-460v-77h-77v-460h77z m-172 606h103v103h-103z m701 0h103v103h-103z m0-701h103v103h-103z m-701 0h103v103h-103z m701 701z m0-598z m-598 0z m0 598z" horiz-adv-x="1000" />

<glyph glyph-name="view-grid" unicode="&#xf0a4;" d="M110 381v360h359v-360z m0-421v359h359v-359z m421 421v360h360v-360z m0-421v359h360v-359z m-338 505h194v192h-194z m422 0h192v192h-192z m0-422h192v194h-192z m-422 0h194v194h-194z m422 422z m0-228z m-228 0z m0 228z" horiz-adv-x="1000" />

<glyph glyph-name="view-cozy" unicode="&#xf0a5;" d="M118 405v327h327v-327z m78 78h171v171h-171z m-78-515v327h327v-327z m78 78h171v171h-171z m359 359v327h327v-327z m78 78h171v171h-171z m-78-515v327h327v-327z m78 78h171v171h-171z m-266 437z m0-266z m266 266z m0-266z" horiz-adv-x="1000" />

<glyph glyph-name="view-rows" unicode="&#xf0a6;" d="M807 43v163h-614v-163h614z m0 226v162h-614v-162h614z m0 225v163h-614v-163h614z m-614-534q-34 0-58 25-25 24-25 58v614q0 35 25 59 24 25 58 25h614q35 0 59-25 25-24 25-59v-614q0-34-25-58-24-25-59-25z" horiz-adv-x="1000" />

<glyph glyph-name="view-column" unicode="&#xf0a7;" d="M105 44v613h791v-613z m83 82h153v448h-153z m235 0h154v448h-154z m236 0h154v448h-154z" horiz-adv-x="1000" />

<glyph glyph-name="view-list" unicode="&#xf0a8;" d="M379 84h470v132h-470z m-228 400h154v132h-154z m0-194h154v119h-154z m0-206h154v132h-154v-132z m228 206h470v119h-470z m0 194h470v132h-470z m-228-482q-33 0-58 25-24 24-24 57v532q0 34 24 59 25 24 58 24h698q34 0 59-24 24-25 24-59v-532q0-33-24-57-25-25-59-25z" horiz-adv-x="1000" />

<glyph glyph-name="border-color" unicode="&#xf0a9;" d="M83-150v140h834v-140z m80 250v148l392 394 148-148-393-394z m71 73h45l328 326-44 46-329-327z m509 360l-147 148 89 92q14 16 32 16 17 1 34-16l81-81q15-16 15-34 0-17-13-33z m-509-360z" horiz-adv-x="1000" />

<glyph glyph-name="shape-line" unicode="&#xf0aa;" d="M250 383q-91 0-154 63-63 63-63 154t63 154q63 63 154 63t154-63q63-62 63-154 0-91-63-154-62-63-154-63z m0 83q56 0 95 39t39 95q0 56-39 95t-95 39q-56 0-95-39t-39-95q0-56 39-95t95-39z m407-583q-34 0-58 24t-24 59v227q0 34 24 58t58 24h227q35 0 59-24t24-58v-227q0-35-24-59t-59-24z m0 83h227v227h-227v-227z m114 113z m-521 521z m497-61l-435-435q7-12 10-26 3-13 3-28 0-51-36-88-37-37-89-37-51 0-88 37-37 37-37 88 0 52 37 89t88 36q15 0 28-3 14-3 26-10l435 435q-8 12-11 26-3 14-3 27 0 52 37 89t88 36q52 0 89-36t36-89q0-51-36-88-37-37-89-37-13 0-27 3t-26 11z" horiz-adv-x="1000" />

<glyph glyph-name="shapes-tool" unicode="&#xf0ab;" d="M625 225z m-300-109q13-2 25-3 13 0 25 0 8 0 16 0t16 2v-108h436v436h-108q2 8 2 16 1 8 1 16 0 14-1 26 0 12-3 24h109q34 0 58-24t24-58v-436q0-34-24-58t-58-24h-436q-34 0-58 24t-24 58z m50 59q-126 0-213 87t-87 213q0 126 87 213t213 87q126 0 213-87t87-213q0-126-87-213t-213-87z m0 82q90 0 154 64t64 154q0 90-64 154t-154 64q-90 0-154-64t-64-154q0-90 64-154t154-64z m0 218z" horiz-adv-x="1000" />

<glyph glyph-name="copy" unicode="&#xf0ac;" d="M182-91q-33 0-57 25-25 24-25 58v623h82v-623h489v-83z m146 145q-34 0-59 25-24 24-24 59v572q0 34 24 58 25 25 59 25h448q33 0 58-25 24-24 24-58v-572q0-35-24-59-25-25-58-25z m0 84h448v572h-448v-572z m0 0v572-572z" horiz-adv-x="1000" />

<glyph glyph-name="preview" unicode="&#xf0ad;" d="M194-39q-34 0-58 25-24 24-24 58v612q0 34 24 58 24 25 58 25h612q34 0 58-25 25-24 25-58v-612q0-34-25-58-24-25-58-25z m-6 77h625v541h-625v-541z m312 109q-83 0-149 45-66 45-96 116 30 72 96 117 66 45 149 45t149-45q66-45 96-117-30-71-96-116-66-45-149-45z m0 52q59 0 109 29t79 80q-29 51-79 81t-109 29q-59 0-109-29t-78-81q28-51 78-80t109-29z m0 109z m0-52q22 0 37 15 15 16 15 37 0 22-15 37-15 15-37 15-22 0-37-15-15-15-15-37 0-21 15-37 15-15 37-15z" horiz-adv-x="1000" />

<glyph glyph-name="image" unicode="&#xf0ae;" d="M193-40q-34 0-58 25-25 24-25 58v614q0 35 25 59 24 25 58 25h614q35 0 59-25 25-24 25-59v-614q0-34-25-58-24-25-59-25z m0 83h614v614h-614v-614z m46 90h524l-161 218-137-178-97 132z m-46-90v614-614z" horiz-adv-x="1000" />

<glyph glyph-name="qr-code" unicode="&#xf0af;" d="M105 381v365h364v-365z m83 84h199v198h-199z m-83-510v364h364v-364z m83 83h199v199h-199z m343 343v365h365v-365z m84 84h198v198h-198z m190-510v91h91v-91z m-274 272v92h91v-92z m91-90v90h92v-90z m-91-91v91h91v-91z m91-91v91h92v-91z m92 91v91h91v-91z m0 181v92h91v-92z m91-90v90h91v-90z" horiz-adv-x="1000" />

<glyph glyph-name="play" unicode="&#xf0b0;" d="M319 34v638l501-319z m82 319z m0-168l265 168-265 168z" horiz-adv-x="1000" />

<glyph glyph-name="circle-play" unicode="&#xf0b1;" d="M396 167l287 183-287 183z m104-248q-88 0-167 34-79 33-138 92-58 59-92 137t-34 168q0 90 34 168 34 79 92 137 58 59 137 93 78 34 168 34 90 0 169-34t137-92q58-58 92-137t34-169q0-90-34-168-34-79-93-137-58-59-136-92t-169-34z m0 82q146 0 247 102t102 247q0 146-102 247t-247 102q-145 0-247-102-102-101-102-247 0-145 102-247 102-102 247-102z m0 349z" horiz-adv-x="1000" />

<glyph glyph-name="play-box" unicode="&#xf0b2;" d="M400 168l281 182-281 182z m-207-208q-34 0-58 25-25 24-25 58v614q0 35 25 59 24 25 58 25h614q35 0 59-25 25-24 25-59v-614q0-34-25-58-24-25-59-25z m0 83h614v614h-614v-614z m0 614v-614 614z" horiz-adv-x="1000" />

<glyph glyph-name="circle-pause" unicode="&#xf0b3;" d="M379 180h69v340h-69z m173 0h69v340h-69z m-52-261q-88 0-167 34-79 33-138 92-58 59-92 137t-34 168q0 90 34 168 34 79 92 137 58 59 137 93 78 34 168 34 90 0 169-34t137-92q58-58 92-137t34-169q0-90-34-168-34-79-93-137-58-59-136-92t-169-34z m0 82q146 0 247 102t102 247q0 146-102 247t-247 102q-145 0-247-102-102-101-102-247 0-145 102-247 102-102 247-102z m0 349z" horiz-adv-x="1000" />

<glyph glyph-name="stop" unicode="&#xf0b4;" d="M318 532v-364z m-83-447v531h531v-531z m83 83h364v364h-364z" horiz-adv-x="1000" />

<glyph glyph-name="circle-stop" unicode="&#xf0b5;" d="M341 191h318v318h-318z m159-272q-90 0-168 34-78 33-137 92t-92 137q-34 78-34 168 0 91 34 169t92 136q58 59 137 93 78 34 168 34 91 0 169-34 79-34 137-92t92-137q34-78 34-169 0-90-34-168-34-79-93-137-58-59-136-92t-169-34z m1 82q145 0 246 102 102 102 102 248 0 145-102 246-101 102-247 102-145 0-247-102-102-101-102-247 0-145 102-247 102-102 248-102z m-1 349z" horiz-adv-x="1000" />

<glyph glyph-name="record" unicode="&#xf0b6;" d="M498 348z m2-304q-128 0-217 89t-89 217q0 128 89 218 89 89 217 89t218-89q89-90 89-218 0-128-89-217t-218-89z m0 82q94 0 159 65t65 159q0 94-65 159t-159 65q-94 0-159-65t-65-159q0-94 65-159t159-65z" horiz-adv-x="1000" />

<glyph glyph-name="fast" unicode="&#xf0b7;" d="M222-77l278 403 278-403z m0 451l278 403 278-403z m278 83z m0-451z m-120 451l240 0-120 174z m0-451l240 0-120 173z" horiz-adv-x="1000" />

<glyph glyph-name="skip" unicode="&#xf0b8;" d="M778 566l-556 0 0 83 556 0z m0-515l-556 0 278 403z m-278 83z m120 0l-120 174-120-174z" horiz-adv-x="1000" />

<glyph glyph-name="circle-resume" unicode="&#xf0b9;" d="M341 191h68v318h-68z m166 6l231 153-231 153z m-7-278q-88 0-167 34-79 33-138 92-58 59-92 137t-34 168q0 90 34 168 34 79 92 137 58 59 137 93 78 34 168 34 90 0 169-34t137-92q58-58 92-137t34-169q0-90-34-168-34-79-93-137-58-59-136-92t-169-34z m0 82q146 0 247 102t102 247q0 146-102 247t-247 102q-145 0-247-102-102-101-102-247 0-145 102-247 102-102 247-102z m0 349z" horiz-adv-x="1000" />

<glyph glyph-name="resume" unicode="&#xf0ba;" d="M778 72l-556 0 0 83 556 0z m0 202l-278 456-278-456z m-162 82l-232 0 116 189z m-116 0z" horiz-adv-x="1000" />

<glyph glyph-name="eject" unicode="&#xf0bb;" d="M189 39v82h624v-82z m1 178l310 466 310-466z m311 83z m-158 0h314l-157 232z" horiz-adv-x="1000" />

<glyph glyph-name="standby" unicode="&#xf0bc;" d="M500 231q50 0 85 35 35 34 35 84t-36 85q-35 35-84 35-50 0-84-36t-35-84q0-50 35-84t84-35z m0-312q-90 0-168 34-78 33-137 92t-92 137q-34 78-34 168 0 91 34 169t92 136q58 59 137 93 78 34 168 34 91 0 169-34 79-34 137-92t92-137q34-78 34-169 0-90-34-168-34-79-93-137-58-59-136-92t-169-34z m1 82q145 0 246 102 102 102 102 248 0 145-102 246-101 102-247 102-145 0-247-102-102-101-102-247 0-145 102-247 102-102 248-102z m-1 349z" horiz-adv-x="1000" />

<glyph glyph-name="mute" unicode="&#xf0bd;" d="M277 210v281h175l230 228v-738l-230 229z m82 83h130l110-106v326l-110-106h-130z m119 57z" horiz-adv-x="1000" />

<glyph glyph-name="volume-down" unicode="&#xf0be;" d="M190 210v281h176l229 228v-738l-229 229z m467-40v361q60-18 96-69 37-50 37-112 0-62-37-111-36-49-96-69z m-144 343l-111-106h-129v-114h129l111-106z m-122-163z" horiz-adv-x="1000" />

<glyph glyph-name="volume-up" unicode="&#xf0bf;" d="M595-21v72q101 30 165 113t64 187q0 105-64 188-63 83-165 112v72q132-29 215-133t84-239q0-134-84-238-83-105-215-134z m-489 231v281h176l230 228v-738l-230 229z m468-40v361q59-19 96-69 36-49 36-112 0-61-37-111-37-50-95-69z m-145 343l-110-106h-129v-114h129l110-106z m-92-163z" horiz-adv-x="1000" />

<glyph glyph-name="brightness-empty" unicode="&#xf0c0;" d="M501-126l-143 138h-196v196l-141 142 141 142v197h196l143 141 141-141h197v-197l141-142-141-142v-196h-197z m1 478z m-1-362l106 104h149v149l108 107-108 107v149h-149l-106 108-108-108h-149v-149l-106-107 107-107v-148h147z" horiz-adv-x="1000" />

<glyph glyph-name="brightness-low" unicode="&#xf0c1;" d="M501-126l-143 138h-196v196l-141 142 141 142v197h196l143 141 141-141h197v-197l141-142-141-142v-196h-197z m0 221q106 0 181 74 74 75 74 182 0 106-74 181-75 74-181 74-107 0-182-74-74-75-74-181 0-106 75-181 75-75 181-75z m-1 69q-77 0-132 54t-54 133q0 77 54 131 55 55 133 55 77 0 131-55 55-54 55-132 0-77-55-132t-132-54z m1-174l106 104h149v149l108 107-108 107v149h-149l-106 108-108-108h-149v-149l-106-107 107-107v-148h147z m0 362z" horiz-adv-x="1000" />

<glyph glyph-name="brightness-medium" unicode="&#xf0c2;" d="M501-126l-143 138h-196v196l-141 142 141 142v197h196l143 141 141-141h197v-197l141-142-141-142v-196h-197z m0 221q106 0 181 74 74 75 74 182 0 106-74 181-75 74-181 74z m0-105l106 104h149v149l108 107-108 107v149h-149l-106 108-108-108h-149v-149l-106-107 107-107v-148h147z m0 362z" horiz-adv-x="1000" />

<glyph glyph-name="brightness-high" unicode="&#xf0c3;" d="M501-126l-143 138h-196v196l-141 142 141 142v197h196l143 141 141-141h197v-197l141-142-141-142v-196h-197z m0 221q106 0 181 74 74 75 74 182 0 106-74 181-75 74-181 74-107 0-182-74-74-75-74-181 0-106 75-181 75-75 181-75z m-1 69q-77 0-132 54t-54 133q0 77 54 131 55 55 133 55 77 0 131-55 55-54 55-132 0-77-55-132t-132-54z m1-174l106 104h149v149l108 107-108 107v149h-149l-106 108-108-108h-149v-149l-106-107 107-107v-148h147z m0 362z m0-111q-47 0-79 32t-31 78q0 46 32 78t78 31q46 0 78-31t31-78q0-47-31-79t-78-31z" horiz-adv-x="1000" />

<glyph glyph-name="mail" unicode="&#xf0c4;" d="M151 2q-33 0-58 25-24 24-24 57v532q0 34 24 59 25 24 58 24h698q34 0 59-24 24-25 24-59v-532q0-33-24-57-25-25-59-25z m349 311l-349 232v-461h698v461z m0 76l345 227h-689z m-349 156v71-532z" horiz-adv-x="1000" />

<glyph glyph-name="mail-attached" unicode="&#xf0c5;" d="M459 397l-349 226v-455h509v-83h-505q-35 0-60 25t-26 58v531q0 33 25 58 24 25 57 25h698q34 0 59-25 25-25 25-58v-250h-84v174z m0 80l349 222h-698z m369-564q-62 0-105 45-42 45-42 108v233q0 38 26 64 26 27 65 27 37 0 63-27 25-26 25-64v-240h-68v243q0 12-5 20-5 9-15 9t-16-9q-6-8-6-20v-238q0-37 22-63t56-27q34 0 54 25 20 26 20 60v209h70v-209q0-60-42-103-41-43-102-43z m-718 710v76-531 253z" horiz-adv-x="1000" />

<glyph glyph-name="mail-opened" unicode="&#xf0c6;" d="M500 822l390-233q25-14 33-35 9-21 9-42v-473q0-34-24-58-25-25-59-25h-698q-33 0-58 25-24 24-24 58v473q0 21 9 42 9 21 32 35z m0-498l341 200-341 205-341-205z m0-77l-349 205v-413h698v413z m0-208h349-698z" horiz-adv-x="1000" />

<glyph glyph-name="mails" unicode="&#xf0c7;" d="M141 143q-33 5-58 27t-25 55v339q0 20 9 37t31 28l328 165 315-164q18-11 31-32t15-41h-85l-275 144-286-144z m114-196q-34 0-59 25-24 25-24 58v413q0 33 24 58 25 25 59 25h604q33 0 58-25t25-58v-413q0-33-25-58-25-25-58-25z m302 280l-302 151v-353h604v353z m0 74l296 148h-591z m302 144v4h-604v-4 4h604z" horiz-adv-x="1000" />

<glyph glyph-name="mail-box" unicode="&#xf0c8;" d="M193-40q-34 0-58 25-25 24-25 58v614q0 35 25 59 24 25 58 25h614q35 0 59-25 25-24 25-59v-614q0-34-25-58-24-25-59-25z m0 83h614v139h-147q-27-41-70-64-43-22-90-22t-90 22q-43 23-70 64h-147v-139z m307 115q43 0 77 24 35 24 58 63h172v412h-614v-412h172q24-39 58-63t77-24z m-307-115h614z" horiz-adv-x="1000" />

<glyph glyph-name="users" unicode="&#xf0c9;" d="M26-5v113q0 41 21 74t58 49q77 34 140 49 62 15 129 15 68 0 130-15 62-14 139-49 36-15 58-48 22-33 22-75v-113z m766 0v112q0 67-33 111t-89 78q68-9 127-25t98-36q36-19 58-53 21-34 21-77v-110z m-418 363q-72 0-118 46t-46 118q0 73 46 118t118 45q73 0 118-45t46-117q0-73-46-119t-118-46z m397 165q0-73-46-119t-118-46q-12 0-26 2t-26 7q26 28 39 67t13 88q0 49-13 87-13 38-39 68 12 4 26 6 14 2 26 2 72 0 118-45t46-117z m-663-446h532v29q0 16-10 32t-25 20q-73 33-122 44-49 11-109 11-58 0-109-11t-123-44q-14-5-24-20t-10-32z m266 357q39 0 63 25 25 25 25 63 0 38-25 63-24 24-63 24-37 0-62-24t-25-62q0-39 25-64 25-25 62-25z m0-357z m0 446z" horiz-adv-x="1000" />

<glyph glyph-name="group-b" unicode="&#xf0ca;" d="M726 239q-45 0-76 31t-32 76q0 46 32 77t76 31q46 0 77-31t31-77q0-45-31-76t-77-31z m-214-244v62q0 31 13 52t37 35q39 20 80 29 41 9 84 9 44 0 84-9 41-8 81-29 23-12 36-34 14-22 14-53v-62z m-105 363q-75 0-123 48-47 48-47 123 0 76 47 124 48 48 123 48 76 0 124-48 48-48 48-124 0-75-48-123-48-48-124-48z m1 171z m-349-534v113q0 39 21 72t59 51q71 33 137 48 66 16 131 16 37 0 65-3t60-11q-17-17-35-35-17-18-34-36-12 2-25 2-14 1-30 1-58 0-113-12t-119-43q-14-7-24-22-9-15-9-31v-28h306v-82z m390 82z m-42 365q39 0 64 25 25 25 25 62 0 40-25 64-25 25-63 25-38 0-63-25-25-24-25-63 0-38 25-63 25-25 62-25z" horiz-adv-x="1000" />

<glyph glyph-name="groups" unicode="&#xf0cb;" d="M-7 93v62q0 44 45 71 45 27 118 27 10 0 18 0 8-1 17-2-10-20-14-40-5-20-5-43v-75z m250 0v75q0 35 19 64 18 30 53 50 34 22 81 33 48 11 104 11 57 0 104-11t83-33q34-20 52-50t18-64v-75z m585 0v75q0 23-4 44t-14 39q9 1 17 2 8 0 17 0 74 0 119-26 44-27 44-72v-62z m-503 75h350v6q-5 35-53 57-48 21-122 21t-122-22q-48-22-53-57z m-169 114q-32 0-54 23t-23 54q0 33 23 56 22 23 54 23t56-23q22-23 22-56 0-31-22-54t-56-23z m688 0q-32 0-55 23t-22 54q0 33 22 56 23 23 55 23t55-23q23-23 23-56 0-31-23-54t-55-23z m-344 74q-55 0-94 39t-38 94q0 56 38 94 39 38 94 38 56 0 94-38 38-38 38-94 0-56-38-94t-94-39z m1 75q24 0 41 17t16 42q0 24-17 40t-41 17q-24 0-41-17t-16-41q0-24 16-41t42-17z m-1-263z m0 321z" horiz-adv-x="1000" />

<glyph glyph-name="circle-account" unicode="&#xf0cc;" d="M233 122q66 45 130 69 64 24 137 24 74 0 139-25 64-24 129-68 45 57 63 112t18 116q0 148-101 248-100 101-248 101-148 0-248-101-101-100-101-248 0-61 19-116t63-112z m267 193q-62 0-104 42t-42 103q0 63 42 105 43 42 104 42 63 0 104-42t42-105q0-61-42-103-42-42-104-42z m0-396q-88 0-167 34-79 33-138 92-58 59-92 138-34 79-34 167t34 167q34 79 92 138 59 59 138 93 79 34 167 34t167-34q79-34 138-93 59-59 93-138 34-78 34-167t-34-167q-34-79-93-138-59-59-138-92-78-34-167-34z m0 82q55 0 107 16 52 15 106 55-55 37-106 56-52 18-107 18t-107-18q-51-19-104-56 53-40 104-55 52-16 107-16z m0 383q33 0 55 22 22 21 22 54 0 35-22 56t-55 22q-33 0-55-22-22-21-22-56 0-33 22-54t55-22z m0 76z m1-387z" horiz-adv-x="1000" />

<glyph glyph-name="box-account" unicode="&#xf0cd;" d="M193 91q62 55 139 89t168 35q92 0 168-34 77-34 139-89v565h-614z m309 189q63 0 105 42 42 43 42 105 0 63-42 105-42 42-105 42-62 0-105-42-42-42-42-105 0-62 42-105 43-42 105-42z m-309-320q-34 0-58 25-25 24-25 58v614q0 35 25 59 24 25 58 25h614q35 0 59-25 25-24 25-59v-614q0-34-25-58-24-25-59-25z m52 83h510v6q-56 48-121 72-64 24-134 24t-134-24q-65-24-121-72v-6z m257 306q-32 0-55 23-23 23-23 55 0 32 23 55 23 23 55 23 32 0 55-23 23-23 23-55 0-32-23-55-23-23-55-23z m-2 26z" horiz-adv-x="1000" />

<glyph glyph-name="circle-no-account" unicode="&#xf0ce;" d="M617 374l-204 203q17 14 40 22 22 8 47 8 63 0 104-42t42-105q0-25-8-47-8-23-21-39z m-385-252q66 45 128 69 63 24 140 24 37 0 64-6 28-5 48-13l-119 119q-58 3-95 39-36 36-43 93l-127 127q-37-48-57-103t-20-121q0-61 19-117 19-55 62-111z m541 6q34 41 55 97t21 125q0 150-99 250-100 99-250 99-71 0-125-20t-98-55z m-273-209q-88 0-167 34-79 33-138 92-58 59-92 138-34 79-34 167 0 90 34 168 34 78 92 137t137 93q78 34 167 34 91 0 169-34t137-93q59-59 93-137 34-78 34-168 0-88-34-167-34-79-93-138-59-59-137-92t-168-34z m0 82q58 0 110 17 52 16 104 54-54 36-106 55-52 19-108 19t-108-19q-52-19-105-55 52-38 104-54t109-17z m1 72z" horiz-adv-x="1000" />

<glyph glyph-name="home" unicode="&#xf0cf;" d="M234 43h141v265h250v-265h141v399l-266 199-266-199z m-82-83v522l348 262 349-262v-522h-300v272h-98v-272z m348 382z" horiz-adv-x="1000" />

<glyph glyph-name="smartphone" unicode="&#xf0d0;" d="M277-122q-33 0-58 25-24 24-24 57v780q0 33 24 57 25 25 58 25h446q33 0 58-25 24-24 24-57v-780q0-33-24-57-25-25-58-25z m0 114v-32h446v32z m0 62h446v592h-446z m0 654h446v32h-446z m0 0v32-32z m0-716v-32z" horiz-adv-x="1000" />

<glyph glyph-name="tablet" unicode="&#xf0d1;" d="M110 2q-33 0-57 24-25 24-25 58v532q0 34 25 59 24 24 57 24h780q33 0 57-24 25-25 25-59v-532q0-34-25-58t-57-24z m32 614h-32v-532h32z m62-532h592v532h-592z m654 532v-532h32v532z m0 0h32-32z m-716 0h-32z" horiz-adv-x="1000" />

<glyph glyph-name="laptop" unicode="&#xf0d2;" d="M0-5v70h152v43q-33 0-58 25-24 24-24 58v466q0 35 24 59 25 25 58 25h696q34 0 59-25 24-24 24-59v-466q0-34-24-58-25-25-59-25v-43h152v-70z m152 196h696v466h-696v-466z m0 0v466-466z" horiz-adv-x="1000" />

<glyph glyph-name="computer" unicode="&#xf0d3;" d="M63-47q-15 0-25 10-10 10-10 25 0 15 10 25 10 10 25 10h875q14 0 24-10 10-10 10-25 0-15-10-25-10-10-24-10z m88 132q-33 0-58 25-24 24-24 58v489q0 35 24 59 25 25 58 25h698q34 0 59-25 24-24 24-59v-489q0-34-24-58-25-25-59-25z m0 83h698v489h-698v-489z m0 0v489-489z" horiz-adv-x="1000" />

<glyph glyph-name="desktop" unicode="&#xf0d4;" d="M342-40v83h89v104h-280q-33 0-58 24-24 25-24 59v426q0 35 24 59 25 25 58 25h698q34 0 59-25 24-24 24-59v-426q0-34-24-59-25-24-59-24h-280v-104h89v-83z m-191 270h698v426h-698v-426z m0 0v426-426z" horiz-adv-x="1000" />

<glyph glyph-name="tv" unicode="&#xf0d5;" d="M337-41v91h-186q-33 0-58 25-24 24-24 57v525q0 35 24 59 25 25 58 25h698q34 0 59-25 24-24 24-59v-525q0-33-24-57-25-25-59-25h-184v-91z m-186 173h698v525h-698v-525z m0 0v525-525z" horiz-adv-x="1000" />

<glyph glyph-name="headphones" unicode="&#xf0d6;" d="M354-39h-161q-34 0-58 25-25 24-25 58v306q0 81 31 152t84 124q52 52 123 83 71 32 152 32t152-32q71-31 124-83 52-53 83-124 32-71 32-152v-306q0-34-25-58-24-25-59-25h-161v336h161v53q0 128-89 218-90 89-218 89-128 0-218-89-89-90-89-218v-53h161z m-82 254h-79v-171h79z m457 0v-171h78v171z m0 0h78-78z m-457 0h-79z" horiz-adv-x="1000" />

<glyph glyph-name="headset" unicode="&#xf0d7;" d="M502-115v74h305v57h-161v329h161v57q0 127-89 218t-216 92q-126 0-218-92-91-91-91-218v-57h161v-329h-161q-34 0-58 24-25 25-25 59v303q0 80 31 152 31 72 84 126 53 53 125 84 72 31 152 31 81 0 152-31t124-84q52-54 82-125 31-72 31-153v-434q0-35-25-59t-59-24z m-309 214h79v163h-79v-163z m536 0h78v163h-78z m78 0h-78 78z m-535 0h-79 79z" horiz-adv-x="1000" />

<glyph glyph-name="earbuds" unicode="&#xf0d8;" d="M315-49q-95 0-161 66t-66 161v447q0 50 44 87t95 37q51 0 95-44 44-45 44-96 0-55-42-96-42-42-97-42h-56v-293q0-60 41-102 41-42 103-42 60 0 102 42 41 42 41 102v345q0 94 67 160t160 66q95 0 161-66t67-160v-431q0-58-34-99t-91-42q-57 0-105 42t-49 98q0 57 41 98 41 41 97 41h57v293q0 60-41 102t-103 41q-59 0-101-41t-42-102v-345q0-95-66-161t-161-66z m-144 602h56q22 0 40 17 17 18 17 39t-17 39q-18 18-40 18-22 0-39-18t-17-39z m602-519q22 0 39 18t16 40v56h-56q-22 0-39-17t-16-40q0-22 16-39t40-18z m-2 59z m-542 519z" horiz-adv-x="1000" />

<glyph glyph-name="speaker" unicode="&#xf0d9;" d="M724-81h-448q-34 0-58 24t-24 58v698q0 34 24 59 24 24 58 24h448q34 0 59-24 24-25 24-59v-698q0-34-24-58t-59-24z m0 82v698h-448v-698z m-223 473q33 0 56 23t23 56q0 34-23 56t-56 23q-33 0-56-23t-23-56q0-33 23-56t56-23z m-1-420q72 0 121 50t50 121q0 72-50 121t-121 50q-72 0-121-50t-50-121q0-72 50-121t121-50z m0 63q-45 0-77 31t-31 77q0 45 31 77t77 31q45 0 77-31t31-77q0-45-31-77t-77-31z m-224 582v-698 698z" horiz-adv-x="1000" />

<glyph glyph-name="sd-card" unicode="&#xf0da;" d="M396 395h62v163h-62z m123 0h62v163h-62z m123 0h62v163h-62z m-408-476q-33 0-57 24-25 25-25 58v523l257 258h357q34 0 59-24 24-25 24-59v-698q0-33-24-58-25-24-59-24z m0 82h532v698h-319l-213-211v-487z m0 0h532z" horiz-adv-x="1000" />

<glyph glyph-name="sim-card" unicode="&#xf0db;" d="M290 55h62v63h-62z m0 163h62v173h-62z m177-163h62v177h-62z m0 273h62v63h-62z m185-273h63v63h-63z m0 163h63v173h-63z m-418-299q-33 0-57 24-25 25-25 58v523l257 258h357q34 0 59-24 24-25 24-59v-698q0-33-24-58-25-24-59-24z m0 82h532v698h-319l-213-211v-487z m0 0h532z" horiz-adv-x="1000" />

<glyph glyph-name="nfc" unicode="&#xf0dc;" d="M244 94h512v512h-225q-27 0-44-21-18-20-18-47v-134q-16-9-24-23-7-13-7-31 0-27 17-45 18-17 45-17 27 0 45 17 18 18 18 45 0 18-9 31t-23 23v134h157v-375h-375v375h117v68h-186z m-51-134q-34 0-58 25-25 24-25 58v614q0 35 25 59 24 25 58 25h614q35 0 59-25 25-24 25-59v-614q0-34-25-58-24-25-59-25z m0 83h614v614h-614v-614z m0 614v-614 614z" horiz-adv-x="1000" />

<glyph glyph-name="memory" unicode="&#xf0dd;" d="M393 243v213h213v-213z m62 62h89v89h-89z m-90-352v91h-89q-33 0-58 24-24 25-24 58v89h-91v69h91v136h-91v70h91v88q0 35 24 59 25 25 58 25h89v85h69v-85h136v85h70v-85h88q35 0 59-25 25-24 25-59v-88h85v-70h-85v-136h85v-69h-85v-89q0-33-25-58-24-24-59-24h-88v-91h-70v91h-136v-91z m363 173v452h-452v-452z m-228 224z" horiz-adv-x="1000" />

<glyph glyph-name="hard-drive" unicode="&#xf0de;" d="M153 129h694v274h-694v-274z m557 85q22 0 37 15 16 15 16 38 0 21-16 36-16 15-37 15-21 0-37-15-15-15-15-37 0-22 15-37 16-15 37-15z m220 267h-117l-92 92h-442l-91-92h-117l149 150q11 12 26 19 16 6 33 6h442q17 0 32-6t27-19z m-777-435q-34 0-58 24t-24 59v352h859v-352q0-35-24-59-24-24-59-24z" horiz-adv-x="1000" />

<glyph glyph-name="keyboard" unicode="&#xf0df;" d="M146 39q-34 0-58 24t-24 58v458q0 35 24 59 24 25 58 25h708q35 0 59-25 25-24 25-59v-458q0-33-25-58-24-24-59-24z m0 82h708v458h-708v-458z m167 68h375v62h-375z m-101 130h62v62h-62z m129 0h62v62h-62z m128 0h62v62h-62z m129 0h62v62h-62z m128 0h63v62h-63z m-514 130h62v63h-62z m129 0h62v63h-62z m128 0h62v63h-62z m129 0h62v63h-62z m128 0h63v63h-63z m-580-328v458-458z" horiz-adv-x="1000" />

<glyph glyph-name="print" unicode="&#xf0e0;" d="M680 541v116h-360v-116h-82v200h526v-200z m-529-84h698-611z m609-112q16 0 27 11 11 11 11 26 0 16-11 27t-27 12q-15 0-27-12t-11-27q0-15 11-26 12-11 27-11z m-80-313v166h-360v-166z m84-79h-526v193h-169v269q0 52 35 89 36 37 89 37h614q53 0 89-37 36-37 36-89v-269h-168z m85 276v187q0 17-12 29-12 12-30 12h-614q-18 0-30-12-12-13-12-30v-186h87v52h526v-52z" horiz-adv-x="1000" />

<glyph glyph-name="router" unicode="&#xf0e1;" d="M185-59q-34 0-58 24-25 25-25 59v216q0 34 25 58t58 24h470v178h84v-178h99q32 0 57-24t25-58v-216q0-34-25-59-25-24-57-24z m653 83v216h-653v-216z m-509 107q0 19-13 32t-32 12q-18 0-30-12-12-13-12-32t12-31q12-12 31-12 19 0 32 12t12 31z m154 0q0 19-13 32t-31 12q-19 0-31-12-12-13-12-32t12-31q12-12 32-12 18 0 31 12t12 31z m111-43q19 0 31 12t13 31q0 19-13 32t-32 12q-19 0-31-12-12-13-12-32t12-31q12-12 32-12z m19 464l-47 47q25 26 59 41 33 15 72 15t72-15q34-15 59-41l-47-47q-14 15-37 24-22 9-46 9-25 0-48-9-23-9-37-24z m-93 93l-50 51q34 35 94 63 60 29 134 29 72 0 132-29t94-63l-50-51q-27 30-73 51-46 22-103 22-59 0-105-22-45-21-73-51z m-335-621v216-216z" horiz-adv-x="1000" />

<glyph glyph-name="camera-photo" unicode="&#xf0e2;" d="M500 127q75 0 126 51 51 51 51 127 0 75-51 126-51 50-126 50-76 0-127-50-50-51-50-126 0-76 50-127 51-51 127-51z m0 63q-50 0-82 32-33 33-33 83 0 49 33 82 32 32 82 32 49 0 82-32 33-33 33-82 0-50-33-83-33-32-82-32z m-349-230q-33 0-58 25-24 24-24 58v524q0 33 24 58 25 25 58 25h145l82 97h245l81-97h145q33 0 58-25 25-25 25-58v-524q0-34-25-58-25-25-58-25z m698 83v524h-182l-83 97h-168l-83-97h-182v-524z m-349 261z" horiz-adv-x="1000" />

<glyph glyph-name="camera-video" unicode="&#xf0e3;" d="M146 17q-25 0-44 18-19 19-19 44v542q0 25 19 44 19 18 44 18h542q25 0 43-18 19-19 19-44v-224l167 167v-427l-167 166v-224q0-25-19-44-18-18-43-18z m0 62h542v542h-542v-542z m0 0v542-542z" horiz-adv-x="1000" />

<glyph glyph-name="barcode-reader" unicode="&#xf0e4;" d="M232-50q-67 0-108 53-41 53-24 118l76 287q-35 24-57 63t-22 87q0 73 51 125 52 51 125 51h361q47 0 72-39 24-39 3-80l-92-187q-11-21-30-33-20-13-45-13h-90l-13-53h9q18 0 29-12t11-28v-80q0-17-12-29-12-12-30-12h-51l-30-116q-13-45-49-73t-84-29z m0 83q18 0 33 11 14 11 18 29l86 309h-113l-76-282q-6-26 10-46 15-21 42-21z m41 433h270l92 185h-362q-39 0-66-27-27-27-27-66 0-39 27-66t66-26z m532 189l-21 46 140 64 20-47z m119-303l-140 64 21 46 139-64z m-114 181v51h156v-51z m-402 25z m-95-176z" horiz-adv-x="1000" />

<glyph glyph-name="pos" unicode="&#xf0e5;" d="M268 509q-36 0-60 25-24 24-24 59v117q0 36 24 60 24 24 60 24h464q36 0 60-24 24-24 24-60v-117q0-35-24-59-24-25-60-25z m-8 76h480v133h-480v-133z m-120-679q-36 0-60 24-24 24-24 60v62h888v-62q0-36-24-60-24-24-60-24z m-84 177l157 346q11 22 31 36 20 13 44 13h425q24 0 44-13 20-14 31-36l156-346z m292 84h42q9 0 16 6 8 7 8 18 0 9-8 16-7 8-16 8h-42q-10 0-18-8t-7-16q0-11 7-18 8-6 18-6z m0 89h42q9 0 16 8 8 7 8 16 0 11-8 18t-16 7h-42q-10 0-18-7t-7-17q0-10 7-17t18-8z m0 91h42q9 0 16 7 8 6 8 17 0 10-8 17-7 7-16 7h-42q-10 0-18-7t-7-17q0-11 7-17 8-7 18-7z m131-180h42q10 0 17 6 7 7 7 18 0 9-7 16-7 8-17 8h-42q-10 0-17-8-7-7-7-16 0-11 7-18 7-6 17-6z m0 89h42q10 0 17 8 7 7 7 16 0 11-7 18t-17 7h-42q-10 0-17-7-7-7-7-17 0-10 7-17t17-8z m0 91h42q10 0 17 7 7 6 7 17 0 10-7 17-7 7-17 7h-42q-10 0-17-7-7-7-7-17 0-11 7-17 7-7 17-7z m131-180h42q11 0 18 6t7 18q0 9-7 16-7 8-18 8h-42q-9 0-16-8-7-7-7-16 0-11 7-18 7-6 16-6z m0 89h42q11 0 18 8t7 16q0 11-7 18t-18 7h-42q-9 0-16-7-7-7-7-17 0-10 7-17t16-8z m0 91h42q11 0 18 7t7 17q0 10-7 17-7 7-18 7h-42q-9 0-16-7-7-7-7-17 0-11 7-17 7-7 16-7z" horiz-adv-x="1000" />

<glyph glyph-name="truck" unicode="&#xf0e6;" d="M238 4q-54 0-91 36-38 35-39 87h-80v488q0 33 25 57 24 25 57 25h604v-167h105l153-204v-199h-81q-1-52-39-87-38-36-90-36t-91 36q-38 35-39 87h-266q-2-52-39-87-37-36-89-36z m-1 70q25 0 42 18 18 17 18 42 0 25-18 43-17 18-42 18-25 0-43-18-18-18-18-43 0-25 18-42 18-18 43-18z m-127 135h27q16 25 42 41 26 15 56 15 32 0 58-15t44-41h294v406h-521z m652-135q25 0 42 18 18 17 18 42 0 25-18 43-17 18-42 18-25 0-43-18-18-18-18-43 0-25 18-42 18-18 43-18z m-48 219h180l-116 154h-64z m-342 108z" horiz-adv-x="1000" />

<glyph glyph-name="forklift" unicode="&#xf0e7;" d="M147-31q-52 0-88 35-35 36-35 88 0 22 9 42 9 21 24 38v241h93v245h328l202-471q8-18 14-37 6-19 6-37 0-61-42-103-42-41-102-41-40 0-75 23t-54 60h-164q-13-37-45-60-31-23-71-23z m626 41v690h78v-611h125v-79z m-626 34q20 0 33 13 14 14 14 35 0 20-14 34t-33 14q-21 0-34-14-14-14-14-34 0-21 14-35 13-13 34-13z m409 0q28 0 49 20 20 19 20 48 0 29-20 49-20 20-49 20-29 0-49-20-19-20-19-48 0-30 20-49 20-20 48-20z m-293 86h152q3 19 10 37 6 17 17 32h-125l-128 135h-54v-120h12q40 0 71-23t45-61z m88 148h204l-128 302h-199v-173z m-34-79l-20 21q-20 22-44 47-25 25-45 46l-19 21h-54 54l128-135h125z" horiz-adv-x="1000" />

<glyph glyph-name="pallet" unicode="&#xf0e8;" d="M65-78v95h870v-95h-112v33h-267v-33h-112v33h-267v-33z m175 251q-18 0-30 12-12 12-12 30v520q0 18 12 30 12 12 30 12h520q18 0 30-12 12-12 12-30v-531q0-13-9-22-9-9-22-9z m20 62h480v480h-480z m108 290h264v62h-264z m-108-290v480-480z" horiz-adv-x="1000" />

<glyph glyph-name="conveyor" unicode="&#xf0e9;" d="M194-50q-57 0-97 40-40 39-40 95 0 58 40 98 40 40 97 40h614q58 0 98-40 40-40 40-98 0-56-40-95-40-40-98-40z m0 78h614q25 0 42 17t17 42q0 23-17 40t-42 17h-614q-25 0-42-17t-17-42q0-23 17-40t42-17z m212 269q-17 0-29 12-12 12-12 30v361q0 17 12 29t29 12h362q16 0 28-12t12-29v-361q0-18-12-30-12-12-28-12z m38 79h286v287h-286z m-389 16v80h257v-80z m450 124h164v75h-164z m-364 27h179v79h-179z m303-167v287-287z" horiz-adv-x="1000" />

<glyph glyph-name="podium" unicode="&#xf0ea;" d="M519 678q0-33-24-57t-57-23q-13 0-25 4-12 4-22 12-26-19-43-44-17-25-18-55h567l-43-324h-210v78h145q6 41 12 83 5 42 12 83h-625q6-41 12-83 5-42 12-83h144v-78h-209l-44 324h150q0 53 29 98 30 44 75 72 3 32 26 53 22 21 55 21 33 0 57-24t24-57z m-122-659h206l28 276h-262z m-71-78l-33 341q-3 37 22 64 25 27 60 27h250q35 0 60-27t22-64l-33-341z" horiz-adv-x="1000" />

<glyph glyph-name="trolley" unicode="&#xf0eb;" d="M145 109v560h-79v82h161v-559h674v-83z m71-202q-31 0-51 21-20 21-20 52 0 30 20 51 20 21 51 21 30 0 52-21t22-52q0-30-22-51-22-21-52-21z m84 358v243h243v-243z m74 75h96v94h-96z m231-75v243h244v-243z m75 75h95v94h-95z m148-433q-30 0-51 21-21 21-21 52 0 30 22 51 21 21 50 21 30 0 52-21 21-22 21-52 0-30-21-51-22-21-52-21z m-454 433h96z m306 0h95z" horiz-adv-x="1000" />

<glyph glyph-name="alarm" unicode="&#xf0ec;" d="M499-79q-80 0-151 30t-123 83q-53 53-84 123t-31 152q0 81 31 151t84 124q52 54 123 84 71 31 151 31t151-31q71-30 124-84 53-53 84-124 31-70 31-151 0-81-31-152t-84-123q-53-53-124-83-71-30-151-30z m0 386z m123-170l49 48-134 135v197h-69v-226z m-405 635l49-49-184-177-49 49z m564 0l184-177-49-49-184 177z m-282-769q128 0 217 89t89 217q0 129-89 218t-217 89q-128 0-217-89t-89-218q0-128 89-217t217-89z" horiz-adv-x="1000" />

<glyph glyph-name="bug" unicode="&#xf0ed;" d="M500-40q-73 0-135 36t-92 101h-121v69h95q-6 26-6 51v53h-90v69h90q0 29 0 56 1 28 8 56h-97v69h127q13 31 37 54 25 23 55 38l-81 79 48 47 97-98q32 13 65 14 32 0 65-12l99 99 46-47-78-78q32-17 55-43 23-25 40-56h123v-66h-99q8-28 8-56v-56h91v-69h-91v-53q0-25-6-51h97v-69h-121q-30-67-92-102-63-35-137-35z m0 83q75 0 126 52 50 53 50 128v164q0 75-50 127t-126 53q-75 0-125-53-51-52-51-127v-164q0-75 51-128t125-52z m-83 137h166v69h-166z m0 180h166v69h-166z m83-55h1-1 1-1 1-1 1-1z" horiz-adv-x="1000" />

<glyph glyph-name="calculate" unicode="&#xf0ee;" d="M330 91h52v91h92v52h-92v92h-52v-92h-91v-52h91z m219 36h209v51h-209z m0 112h209v52h-209z m39 164l63 64 64-64 37 38-63 63 63 64-37 37-64-63-63 63-38-37 64-64-64-63z m-334 77h204v52h-204z m-61-520q-34 0-58 25-25 24-25 58v614q0 35 25 59 24 25 58 25h614q35 0 59-25 25-24 25-59v-614q0-34-25-58-24-25-59-25z m0 83h614v614h-614v-614z m0 614v-614 614z" horiz-adv-x="1000" />

<glyph glyph-name="design" unicode="&#xf0ef;" d="M789 460l-182 181 68 69q25 24 59 24 35 0 59-24l63-64q24-24 24-58t-24-59z m-681-499v183l196 197-231 230 201 203 233-232 100 99 182-181-101-100 233-231-202-201-231 230-198-197z m250 433l95 95-71 70-50-51-45 46 50 50-61 62-95-95z m359-360l93 94-60 62-51-50-45 47 50 50-71 69-93-94z m-533 4h73l422 421-73 74-422-421z" horiz-adv-x="1000" />

<glyph glyph-name="shapes" unicode="&#xf0f0;" d="M603 419l-58 57 124 124-123 122 58 58 123-122 124 124 58-58-124-124 124-124-58-57-124 124z m-554-28l234 419 234-419z m236-444q-75 0-128 53-54 53-54 128 0 76 53 129t128 52q75 0 129-53 53-53 53-128 0-75-53-128-54-53-128-53z m0 83q41 0 70 28 28 29 28 70 0 41-28 70-29 29-71 29-40 0-69-29-28-29-28-70 0-41 28-70t70-28z m-94 443h185l-93 167z m354-526v362h363v-362z m83 83h197v197h-197z m-345 526z m2-428z m442 0z" horiz-adv-x="1000" />

<glyph glyph-name="layers" unicode="&#xf0f1;" d="M499-54l-399 311 69 51 330-258 332 258 69-51z m0 183l-399 312 399 310 400-310z m0 334z m0-229l265 207-265 205-264-205z" horiz-adv-x="1000" />

<glyph glyph-name="widgets" unicode="&#xf0f2;" d="M713 322l-241 241 241 239 239-239z m-628 75v340h340v-340z m462-462v340h340v-340z m-462 0v340h340v-340z m84 544h173v175h-173z m547-44l123 124-123 124-124-124z m-87-416h175v173h-175z m-460 0h173v173h-173z m173 460z m250 80z m-250-367z m287 0z" horiz-adv-x="1000" />

<glyph glyph-name="category" unicode="&#xf0f3;" d="M246 381l255 413 255-413z m502-475q-83 0-140 57t-56 139q0 83 56 140 57 57 140 57t140-57q56-57 56-140 0-83-57-140t-139-56z m-657 26v347h347v-347z m657 58q48 0 80 32 32 33 32 80 0 48-32 81-33 33-80 33-48 0-81-33-33-33-33-81t33-80q33-32 81-32z m-574 26h181v180h-181z m221 449h212l-106 173z m106 0z m-146-269z m393-94z" horiz-adv-x="1000" />

<glyph glyph-name="cube" unicode="&#xf0f4;" d="M193 176l269-155v307l-269 155z m347-155l267 155v308l-267-156z m-305 528l265-154 265 154-265 152z m-125-421v396q0 22 11 41t30 31l307 177q20 11 42 11t42-11l307-177q20-12 31-31 11-19 11-41v-348q0-22-11-41t-31-31l-307-177q-20-11-42-11t-42 11z m390 222z" horiz-adv-x="1000" />

<glyph glyph-name="dashboard" unicode="&#xf0f5;" d="M528 450v301h373v-301z m-429-143v444h373v-444z m429-357v444h373v-444z m-429 0v301h373v-301z m82 440h209v279h-209z m429-358h209v280h-209z m0 500h209v137h-209z m-429-500h209v137h-209z m209 358z m220 142z m0-220z m-220-143z" horiz-adv-x="1000" />

<glyph glyph-name="token" unicode="&#xf0f6;" d="M500-82l-388 223v431l388 210 389-210v-431z m-120 542q24 23 55 38t65 15q33 0 65-15t55-38l145 86-265 141-265-141z m83-426v158q-56 15-91 59-34 43-34 99 0 10 1 22t5 22l-150 88v-293z m37 229q37 0 62 25t26 62q0 37-26 62t-62 26q-36 0-62-26t-25-62q0-36 25-62t62-25z m38-229l268 155v293l-149-88q3-11 5-22 1-12 1-22 0-56-35-99t-90-59z" horiz-adv-x="1000" />

<glyph glyph-name="thumbs" unicode="&#xf0f7;" d="M76 252q-31 0-54 23-22 22-22 53v268q0 13 5 25 4 12 16 25l203 204 31-33q7-8 10-14 4-6 4-15v-10l-30-138h207q25 0 42-18t17-42v-48q0-8-1-16t-4-12l-88-207q-11-24-30-34-18-11-50-11z m265 76l89 204v31h-277l28 136-105-107v-264z m435-478l-31 33q-6 8-10 14-4 6-4 15v10l32 140h-209q-25 0-42 16t-17 42v48q0 8 1 16t4 12l89 208q10 24 29 34 19 10 50 10h256q31 0 54-22 22-23 22-54v-267q0-14-5-27-4-12-16-24z m-117 522l-89-204v-30h277l-28-137 105 107v264z m-583-31v251-251z m848 18v-251 251z" horiz-adv-x="1000" />

<glyph glyph-name="interests" unicode="&#xf0f8;" d="M49 391l234 419 234-419z m236-444q-75 0-128 53-54 53-54 128 0 76 53 129t128 52q75 0 129-53 53-53 53-128 0-75-53-128-54-53-128-53z m0 83q41 0 70 28 28 29 28 70 0 41-28 70-29 29-71 29-40 0-69-29-28-29-28-70 0-41 28-70t70-28z m-94 443h185l-93 167z m354-526v362h363v-362z m83 83h197v197h-197z m99 361q-67 56-110 94-43 38-68 67-25 28-35 53-11 24-11 51 0 54 36 89 36 35 91 35 28 0 54-13t43-37q17 24 43 37 26 13 54 13 55 0 91-35 35-35 35-89 0-27-10-51t-35-53q-25-29-68-67-44-38-110-94z m0 110q85 70 113 99 28 29 28 51 0 20-12 32-12 13-33 13-13 0-25-7-11-7-31-22l-40-36-39 36q-20 16-33 23-12 6-24 6-21 0-33-13t-11-32q0-22 28-51 28-29 112-99z m0 98z m-444-43z m2-428z m442 0z" horiz-adv-x="1000" />

<glyph glyph-name="school" unicode="&#xf0f9;" d="M499-31l-308 169v250l-162 87 470 256 472-256v-336h-76v292l-88-43v-250z m0 335l311 171-311 168-309-168z m0-249l232 128v159l-232-123-232 125v-161z m1 249z m-1-82z m0 0z" horiz-adv-x="1000" />

<glyph glyph-name="science" unicode="&#xf0fa;" d="M179-40q-53 0-75 49-23 49 14 90l255 288v265h-41q-17 0-29 12-12 12-12 30 0 18 12 29 12 12 29 12h336q17 0 29-12 12-11 12-29 0-18-12-30-12-12-29-12h-40v-265l254-288q37-41 14-90-22-49-75-49z m-1 83h644l-277 313v296h-90v-296z m320 305z" horiz-adv-x="1000" />

<glyph glyph-name="account-balance" unicode="&#xf0fb;" d="M207 96v353h76v-353z m260 0v353h75v-353z m-398-131v82h863v-82z m648 131v353h76v-353z m-648 402v80l431 245 432-245v-80z m177 83h508z m0 0h508l-254 147z" horiz-adv-x="1000" />

<glyph glyph-name="timeline" unicode="&#xf0fc;" d="M260 144h230v62h-230z m125 175h230v62h-230z m125 176h230v62h-230z m-317-535q-34 0-58 25-25 24-25 58v614q0 35 25 59 24 25 58 25h614q35 0 59-25 25-24 25-59v-614q0-34-25-58-24-25-59-25z m0 83h614v614h-614v-614z m0 614v-614 614z" horiz-adv-x="1000" />

<glyph glyph-name="kanban" unicode="&#xf0fd;" d="M294 142h62v417h-62z m175 208h62v209h-62z m176-125h62v334h-62z m-452-265q-34 0-58 25-25 24-25 58v614q0 35 25 59 24 25 58 25h614q35 0 59-25 25-24 25-59v-614q0-34-25-58-24-25-59-25z m0 83h614v614h-614v-614z m0 614v-614 614z" horiz-adv-x="1000" />

<glyph glyph-name="map" unicode="&#xf0fe;" d="M638-41l-274 97-182-73q-25-11-48 3-24 15-24 44v582q0 18 11 32 10 14 27 22l216 75 274-96 180 73q25 10 49-4 24-14 24-43v-589q0-16-11-28t-27-19z m-36 100v514l-204 69v-514z m63 0l142 47v522l-142-55z m-472 15l142 54v514l-142-47z m472 499v-514z m-330 69v-514z" horiz-adv-x="1000" />

<glyph glyph-name="meeting-room" unicode="&#xf0ff;" d="M91-40v83h102v698h441v-47h174v-651h101v-83h-184v650h-91v-650z m185 697v-614z m181-352q19 0 32 13 13 13 13 32 0 19-13 32-13 13-32 13-19 0-32-13t-13-32q0-19 13-32 13-13 32-13z m-181-262h276v614h-276z" horiz-adv-x="1000" />

</font>
</defs>
</svg>
