<?xml version="1.0" standalone="no"?>
<!DOCTYPE svg PUBLIC "-//W3C//DTD SVG 1.1//EN" "http://www.w3.org/Graphics/SVG/1.1/DTD/svg11.dtd">
<svg xmlns="http://www.w3.org/2000/svg">
<metadata>Copyright (C) 2023 by original authors @ fontello.com</metadata>
<defs>
<font id="ddmliconssymbols" horiz-adv-x="1000" >
<font-face font-family="ddmliconssymbols" font-weight="400" font-stretch="normal" units-per-em="1000" ascent="850" descent="-150" />
<missing-glyph horiz-adv-x="1000" />
<glyph glyph-name="minus" unicode="&#xf000;" d="M198 308v84h604v-84z" horiz-adv-x="1000" />

<glyph glyph-name="plus" unicode="&#xf001;" d="M458 48v260h-260v84h260v260h84v-260h260v-84h-260v-260z" horiz-adv-x="1000" />

<glyph glyph-name="check" unicode="&#xf002;" d="M394 92l-248 248 60 59 188-187 399 398 60-59z" horiz-adv-x="1000" />

<glyph glyph-name="close" unicode="&#xf003;" d="M259 51l-58 58 241 241-241 241 58 58 241-241 241 241 58-58-241-241 241-241-58-58-241 241z" horiz-adv-x="1000" />

<glyph glyph-name="info" unicode="&#xf004;" d="M542 460l0-415-84 0 0 415z m0 195v-82l-84 0 0 82z" horiz-adv-x="1000" />

<glyph glyph-name="question" unicode="&#xf005;" d="M442 196q1 84 20 124 18 39 64 77 43 35 64 68t20 70q0 43-28 72t-79 28q-51 0-81-28-29-29-43-67l-109 48q26 69 85 116 60 46 148 46 110 0 169-62 59-62 59-149 0-58-22-102t-68-87q-50-45-61-71-11-27-11-83z m61-279q-36 0-61 25-25 26-25 61 0 36 25 61 25 26 61 26 37 0 62-26 25-25 25-61 0-35-26-61-25-25-61-25z" horiz-adv-x="1000" />

<glyph glyph-name="exclamation" unicode="&#xf006;" d="M458 240v415h84v-415z m0-195v82h84v-82z" horiz-adv-x="1000" />

<glyph glyph-name="block" unicode="&#xf007;" d="M500-81q-90 0-168 34-79 33-137 92-58 59-92 138-34 79-34 168 0 89 34 167 34 79 92 137 58 59 137 93 78 34 168 34 90 0 168-34 79-34 137-93 59-58 93-137 34-78 34-167 0-89-34-169t-92-137q-59-59-138-92-78-34-168-34z m0 82q146 0 247 102t102 248q0 59-20 115-20 56-56 101l-490-489q45-38 101-58 57-19 116-19z m-272 133l488 489q-46 37-101 57-56 19-115 19-146 0-247-101t-102-247q0-59 21-115 21-56 56-102z" horiz-adv-x="1000" />

<glyph glyph-name="male" unicode="&#xf008;" d="M847 700v-249h-82v107l-175-174q19-31 30-66 11-36 11-72 0-100-69-170-69-70-169-70t-170 70q-70 70-70 170 0 100 70 170 70 69 170 69 37 0 72-11 34-11 64-32l176 176h-107v82z m-454-298q-66 0-112-45-46-45-46-111 0-66 46-111 46-45 111-45 65 0 111 45 46 45 46 111 0 66-45 111-46 45-111 45z" horiz-adv-x="1000" />

<glyph glyph-name="female" unicode="&#xf009;" d="M458-42v84h-83v79h83v99q-85 13-141 81t-57 153q0 100 71 170 70 70 169 70t169-70q71-70 71-170 0-86-57-153-56-68-141-81v-99h83v-79h-83v-84z m42 340q66 0 111 45 45 46 45 111 0 66-45 111-45 45-111 45-66 0-111-45-45-45-45-111 0-65 45-111 45-45 111-45z" horiz-adv-x="1000" />

<glyph glyph-name="attach" unicode="&#xf00a;" d="M479-83q-102 0-174 70-72 70-72 171v455q0 72 51 124t124 51q73 0 124-51t51-125v-414q0-44-30-74-30-30-74-30-45 0-74 32-30 32-30 77v412h55v-415q0-21 14-36t35-16q21 0 35 15t14 35v415q0 50-35 84t-85 34q-50 0-85-34-34-34-34-84v-457q0-78 55-131t135-53q80 0 136 54t55 132v457h55v-456q0-101-72-172-72-70-174-70z" horiz-adv-x="1000" />

<glyph glyph-name="note" unicode="&#xf00b;" d="M404-42q-69 0-117 49t-48 118q0 70 48 118 48 48 117 48 27 0 48-7 21-7 37-19v477h274v-161h-192v-456q0-70-49-118-48-49-118-49z" horiz-adv-x="1000" />

<glyph glyph-name="hash" unicode="&#xf00c;" d="M248 6l45 177h-160l21 84h160l41 166h-180l21 84h180l44 177h81l-44-177h169l44 177h81l-44-177h160l-20-84h-159l-43-166h180l-20-84h-180l-44-177h-83l45 177h-168l-44-177z m147 261h169l41 166h-167z" horiz-adv-x="1000" />

<glyph glyph-name="mail" unicode="&#xf00d;" d="M500-80q-90 0-168 34-78 33-136 92t-92 136q-34 78-34 168 0 90 34 168 34 78 92 136t136 92q78 34 168 34 90 0 168-34 78-33 136-92t92-136q34-78 34-168v-55q0-64-43-104-44-41-109-41-39 0-74 19t-51 53q-26-38-66-55-40-17-87-17-83 0-142 58t-59 142q0 84 58 143t143 59q84 0 143-59t58-143v-51q0-31 23-53t54-21q31 0 54 21 22 22 22 53v51q0 149-102 252-103 102-252 102-148 0-251-103-103-103-103-251 0-149 102-252 103-102 252-102h223v-76z m0 305q52 0 89 37 37 36 37 88 0 53-37 90-37 37-89 37-52 0-89-37-37-37-37-90 0-52 37-88t89-37z" horiz-adv-x="1000" />

<glyph glyph-name="percent" unicode="&#xf00e;" d="M292 406q-63 0-108 45-44 44-44 107 0 63 44 108 45 44 108 44 63 0 108-44t44-108q0-63-44-107t-108-45z m0 83q29 0 49 20 21 20 21 49 0 29-21 49-20 20-49 20-28 0-49-20-20-20-20-49 0-29 20-49 21-20 49-20z m416-499q-63 0-107 44t-45 108q0 63 45 108t107 44q63 0 108-44 44-45 44-108 0-63-44-108-45-44-108-44z m0 83q29 0 49 20 20 21 20 49 0 29-20 49-20 21-49 21-29 0-49-21-20-20-20-49 0-28 20-49 20-20 49-20z m-498-71l-58 58 638 638 58-58z" horiz-adv-x="1000" />

<glyph glyph-name="done" unicode="&#xf00f;" d="M307 74l-248 247 59 59 188-188 60-60z m176 14l-248 249 60 58 188-189 399 399 61-58z m0 192l-58 59 268 267 58-58z" horiz-adv-x="1000" />

<glyph glyph-name="login" unicode="&#xf010;" d="M506-40v83h308v614h-308v84h308q33 0 57-25 25-24 25-59v-614q0-34-25-58-24-25-57-25z m-90 187l-61 58 104 103h-355v84h353l-104 103 61 58 204-204z" horiz-adv-x="1000" />

<glyph glyph-name="logout" unicode="&#xf011;" d="M187-40q-34 0-58 25-25 24-25 58v614q0 35 25 59 24 25 58 25h307v-84h-307v-614h307v-83z m508 187l-61 58 105 103h-356v84h354l-105 103 61 58 203-204z" horiz-adv-x="1000" />

<glyph glyph-name="upload" unicode="&#xf012;" d="M221-12q-34 0-59 25-24 25-24 59v175h83v-175h558v175h83v-175q0-34-25-59-24-25-58-25z m237 201v377l-120-122-60 59 222 222 222-222-59-59-121 122v-377z" horiz-adv-x="1000" />

<glyph glyph-name="download" unicode="&#xf013;" d="M221-12q-34 0-59 25-24 25-24 59v175h83v-175h558v175h83v-175q0-34-25-59-24-25-58-25z m279 201l-222 221 60 59 120-122v378h84v-378l121 122 59-59z" horiz-adv-x="1000" />

<glyph glyph-name="move-up" unicode="&#xf014;" d="M327 4q-127 0-214 88-88 88-88 214 0 131 90 209 89 79 203 74l-88 86 55 55 181-181-182-181-54 55 95 94q-95 2-159-57-65-58-65-154 0-93 66-160t160-66h135v-76z m212 389v312h394v-312z m0-389v313h394v-313z m82 84h230v145h-230z" horiz-adv-x="1000" />

<glyph glyph-name="move-down" unicode="&#xf015;" d="M285-26l-55 55 88 87q-114-6-203 73t-90 209q0 126 88 214 87 88 214 88h135v-76h-135q-94 0-160-66t-66-160q0-96 65-154 64-59 159-56l-95 94 54 55 182-182z m254 26v312h394v-312z m0 389v311h394v-311z m82 82h230v147h-230z" horiz-adv-x="1000" />

<glyph glyph-name="zoom-in" unicode="&#xf016;" d="M828-41l-277 278q-30-25-72-40t-88-15q-118 0-199 82t-80 195q0 115 81 196 81 82 196 82 115 0 195-82 81-81 81-196 0-45-14-86-13-41-41-77l279-276z m-438 307q80 0 136 56 56 57 56 137t-56 137q-56 57-136 57-83 0-139-57-57-56-57-137t57-137q56-56 139-56z m-34 81v82h-82v63h83v82h63v-82h81v-63h-81v-82z" horiz-adv-x="1000" />

<glyph glyph-name="zoom-out" unicode="&#xf017;" d="M828-41l-277 278q-30-25-72-40t-88-15q-118 0-199 82t-80 195q0 115 81 196 81 82 196 82 115 0 195-82 81-81 81-196 0-45-14-86-13-41-41-77l279-276z m-438 307q80 0 136 56 56 57 56 137t-56 137q-56 57-136 57-83 0-139-57-57-56-57-137t57-137q56-56 139-56z m-107 163v63h210v-63z" horiz-adv-x="1000" />

<glyph glyph-name="search" unicode="&#xf018;" d="M828-41l-277 278q-30-25-72-40t-88-15q-118 0-199 82t-80 195q0 115 81 196 81 82 196 82 115 0 195-82 81-81 81-196 0-45-14-86-13-41-41-77l279-276z m-438 307q80 0 136 56 56 57 56 137t-56 137q-56 57-136 57-83 0-139-57-57-56-57-137t57-137q56-56 139-56z" horiz-adv-x="1000" />

<glyph glyph-name="infinity" unicode="&#xf019;" d="M221 110q-98 0-165 72t-66 170q0 98 67 168 67 70 164 70 38 0 75-13t66-42l91-87-59-57-85 83q-17 17-40 24t-48 8q-63 0-105-45t-43-109q0-65 42-112t106-46q24 0 47 8t41 23l330 310q28 29 65 42t74 13q98 0 165-70 67-70 67-168 0-99-67-170-67-72-165-72-37 0-75 13t-64 41l-90 87 59 57 83-83q16-17 40-24 23-7 47-7 64 0 106 47t43 111q0 64-43 109t-106 45q-24 0-47-9t-40-24l-329-310q-29-28-66-40-38-13-75-13z" horiz-adv-x="1000" />

<glyph glyph-name="undo" unicode="&#xf01a;" d="M284 48v83h311q70 0 119 46 50 45 50 113t-50 113q-49 45-119 45h-283l109-108-58-59-209 209 209 208 58-58-109-109h282q103 0 177-69t75-172q0-102-75-172-74-70-177-70z" horiz-adv-x="1000" />

<glyph glyph-name="redo" unicode="&#xf01b;" d="M406 48q-103 0-177 70t-75 172q0 102 75 172 74 69 177 69h283l-110 109 59 58 208-208-208-209-59 59 110 108h-284q-68 0-118-45t-49-113q0-68 49-113t118-46h312v-83z" horiz-adv-x="1000" />

<glyph glyph-name="source" unicode="&#xf01c;" d="M193-40q-34 0-58 25-25 24-25 58v174h83v-174h174v-83z m440 0v83h174v174h84v-174q0-34-25-58-24-25-59-25z m-275 240l-150 150 150 150 59-59-91-91 91-91z m284 0l-59 59 91 91-91 91 59 59 150-150z m-532 283v174q0 35 25 59 24 25 58 25h174v-84h-174v-174z m697 0v174h-174v84h174q35 0 59-25 25-24 25-59v-174z" horiz-adv-x="1000" />

<glyph glyph-name="read-more" unicode="&#xf01d;" d="M300 123l-58 58 127 127h-296v84h296l-127 127 58 58 227-227z m266 9v83h361v-83z m0 353v84h361v-84z m125-177v84h236v-84z" horiz-adv-x="1000" />

<glyph glyph-name="anchor" unicode="&#xf01e;" d="M500-80q-77 0-147 26-70 26-123 70-53 43-84 99-31 56-31 115v111l166-124-63-64q32-55 102-99t138-48v379h-135v83h135v67q-43 18-66 50-23 33-23 73 0 56 38 94t93 39q55 0 93-39 38-38 38-94 0-40-23-73t-66-50v-67h135v-83h-135v-379q67 4 138 48 70 44 102 99l-63 64 166 124v-111q0-59-31-115-31-56-84-99-53-44-123-70-70-26-147-26z m0 690q21 0 35 15t14 33q0 21-14 35t-35 14q-20 0-34-14t-15-35q0-19 15-33t34-15z" horiz-adv-x="1000" />

<glyph glyph-name="share" unicode="&#xf01f;" d="M242-122q-35 0-59 25t-24 57v493q0 35 24 59t59 23h153v-82h-153v-493h516v493h-155v82h155q35 0 59-23 25-24 25-59v-493q0-33-25-57-24-25-59-25z m215 318v467l-91-92-59 58 192 193 192-193-59-58-91 92v-467z" horiz-adv-x="1000" />

<glyph glyph-name="menu" unicode="&#xf020;" d="M115 83v83h770v-83z m0 225v84h770v-84z m0 226v83h770v-83z" horiz-adv-x="1000" />

<glyph glyph-name="menu-close" unicode="&#xf021;" d="M101 83v83h563v-83z m741 57l-212 211 211 211 58-60-151-151 152-152z m-741 170v84h438v-84z m0 224v83h563v-83z" horiz-adv-x="1000" />

<glyph glyph-name="more-h" unicode="&#xf022;" d="M203 294q-23 0-39 16-17 17-17 40 0 24 17 40 16 16 39 16 23 0 40-16t17-40q0-23-17-40-17-16-40-16z m297 0q-23 0-40 16-16 17-16 40 0 24 16 40 17 16 40 16 24 0 40-16 16-16 16-40 0-23-16-40-16-16-40-16z m297 0q-24 0-41 16t-16 40q0 24 16 40 17 16 41 16t41-16q16-16 16-40 0-23-16-40-17-16-41-16z" horiz-adv-x="1000" />

<glyph glyph-name="more-v" unicode="&#xf023;" d="M500-3q-23 0-40 17-16 16-16 39 0 23 16 40t40 17q24 0 40-17 16-17 16-40t-16-39q-16-17-40-17z m0 297q-23 0-40 16-16 17-16 40 0 24 16 40 17 16 40 16 24 0 40-16 16-16 16-40 0-23-16-40-16-16-40-16z m0 296q-23 0-40 16-16 17-16 41t16 41q17 16 40 16 24 0 40-16 16-17 16-41t-16-41q-16-16-40-16z" horiz-adv-x="1000" />

<glyph glyph-name="drag-handle" unicode="&#xf024;" d="M358 3q-33 0-56 24t-24 56q0 34 24 57t56 23q34 0 57-23t23-57q0-33-23-56t-57-24z m285 0q-34 0-57 24t-23 56q0 34 23 57t57 23q32 0 55-23 24-23 24-57t-24-56q-23-24-55-24z m-285 268q-33 0-56 23t-24 56q0 33 24 56t56 23q34 0 57-23t23-56q0-32-23-56-23-23-57-23z m285 0q-34 0-57 23t-23 56q0 33 23 56t57 23q32 0 55-23 24-23 24-56 0-32-24-56-23-23-55-23z m-285 267q-33 0-56 23t-24 57q0 32 24 55 23 24 56 24t57-24q23-23 23-55 0-34-23-57t-57-23z m285 0q-34 0-57 23t-23 57q0 32 23 55 23 24 57 24 32 0 55-24 24-23 24-55 0-34-24-57t-55-23z" horiz-adv-x="1000" />

<glyph glyph-name="drag-bars" unicode="&#xf025;" d="M156 237v82h688v-82z m0 144v84h688v-84z" horiz-adv-x="1000" />

<glyph glyph-name="sort" unicode="&#xf026;" d="M115 83v83h270v-83z m0 225v84h520v-84z m0 226v83h770v-83z" horiz-adv-x="1000" />

<glyph glyph-name="sort-by-alpha" unicode="&#xf027;" d="M77 139l172 423h72l171-423h-76l-40 103h-186l-40-103z m136 163h140l-68 178h-4z m356-163v68l237 294h-218v61h290v-70l-234-293h236v-60z m-176 525l107 108 108-108z m107-736l-107 109h215z" horiz-adv-x="1000" />

<glyph glyph-name="filter" unicode="&#xf028;" d="M406 83v83h188v-83z m-166 225v84h520v-84z m-125 226v83h770v-83z" horiz-adv-x="1000" />

<glyph glyph-name="bars" unicode="&#xf029;" d="M115 27v82h770v-82z m0 187v82h770v-82z m0 187v82h770v-82z m0 188v82h770v-82z" horiz-adv-x="1000" />

<glyph glyph-name="power" unicode="&#xf02a;" d="M458 306v439h84v-439z m42-348q-80 0-151 31t-124 84q-53 53-84 123-31 71-31 152 0 86 36 161 36 75 102 133l59-59q-54-43-84-104-30-61-30-131 0-128 89-218 90-89 218-89 128 0 218 89 89 90 89 218 0 71-30 132-30 62-83 105l60 59q65-55 101-132 36-78 36-164 0-80-31-152-31-71-84-124-53-52-124-83-71-31-152-31z" horiz-adv-x="1000" />

<glyph glyph-name="power-settings" unicode="&#xf02b;" d="M458 380v397h84v-397z m41-296q-140 0-237 98t-98 239q0 83 37 155t103 119l59-58q-54-40-85-95-32-55-32-120 0-105 74-180t180-74q105 0 180 74t74 180q0 66-31 125t-89 94l59 58q71-47 108-121t37-157q0-140-100-238-99-99-239-99z m-182-236q-21 0-35 14t-14 34q0 21 14 35t35 14q21 0 34-14 14-14 14-35t-14-35q-14-13-34-13z m183 0q-21 0-34 14-14 14-14 34 0 21 14 35t34 14q21 0 34-14 14-14 14-35t-14-35q-13-13-34-13z m184 0q-20 0-34 14-13 14-13 34 0 21 13 35t34 14q20 0 34-14t14-35q0-21-13-35-14-13-35-13z" horiz-adv-x="1000" />

<glyph glyph-name="dialpad" unicode="&#xf02c;" d="M500-121q-32 0-56 24-23 23-23 55 0 34 23 57t56 24q33 0 56-24t23-57q0-32-23-55-23-24-56-24z m-262 783q-34 0-57 23t-23 57q0 33 24 56t56 23q33 0 56-23t24-56q0-34-24-57t-56-23z m0-261q-34 0-57 24t-23 56q0 34 24 57t56 22q33 0 56-22t24-57q0-32-24-56-23-24-56-24z m0-260q-34 0-57 23t-23 56q0 33 24 57t56 23q33 0 56-23t24-57q0-33-24-56t-56-23z m525 521q-33 0-57 23-24 23-24 57t24 56q24 23 57 23 33 0 56-23t23-56q0-34-23-57t-56-23z m-263-521q-32 0-56 23-23 24-23 56 0 33 23 57t56 23q33 0 56-23t23-57q0-33-23-56t-56-23z m263 0q-33 0-57 23-24 24-24 56 0 33 24 57t57 23q33 0 56-22t23-56q0-32-23-57t-56-24z m0 260q-33 0-57 24-24 24-24 56 0 34 24 57t57 22q33 0 56-22t23-57q0-32-23-56-23-24-56-24z m-263 0q-32 0-56 24-23 24-23 56 0 34 23 57t56 22q33 0 56-22t23-57q0-32-23-56-23-24-56-24z m0 261q-32 0-56 23-23 23-23 57t23 56q24 23 56 23 33 0 56-23t23-56q0-34-23-57t-56-23z" horiz-adv-x="1000" />

<glyph glyph-name="window-minimize" unicode="&#xf02d;" d="M1000 118v-107q0-37-26-63t-63-27h-822q-36 0-63 27t-26 63v107q0 37 26 63t63 26h822q37 0 63-26t26-63z" horiz-adv-x="1000" />

<glyph glyph-name="window-restore" unicode="&#xf02e;" d="M143-7h428v286h-428v-286z m571 286h286v428h-429v-143h54q37 0 63-26t26-63v-196z m429 482v-536q0-37-26-63t-63-26h-340v-197q0-37-26-63t-63-26h-536q-36 0-63 26t-26 63v536q0 37 26 63t63 26h340v197q0 37 26 63t63 26h536q36 0 63-26t26-63z" horiz-adv-x="1142.9" />

<glyph glyph-name="window-maximize" unicode="&#xf02f;" d="M143 64h714v429h-714v-429z m857 625v-678q0-37-26-63t-63-27h-822q-36 0-63 27t-26 63v678q0 37 26 63t63 27h822q37 0 63-27t26-63z" horiz-adv-x="1000" />

<glyph glyph-name="narrow" unicode="&#xf030;" d="M458-31v609l-93-94-58 58 193 193 193-193-58-58-93 94v-609z" horiz-adv-x="1000" />

<glyph glyph-name="normal" unicode="&#xf031;" d="M458-77v701l-207-208-57 58 306 307 307-307-58-57-207 207v-701z" horiz-adv-x="1000" />

<glyph glyph-name="wide" unicode="&#xf032;" d="M458 10v522l-239-240-59 58 340 340 340-340-58-58-240 240v-522z" horiz-adv-x="1000" />

<glyph glyph-name="chevron" unicode="&#xf033;" d="M295 196l-60 59 265 264 265-263-60-59-205 205z" horiz-adv-x="1000" />

<glyph glyph-name="chevron-double" unicode="&#xf034;" d="M294 64l-59 58 265 263 265-263-59-58-206 206z m0 277l-59 57 265 265 265-265-59-57-206 206z" horiz-adv-x="1000" />

<glyph glyph-name="angle" unicode="&#xf035;" d="M69 167l431 431 431-431-74-73-357 357-357-357z" horiz-adv-x="1000" />

<glyph glyph-name="double-angle" unicode="&#xf036;" d="M706 128l-265 265-265-265-58 58 323 323 323-323z m0 327l-265 265-265-265-59 59 324 324 324-324z" horiz-adv-x="1000" />

<glyph glyph-name="capral" unicode="&#xf037;" d="M802 70l-302 226-302-226 0 103 302 225 302-225z m0 288l-302 225-302-225 0 102 302 225 302-225z" horiz-adv-x="1000" />

<glyph glyph-name="drop" unicode="&#xf038;" d="M268 256l232 235 232-235z" horiz-adv-x="1000" />

<glyph glyph-name="align-to" unicode="&#xf039;" d="M458-40v480l-112-114-58 58 212 213 213-213-59-58-112 114v-480z m-302 699v83h688v-83z" horiz-adv-x="1000" />

<glyph glyph-name="start" unicode="&#xf03a;" d="M760-85l-520 0 0 82 520 0z m6 606l-59-59-165 165 0-533-84 0 0 533-165-164-59 58 266 264z" horiz-adv-x="1000" />

<glyph glyph-name="tab" unicode="&#xf03b;" d="M766 342l-59-61-165 167 0-533-84 0 0 533-165-165-59 59 266 264z m-6 361l-520 0 0 84 520 0z" horiz-adv-x="1000" />

<glyph glyph-name="step-into" unicode="&#xf03c;" d="M500 785q52 0 89-36t36-89q0-52-36-88-37-35-89-35t-88 36q-37 36-37 89 0 51 37 87t88 36z m0-363l208-208-58-59-108 109 0-344-84 0 0 344-107-109-59 59z" horiz-adv-x="1000" />

<glyph glyph-name="step-out" unicode="&#xf03d;" d="M500-85q-52 0-88 36t-37 89q0 52 37 88 36 36 88 36t89-37q36-36 36-88 0-52-36-88t-89-36z m-42 363v344l-108-108-58 58 208 208 208-208-59-58-107 107v-343z" horiz-adv-x="1000" />

<glyph glyph-name="top-left" unicode="&#xf03e;" d="M719 6v427h-407l148-149-58-59-250 250 250 250 58-58-150-150h492v-511z" horiz-adv-x="1000" />

<glyph glyph-name="top-right" unicode="&#xf03f;" d="M198 6v511h492l-150 150 58 58 250-250-250-250-58 59 150 149h-409v-427z" horiz-adv-x="1000" />

<glyph glyph-name="to-bound" unicode="&#xf040;" d="M235 610l530 0 0-83-530 0z m4-476l258 259 258-259-59-59-199 199-199-199z" horiz-adv-x="1000" />

<glyph glyph-name="capslock" unicode="&#xf041;" d="M240 90v83h520v-83z m260 541l259-259-59-59-200 200-196-196-59 59z" horiz-adv-x="1000" />

<glyph glyph-name="bounds-up" unicode="&#xf042;" d="M125-53v83h750v-83z m333 195v258l-66-67-59 59 167 166 167-166-59-59-66 67v-258z m-333 529v82h750v-82z" horiz-adv-x="1000" />

<glyph glyph-name="bounds" unicode="&#xf043;" d="M158-94v84h684v-84z m344 115l-170 170 55 54 78-78v366l-78-78-55 54 170 170 170-170-54-54-78 78v-366l78 78 54-54z m-344 689v84h684v-84z" horiz-adv-x="1000" />

<glyph glyph-name="unfold-more" unicode="&#xf044;" d="M500-40l-203 204 60 60 143-144 143 144 60-60z m-143 514l-60 59 203 204 203-204-60-59-143 143z" horiz-adv-x="1000" />

<glyph glyph-name="unfold-less" unicode="&#xf045;" d="M357 2l-59 60 202 202 202-202-59-60-143 143z m143 435l-202 202 59 59 143-143 143 143 59-59z" horiz-adv-x="1000" />

<glyph glyph-name="unfold-more-double" unicode="&#xf046;" d="M500-151l-181 183 50 50 132-131 132 132 50-50z m0 208l-181 183 50 50 132-132 132 133 50-49z m-131 352l-51 50 182 184 183-184-51-50-132 132z m0 208l-51 50 182 182 183-181-51-51-132 131z" horiz-adv-x="1000" />

<glyph glyph-name="unfold-less-double" unicode="&#xf047;" d="M369-150l-50 51 181 182 183-183-50-51-132 132z m0 208l-50 51 181 182 183-184-50-50-132 133z m131 351l-182 183 51 51 131-131 132 131 51-51z m0 208l-182 183 51 49 131-130 132 130 51-50z" horiz-adv-x="1000" />

<glyph glyph-name="align-center" unicode="&#xf048;" d="M458-101v197l-79-80-60 60 181 180 181-180-60-60-79 80v-197z m-302 409v84h688v-84z m344 136l-181 180 60 60 79-79v196h84v-196l79 79 60-60z" horiz-adv-x="1000" />

<glyph glyph-name="compress" unicode="&#xf049;" d="M462-80v161l-81-79-54 54 172 170 170-170-54-54-78 80v-162z m-294 363v63h665v-63z m0 126v63h665v-63z m331 120l-171 171 54 53 78-81v163h75v-163l81 81 54-53z" horiz-adv-x="1000" />

<glyph glyph-name="size" unicode="&#xf04a;" d="M500-40l-187 188 60 60 85-86v456l-85-86-60 60 187 188 188-188-61-60-85 86v-456l85 86 61-60z" horiz-adv-x="1000" />

<glyph glyph-name="outward" unicode="&#xf04b;" d="M277 569l223 222 223-222-59-60-122 122 0-239-84 0-1 240-122-122z m0-437l58 59 123-122 0 239 84 0 0-239 122 122 58-60-222-222z" horiz-adv-x="1000" />

<glyph glyph-name="over-left" unicode="&#xf04c;" d="M500 48q52 0 89 36t36 89q0 52-36 89t-89 36q-52 0-88-36t-37-89q0-52 37-89t88-36z m346 323q-22 127-119 209-97 83-226 83-82 0-153-36t-117-96v141h-83v-301h302v82h-170q34 57 92 92 58 35 128 35 95 0 168-59 73-59 94-150z" horiz-adv-x="1000" />

<glyph glyph-name="over-right" unicode="&#xf04d;" d="M500 48q-52 0-88 36t-37 89q0 52 37 89t88 36q52 0 89-36t36-89q0-52-36-89t-89-36z m-346 323q22 127 119 209 97 83 226 83 82 0 153-36t117-96v141h83v-301h-302v82h170q-33 57-92 92-58 35-128 35-95 0-168-59-73-59-93-150z" horiz-adv-x="1000" />

<glyph glyph-name="shuffle" unicode="&#xf04e;" d="M600 0v75h121l-181 180 53 54 183-180v122h76v-251z m-399-3l-52 54 574 575h-123v75h252v-251h-76v121z m207 394l-259 259 53 54 261-258z" horiz-adv-x="1000" />

<glyph glyph-name="repeat" unicode="&#xf04f;" d="M292-72l-172 172 172 172 49-51-87-87h472v167h69v-235h-541l87-87z m-87 471v235h542l-88 87 49 51 172-172-172-172-49 51 88 87h-473v-167z" horiz-adv-x="1000" />

<glyph glyph-name="rotate-left" unicode="&#xf050;" d="M453-87q-54 8-104 28-50 19-93 54l61 59q32-25 66-38 35-13 70-19z m94 0v84q112 23 186 107 74 84 74 202 0 126-84 216t-210 91h-18l71-71-61-61-173 174 173 174 61-59-74-74h20q79 0 148-31t120-84q51-53 81-124 30-70 30-151 0-151-98-260t-246-133z m-356 146q-32 42-52 93-20 51-26 107h83q5-38 19-73 13-35 36-66z m-78 294q6 54 26 104t52 95l61-57q-23-35-37-70-14-35-19-72z" horiz-adv-x="1000" />

<glyph glyph-name="rotate-right" unicode="&#xf051;" d="M549-87v84q35 6 70 19 34 13 66 38l61-59q-43-35-93-54-50-20-104-28z m-94 0q-149 23-246 133t-96 260q0 81 29 151t80 124q51 53 120 84 70 31 149 31h19l-73 74 60 59 173-174-173-174-60 61 71 71h-18q-126 0-211-91t-84-216q0-118 74-202 74-84 186-107z m357 146l-61 61q23 31 37 66 13 35 18 73h85q-8-56-28-107t-51-93z m79 294h-85q-5 37-19 72-14 35-37 70l62 57q32-45 52-95t27-104z" horiz-adv-x="1000" />

<glyph glyph-name="left" unicode="&#xf052;" d="M502 2q144 0 246 102t102 246q0 144-102 246-102 103-246 103-93 0-162-37-70-38-121-104v141h-69v-286h287v68h-173q40 61 99 98t139 37q112 0 189-77 77-77 77-189 0-111-77-188-77-78-189-78-83 0-154 48-71 48-99 127h-85q31-115 125-186 93-71 213-71z" horiz-adv-x="1000" />

<glyph glyph-name="right" unicode="&#xf053;" d="M498 2q-144 0-246 102t-102 246q0 144 102 246 102 103 246 103 93 0 162-37 70-38 121-104v141h69v-286h-286v68h173q-41 61-100 98t-139 37q-111 0-189-77-77-77-77-189 0-111 77-188 78-78 189-78 83 0 154 48 71 48 99 127h86q-32-115-125-186-94-71-214-71z" horiz-adv-x="1000" />

<glyph glyph-name="backup-left" unicode="&#xf054;" d="M500 266q-35 0-60 24t-25 60q0 34 25 59 25 25 59 25 35 0 60-24t25-60q0-35-25-60t-59-24z m-1-306q-161 0-276 115t-113 276h83q0-128 89-218 90-90 217-90 129 0 218 89 89 90 89 218 0 128-89 218-89 89-218 89-66 0-125-28t-104-77h96v-70h-229v228h69v-104q58 64 134 99 76 36 159 36 81 0 153-32 71-31 124-83 52-53 83-124t31-152q0-81-31-152t-83-123q-53-53-124-84-72-31-153-31z" horiz-adv-x="1000" />

<glyph glyph-name="backup-right" unicode="&#xf055;" d="M500 266q35 0 60 24t25 60q0 34-25 59-25 25-59 25-35 0-60-24t-25-60q0-35 25-60t59-24z m1-306q162 0 276 115t113 276h-83q0-128-89-218-90-90-217-90-129 0-218 89-89 90-89 218 0 128 89 218 89 89 218 89 66 0 125-28t104-77h-96v-70h230v228h-70v-104q-57 64-134 99-76 36-159 36-81 0-153-32-71-31-123-83-53-53-84-124t-31-152q0-81 31-152t84-123q52-53 123-84 72-31 153-31z" horiz-adv-x="1000" />

<glyph glyph-name="clock-left" unicode="&#xf056;" d="M496-40q-162 0-274 115t-113 276h84q0-128 88-218 88-90 215-90 130 0 220 91 90 91 90 221 0 127-91 215-91 87-219 87-66 0-124-28-58-29-103-77h98v-70h-230v228h68v-104q57 63 132 99 75 36 159 36 81 0 152-31 72-31 126-83 54-53 85-123 31-71 31-152 0-81-31-152-31-72-85-125t-126-84q-71-31-152-31z m131 217l-160 158v227h68v-197l142-138z" horiz-adv-x="1000" />

<glyph glyph-name="clock-right" unicode="&#xf057;" d="M503-40q-80 0-152 31-72 31-125 84-53 53-84 125t-32 152q0 81 32 152 31 70 84 123 53 52 125 83t153 31q84 0 159-36 75-36 132-99v104h69v-228h-231v70h98q-44 48-103 77-59 28-124 28-129 0-220-87-90-88-90-215 0-130 90-221t220-91q127 0 215 90t88 218h84q0-162-113-276-112-115-275-115z m124 217l-160 158v227h68v-197l142-138z" horiz-adv-x="1000" />

<glyph glyph-name="refresh-left" unicode="&#xf058;" d="M512-121l-49 48 86 86-13-1q-88-8-155 14-67 22-123 78-83 83-97 200-14 116 45 219l60-60q-37-75-22-158t73-142q45-45 95-61 49-16 102-12l32 7-83 84 49 48 175-175z m283 298l-60 60q38 76 22 159t-74 141q-34 34-86 52t-106 19l-34-2 83-84-50-49-175 175 175 176 49-49-86-86 15 0q87 3 158-23 71-25 116-70 83-83 98-200 14-116-45-219z" horiz-adv-x="1000" />

<glyph glyph-name="refresh-right" unicode="&#xf059;" d="M203 178q-25 40-36 82-11 43-11 89 0 139 101 241t239 102h45l-76 76 44 46 164-164-164-162-45 45 75 75h-42q-105 0-181-76-76-77-76-183 0-32 6-60 6-29 16-52z m286-295l-164 163 164 164 45-45-77-76h46q105 0 181 76 76 77 76 183 0 32-5 60-6 29-17 52l58 59q25-41 36-83 12-42 12-88 0-139-101-241t-238-102h-48l77-76z" horiz-adv-x="1000" />

<glyph glyph-name="cycle" unicode="&#xf05a;" d="M355 45q-120 44-196 149-76 106-76 240 0 29 5 58t14 57l-60-35-42 69 198 115 114-196-71-42-51 87q-11-28-17-57t-5-58q0-111 64-197t166-118z m297 518v83h100q-46 57-112 88t-140 32q-65 0-120-23-56-23-99-63l-42 74q53 44 119 69t141 26q86 0 164-34 78-34 135-95v72h83v-229z m-29-637l-197 114 115 197 69-42-47-86q116 20 193 111 76 92 76 212 0 18-2 35-2 16-6 33h83q5-17 7-33 2-17 2-34 0-143-88-255t-226-146l64-36z" horiz-adv-x="1000" />

<glyph glyph-name="laps" unicode="&#xf05b;" d="M375-35l-59 58 67 68h-31q-119 4-199 92-80 89-80 209 0 125 87 213t212 89h256q125 0 212-89 87-88 87-213t-86-214q-87-88-211-88v83q90 0 152 64 62 64 62 155 0 91-62 155t-153 63h-258q-91 0-153-63-62-64-62-155 0-85 55-148 55-63 138-69l29 4-61 61 58 58 167-166z" horiz-adv-x="1000" />

<glyph glyph-name="swap" unicode="&#xf05c;" d="M325 322v315l-115-115-58 57 216 216 215-216-58-57-117 116v-316z m307-415l-215 217 58 56 115-114v315h83v-316l117 115 58-57z" horiz-adv-x="1000" />

<glyph glyph-name="compare" unicode="&#xf05d;" d="M152 533l58 59 116-117 0 316 83 0 0-316 116 117 58-59-215-215z m265-366l215 215 216-215-58-59-116 116 0-315-83 0 0 315-116-116z" horiz-adv-x="1000" />

<glyph glyph-name="sync" unicode="&#xf05e;" d="M90 562l219 219 221-221-57-58-122 121 0-662-82 0 0 662-121-120z m380-423l57 58 121-120 0 662 82 0 0-662 122 121 58-58-220-221z" horiz-adv-x="1000" />

<glyph glyph-name="multisort" unicode="&#xf05f;" d="M132 563l193 193 194-193-59-58-93 94 0-284-83 0 0 284-93-94z m148-355q0 18 14 31 13 13 31 13 19 0 32-13 13-13 13-31 0-19-13-32t-32-13q-18 0-31 13t-14 32z m0-153q0 19 14 32 13 13 31 13 19 0 32-13 13-13 13-32 0-18-13-31t-32-12q-18 0-31 12t-14 31z m201 83l59 57 93-94 0 284 84 0 0-284 93 94 58-57-193-194z m149 507q0 18 14 31 13 13 31 13 19 0 32-13 13-13 13-31 0-20-13-33t-32-13q-18 0-31 13t-14 33z m0-153q0 18 14 31 13 14 31 14 19 0 32-14 13-13 13-31 0-19-13-32t-32-12q-18 0-31 12t-14 32z" horiz-adv-x="1000" />

<glyph glyph-name="input-circle" unicode="&#xf060;" d="M500 506l-208-208 58-58 108 108v-430h84v430l108-108 58 58z m-358-382q-33 51-49 108t-17 118q0 88 33 165 34 78 91 135 57 57 135 91 78 33 165 33 88 0 165-33 78-34 135-91 57-57 91-135 33-77 33-165 0-60-17-118-16-57-49-108l-61 59q22 40 33 82t12 85q0 143-100 242t-242 100q-142 0-241-100-100-99-100-242 0-44 11-86t33-81z" horiz-adv-x="1000" />

<glyph glyph-name="output-circle" unicode="&#xf061;" d="M500 782l208-208-58-58-108 108v-430l-84 0 0 430-108-108-58 58z m358-206q33-51 49-108t17-118q0-87-33-165-34-78-91-135-57-57-135-91-77-33-165-33-87 0-165 33-78 34-135 91-57 57-91 135-33 78-33 165 0 60 17 118 16 57 49 108l61-59q-22-40-33-82t-12-85q0-143 100-242t242-100q142 0 241 100 100 99 100 242 0 44-11 86t-33 81z" horiz-adv-x="1000" />

<glyph glyph-name="in-vertical" unicode="&#xf062;" d="M855 1q0-33-24-58-25-24-59-24l-167 0 0 82 167 0 0 698-544 0 0-698 169 0 0-82-169 0q-34 0-59 24-24 25-24 58l0 698q0 34 24 59 25 24 59 24l544 0q34 0 59-24 24-25 24-59z m-153 328l-58-58-101 100 0-452-84 0 0 452-101-100-58 58 201 201z" horiz-adv-x="1000" />

<glyph glyph-name="in-horizontal" unicode="&#xf063;" d="M849 698q33 0 58-25 24-24 24-57l0-532q0-34-24-58-25-25-58-25h-245l0 83h245l0 532-698 0 0-532 245 0 0-83-245 0q-34 0-59 25-24 24-24 58l0 532q0 33 24 57 25 25 59 25z m-349-193l223-222-59-59-122 122 0-345-84 0 0 345-121-122-60 59z" horiz-adv-x="1000" />

<glyph glyph-name="in-box" unicode="&#xf064;" d="M890 43q0-34-25-58-24-25-58-25l-203 0 0 83 203 0 0 614-616 0 0-614 205 0 0-83-205 0q-35 0-59 25-25 24-25 58l0 614q0 35 25 59 24 25 59 25l616 0q34 0 58-25 25-24 25-59z m-171 246l-61-62-116 117 0-384-84 0 0 384-116-117-61 62 219 218z" horiz-adv-x="1000" />

<glyph glyph-name="place-item" unicode="&#xf065;" d="M816 745q35 0 59-24 24-24 24-58v-456q0-34-24-58t-59-24h-212l0 82 212 0 0 456-632 0 0-456h212l0-82-212 0q-35 0-59 24-24 24-24 58l0 456q0 34 24 58t59 24z m-316-207l193-193-59-60-92 94 0-529-84 0 0 529-92-94-59 60z" horiz-adv-x="1000" />

<glyph glyph-name="enable" unicode="&#xf066;" d="M500 777q89 0 166-34 78-34 136-91 57-58 91-136 34-77 34-166 0-147-90-261-90-114-233-153v83q110 33 178 124 69 91 69 207 0 146-103 248-102 103-248 103-146 0-248-103-103-102-103-248 0-116 69-207 69-91 178-124v-83q-143 39-233 153-90 114-90 261 0 89 34 166 34 78 91 136 58 57 136 91 78 34 166 34z m0-260l223-223-58-59-123 124 0-433-84 0 0 433-123-124-58 59z" horiz-adv-x="1000" />

<glyph glyph-name="open-in-new" unicode="&#xf067;" d="M193-40q-34 0-58 25-25 24-25 58v614q0 35 25 59 24 25 58 25h285v-84h-285v-614h614v285h84v-285q0-34-25-58-24-25-59-25z m219 243l-58 59 396 395h-209v84h350v-350h-84v208z" horiz-adv-x="1000" />

<glyph glyph-name="reply" unicode="&#xf068;" d="M805 48v192q0 53-37 89-37 36-89 36h-409l151-150-58-59-250 250 250 250 58-58-151-150h409q87 0 148-60t61-148v-192z" horiz-adv-x="1000" />

<glyph glyph-name="reply-all" unicode="&#xf069;" d="M317 135l-260 261 260 260 59-59-201-201 201-201z m542-87v173q0 59-37 96t-96 37h-295l161-159-59-60-260 261 260 260 59-59-161-159h295q92 0 154-63 62-62 62-154v-173z" horiz-adv-x="1000" />

<glyph glyph-name="forward" unicode="&#xf06a;" d="M113 48v192q0 86 60 147t148 61h409l-151 150 59 58 250-250-250-250-59 59 151 150h-409q-52 0-89-37t-36-88v-192z" horiz-adv-x="1000" />

<glyph glyph-name="forward-all" unicode="&#xf06b;" d="M683 135l260 261-260 260-59-59 201-201-201-201z m-542-87v173q0 59 37 96t96 37h295l-161-159 59-60 260 261-260 260-59-59 161-159h-295q-92 0-154-63-62-62-62-154v-173z" horiz-adv-x="1000" />

<glyph glyph-name="fd-left" unicode="&#xf06c;" d="M931 698v-306l-391 0 0 306z m0-390l0-307-391 0 0 307z m-82-83l-226 0 0-141h226z m-617 473l213-207-63-59-109 108 0-539-82 0 0 539-109-108-59 59z" horiz-adv-x="1000" />

<glyph glyph-name="fd-right" unicode="&#xf06d;" d="M69 698l0-306 391 0 0 306z m0-390l0-307 391 0 0 307z m82-83l226 0 0-141h-226z m617 473l-213-207 63-59 109 108 0-539 82 0 0 539 109-108 59 59z" horiz-adv-x="1000" />

<glyph glyph-name="open-in-browser" unicode="&#xf06e;" d="M193-40q-34 0-58 25-25 24-25 58v614q0 35 25 59 24 25 58 25h614q35 0 59-25 25-24 25-59v-614q0-34-25-58-24-25-59-25h-203v83h203v545h-614v-545h203v-83z m265 0v288l-79-80-59 59 180 180 180-180-59-59-79 80v-288z" horiz-adv-x="1000" />

<glyph glyph-name="tab-move" unicode="&#xf06f;" d="M193-40q-34 0-58 25-25 24-25 58v176h78v-181h625v568h-625v-180h-78v231q0 35 25 59 24 25 58 25h614q35 0 59-25 25-24 25-59v-614q0-34-25-58-24-25-59-25z m286 175l-58 58 87 88h-398v83h398l-87 87 58 58 188-187z" horiz-adv-x="1000" />

<glyph glyph-name="zoom-in1" unicode="&#xf070;" d="M151-58l-59 59 143 144h-125v82h267v-267h-82v125z m698 0l-143 143v-125h-83v267h268v-82h-126l143-144z m-739 531v83h125l-143 143 59 59 144-143v126h82v-268z m513 0v268h83v-126l144 144 59-59-144-144h126v-83z" horiz-adv-x="1000" />

<glyph glyph-name="zoom-out1" unicode="&#xf071;" d="M110-40v267h83v-125l144 144 59-59-144-144h125v-83z m513 0v83h125l-143 142 60 60 142-143v125h84v-267z m-288 495l-142 143v-125h-83v268h267v-84h-125l143-142z m330 0l-60 60 143 142h-125v84h268v-268h-84v125z" horiz-adv-x="1000" />

<glyph glyph-name="move" unicode="&#xf072;" d="M500-94l-184 185 60 59 82-82v182h84v-182l82 82 60-59z m-265 265l-179 179 181 180 59-60-78-78h182v-84h-182l77-77z m530 0l-60 60 77 77h-181v84h181l-77 77 60 60 179-179z m-307 280v181l-77-77-60 60 179 179 179-179-60-60-77 77v-181z" horiz-adv-x="1000" />

<glyph glyph-name="cell-merge" unicode="&#xf073;" d="M114 737l240 0 0-83-158 0 0-158-82 0z m0-533l82 0 0-158 158 0 0-83-240 0z m230 349l55 56 63-61 0 230 78 0 0-230 61 61 55-56-156-155z m0-407l156 156 156-156-55-56-61 62 0-230-78 0 0 230-63-62z m302 591l241 0 0-241-83 0 0 158-158 0z m0-691l158 0 0 158 83 0 0-241-241 0z" horiz-adv-x="1000" />

<glyph glyph-name="trending-up" unicode="&#xf074;" d="M130 90l-59 59 319 318 174-174 227 226h-128v83h266v-267h-81v124l-285-285-174 174z" horiz-adv-x="1000" />

<glyph glyph-name="trending-down" unicode="&#xf075;" d="M663 90v83h128l-227 226-174-174-319 318 59 59 259-258 174 174 285-286v124h81v-266z" horiz-adv-x="1000" />

<glyph glyph-name="open-in-full" unicode="&#xf076;" d="M115-35v333h83v-192l546 546h-192v83h333v-333h-83v192l-546-546h192v-83z" horiz-adv-x="1000" />

<glyph glyph-name="close-out-full" unicode="&#xf077;" d="M127-81l-58 58 290 291h-191v82h332v-332h-82v191z m373 431v333h83v-192l290 290 58-58-290-290h192v-83z" horiz-adv-x="1000" />

<glyph glyph-name="line-start" unicode="&#xf078;" d="M396 663q0 44 30 75 30 30 74 30 44 0 74-30 30-31 30-75 0-32-17-58t-45-36l0-636-84 0 0 636q-27 10-44 36-18 26-18 58z" horiz-adv-x="1000" />

<glyph glyph-name="return" unicode="&#xf079;" d="M235 473l264 264 264-264-60-59-163 164 0-533 179 0 0-83-262 0 0 615-162-163z" horiz-adv-x="1000" />

<glyph glyph-name="switch" unicode="&#xf07a;" d="M834 270l-334-335-334 335z m-203-85l-262 0 131-130z m203 245l-668 0 334 335z" horiz-adv-x="1000" />

<glyph glyph-name="swap-calls" unicode="&#xf07b;" d="M226 44l-169 169 57 56 75-75v322q0 72 51 123t124 51q71 0 123-51t51-123v-290q0-44 28-74t72-31q41 0 69 31t28 74v314l-73-74-57 55 169 169 169-169-56-55-74 74v-314q0-74-51-128t-125-53q-73 0-124 53t-50 128v290q0 41-29 70t-70 29q-42 0-71-29t-28-70v-322l74 75 56-56z" horiz-adv-x="1000" />

<glyph glyph-name="fullscreen" unicode="&#xf07c;" d="M192 42v228h82v-146h146v-82z m0 388v228h228v-82h-146v-146z m388-388v82h146v146h82v-228z m146 388v146h-146v82h228v-228z" horiz-adv-x="1000" />

<glyph glyph-name="fullscreen-exit" unicode="&#xf07d;" d="M337 42v145h-145v83h228v-228z m243 0v228h228v-83h-144v-145z m-388 388v84h145v144h83v-228z m388 0v228h84v-144h144v-84z" horiz-adv-x="1000" />

<glyph glyph-name="play-pause" unicode="&#xf07e;" d="M178 176v348l257-174z m374-11v370h83v-370z m188 0v370h82v-370z" horiz-adv-x="1000" />

<glyph glyph-name="pause" unicode="&#xf07f;" d="M588 31v638h202v-638z m-378 0v638h203v-638z" horiz-adv-x="1000" />

<glyph glyph-name="ruble" unicode="&#xf080;" d="M292-40v134h-94v82h94v106h-94v84h94v375h281q95 0 162-68 67-67 67-163 0-94-67-161t-162-67h-198v-106h177v-82h-177v-134z m83 406h198q61 0 104 41 42 42 42 103 0 63-42 105-43 42-104 42h-198z" horiz-adv-x="1000" />

<glyph glyph-name="dollar" unicode="&#xf081;" d="M468-31v88q-64 11-103 48-39 38-55 95l71 28q17-52 50-75 34-24 77-24 48 0 78 23 30 23 30 63 0 42-29 67-29 25-108 49-74 23-111 65-38 42-38 103 0 55 36 96 36 40 102 49v87h69v-87q47-7 83-34 35-27 54-70l-70-30q-14 33-39 48-24 16-63 16-45 0-70-19t-26-54q0-35 28-59 29-23 115-50 72-23 107-65 36-43 36-108 0-68-39-110t-116-53v-87z" horiz-adv-x="1000" />

<glyph glyph-name="euro" unicode="&#xf082;" d="M619-40q-121 0-224 69t-141 192h-141v82h128q-4 24-4 45 1 22 4 49h-128v83h141q40 120 142 190t223 71q78 0 145-28t124-79l-60-58q-45 40-98 61-54 20-111 20-90 0-166-49-76-50-107-128h287v-83h-310q-4-24-4-45t4-49h310v-82h-289q33-82 109-130t166-48q56 0 110 20t100 61l59-58q-51-48-121-77t-148-29z" horiz-adv-x="1000" />

<glyph glyph-name="yuan" unicode="&#xf083;" d="M458-40v288h-218v83h207l-259 410h97l215-340 215 340h98l-260-410h207v-83h-218v-288z" horiz-adv-x="1000" />

<glyph glyph-name="rupee" unicode="&#xf084;" d="M583-40l-291 307v83h149q52 0 92 31 41 32 48 91h-341v82h339q-11 46-52 75-42 28-89 28h-198v84h520v-84h-155q21-16 37-47 16-31 24-56h94v-82h-94q-11-94-72-148-61-54-144-56h-45l293-308z" horiz-adv-x="1000" />

<glyph glyph-name="pound" unicode="&#xf085;" d="M239-40v84q35 20 58 41 23 22 37 45 14 22 20 45 5 23 5 45 0 12-1 24-1 11-4 23h-115v83h73q-38 54-50 97-13 43-13 85 0 95 67 162 66 68 162 68 75 0 134-39 59-38 86-103l-76-31q-19 41-58 65t-86 24q-60 0-103-42-43-42-43-104 0-39 14-78t64-104h183v-83h-155q2-12 3-24 2-13 2-23 0-51-22-97t-57-80h218q36 0 64 20 29 19 42 68l75-31q-16-69-69-104-52-36-112-36z" horiz-adv-x="1000" />

<glyph glyph-name="yen" unicode="&#xf086;" d="M458-40v152h-218v82h218v94h-218v83h180l-233 370h98l215-342 216 342h98l-234-370h180v-83h-218v-94h218v-82h-218v-152z" horiz-adv-x="1000" />

<glyph glyph-name="lira" unicode="&#xf087;" d="M375-40v228l-135-85v98l135 84v102l-135-85v98l135 85v256h83v-203l177 110v-98l-177-111v-101l177 110v-96l-177-111v-197h20q85 4 141 63 56 59 58 144h83q-2-124-86-207-84-84-205-84z" horiz-adv-x="1000" />

<glyph glyph-name="franc" unicode="&#xf088;" d="M292-40v136h-94v82h94v563h468v-84h-385v-265h344v-84h-344v-130h167v-82h-167v-136z" horiz-adv-x="1000" />

<glyph glyph-name="bitcoin" unicode="&#xf089;" d="M371-40v94h-136v83h94v427h-94v83h136v94h82v-94h104v94h84v-100q58-15 92-61 34-47 34-103 0-28-11-57t-30-52q40-22 61-62 21-39 21-83 0-68-45-117-45-49-112-52h-10v-94h-84v94h-104v-94z m41 432h187q35 0 60 25t25 60q0 37-25 62-25 25-60 25h-187z m0-255h229q35 0 60 25t25 61q0 35-25 60t-60 25h-229z" horiz-adv-x="1000" />

<glyph glyph-name="monitoring" unicode="&#xf08a;" d="M115-35v93l81 81v-174z m173 0v261l80 80v-341z m172 0v341l81-81v-260z m172 0v261l82 80v-341z m173 0v429l80 80v-509z m-690 235v117l302 300 166-167 302 303v-118l-302-303-166 167z" horiz-adv-x="1000" />

<glyph glyph-name="balance" unicode="&#xf08b;" d="M69-39v83h389v495q-25 9-45 29-20 21-30 47h-149l125-303q-1-53-43-89-42-35-101-35-61 0-103 35-43 36-43 89l125 303h-84v82h273q15 37 46 60 31 23 71 23t71-23q31-23 46-60h274v-82h-85l126-303q-1-53-43-89-43-35-102-35-61 0-103 35t-43 89l125 303h-149q-10-26-30-47-20-20-45-29v-495h390v-83z m646 358h142l-70 176z m-572 0h142l-71 176z m357 287q21 0 35 15t14 35q0 20-14 34t-35 14q-20 0-34-14t-15-34q0-19 15-35 14-15 34-15z" horiz-adv-x="1000" />

<glyph glyph-name="low-priority" unicode="&#xf08c;" d="M328-27l-48 48 67 69q-118-2-203 79t-86 202q0 116 81 198 80 83 195 83h180v-83h-180q-81 0-137-59-56-58-56-139 0-87 63-144t148-55l-69 70 48 49 158-159z m273 117v83h341v-83z m0 239v84h341v-84z m-25 240v83h366v-83z" horiz-adv-x="1000" />

<glyph glyph-name="high-priority" unicode="&#xf08d;" d="M328 727l-48-48 67-69q-118 3-203-79t-86-202q0-115 81-198 80-83 195-83h180v83h-180q-81 0-137 59-56 58-56 139 0 87 63 144t148 55l-69-70 48-49 158 159z m273-117v-83h341v83z m0-239v-83h341v83z m-25-240v-83h366v83z" horiz-adv-x="1000" />

<glyph glyph-name="glyphs" unicode="&#xf08e;" d="M233 763h73l137-363h-76l-24 67h-147l-23-67h-76z m1-415q46 0 79-32 32-33 32-78 0-28-13-51-13-23-34-39l-17-14 44-41 74 74 52-51-74-74 55-56-51-50-55 55-32-33q-19-18-41-29-22-11-47-11-46 0-78 29-32 30-32 76 0 24 9 46 10 23 29 38l44 33-21 20q-15 16-25 35-9 20-9 43 0 45 32 78 33 32 79 32z m-8-256l-42-32q-7-7-12-16-5-10-5-20 0-16 11-25 12-9 27-9 11 0 20 6 9 6 17 13l33 34z m7 184q-16 0-28-11t-11-27q0-10 3-17 4-7 9-13l26-25 14 11q11 9 20 20 8 10 8 24 0 15-12 27t-29 11z m35 390l-47-131h97l-46 131z m471 140q8-14 13-29 4-15 10-31l-54-15 217-1v-71h-79q-12-37-34-69t-48-62q30-22 65-37t71-24l-18-68q-47 10-89 31-43 20-80 51-38-30-80-50-42-21-89-32l-16 68q37 8 71 24t65 38q-26 29-48 61t-35 69h-81v71h189q-4 15-8 29t-11 29z m111-480l50-50-330-331-52 50z m-241-30q23 0 39-16 17-16 17-40t-17-40q-16-17-39-17-25 0-41 17-16 16-16 40t16 40q16 16 41 16z m50 363q9-25 22-46 14-21 35-38 18 17 31 39 13 21 21 45z m159-571q23 0 39-17 16-16 16-40t-16-40q-16-16-39-16-25 0-41 16-17 16-17 40t17 40q16 17 41 17z" horiz-adv-x="1000" />

<glyph glyph-name="cart" unicode="&#xf08f;" d="M302-73q-31 0-53 22-22 22-22 53 0 31 22 53 22 22 53 22 31 0 53-22 22-23 22-53 0-31-22-53-22-22-53-22z m421 0q-31 0-53 22-22 22-22 53 0 31 22 53 22 22 53 22 31 0 53-22 22-23 22-53 0-31-22-53-22-22-53-22z m-421 216q-48 0-70 38-22 39 0 78l63 113-153 326h-84v75h133l173-372h302l159 284 67-34-159-286q-10-18-27-29t-42-11h-309l-60-107h509v-75z" horiz-adv-x="1000" />

<glyph glyph-name="area" unicode="&#xf090;" d="M891 127l-401 313-166-232-214 172v208l179-134 208 292 217-172h177z m-781-125v298l227-180 166 230 388-302v-46z" horiz-adv-x="1000" />

<glyph glyph-name="bar" unicode="&#xf091;" d="M158 6v479h163v-479z m261 0v688h162v-688z m260 0v313h163v-313z" horiz-adv-x="1000" />

<glyph glyph-name="bubble" unicode="&#xf092;" d="M263 92q-72 0-122 50-50 50-50 122 0 70 50 120t122 50q70 0 120-50t50-120q0-72-50-122-50-50-120-50z m434 187q-100 0-170 70-70 70-70 169t70 169q70 70 170 70 100 0 169-69t69-170q0-99-69-169-69-70-169-70z m-91-338q-53 0-90 38-38 39-38 92 0 54 38 92 37 37 91 37 53 0 91-38 39-38 39-91t-39-92q-38-38-92-38z" horiz-adv-x="1000" />

<glyph glyph-name="candlestick" unicode="&#xf093;" d="M281 6v94h-83v500h83v94h84v-94h83v-500h-83v-94z m354 0v219h-83v292h83v177h84v-177h83v-292h-83v-219z" horiz-adv-x="1000" />

<glyph glyph-name="donut" unicode="&#xf094;" d="M470-79q-170 13-285 136-115 123-115 293 0 171 115 294t285 136v-121q-120-10-202-99-81-89-81-210 0-123 81-211t202-97z m62 0v121q113 8 190 87 78 78 92 190h117q-12-162-125-274t-274-124z m282 460q-12 112-91 191-78 79-191 88v121q162-12 274-125 113-113 125-275z" horiz-adv-x="1000" />

<glyph glyph-name="donut-fat" unicode="&#xf095;" d="M609 392q-8 23-26 39-17 16-41 23v326q156-15 265-124t123-264z m-153-472q-165 15-276 137t-110 289q0 168 110 293t276 141v-326q-32-13-52-43-20-30-20-65 0-33 20-62t52-40z m86 0v324q24 7 42 23t25 39h321q-15-154-124-263t-264-123z" horiz-adv-x="1000" />

<glyph glyph-name="full-stacked-bar" unicode="&#xf096;" d="M158 6v131h163v-131z m0 193v142h163v-142z m0 204v291h163v-291z m261-397v291h162v-291z m0 353v143h162v-143z m0 206v129h162v-129z m260-559v76h163v-76z m0 149v142h163v-142z m0 204v335h163v-335z" horiz-adv-x="1000" />

<glyph glyph-name="grouped" unicode="&#xf097;" d="M158 6v521h164v-521z m233 0v313h162v-313z m288 0v688h164v-688z" horiz-adv-x="1000" />

<glyph glyph-name="multiline" unicode="&#xf098;" d="M130 67l-57 58 321 321 172-172 138 156q-62 70-139 109t-168 38q-75 0-143-27t-124-76l-58 59q67 60 149 94 82 33 176 33 105 0 198-45 94-45 164-124l112 126 57-59-120-135q37-53 60-122t33-143h-83q-6 55-23 104-17 50-44 96l-182-204-175 176z" horiz-adv-x="1000" />

<glyph glyph-name="pie" unicode="&#xf099;" d="M542 392v326q128-13 220-105t106-221z m-84-410q-140 16-233 122t-94 246q0 141 94 246 93 106 233 122z m84 0v326h326q-15-128-106-221-92-93-220-105z" horiz-adv-x="1000" />

<glyph glyph-name="show" unicode="&#xf09a;" d="M131 65l-62 62 327 327 166-166 310 349 59-58-367-415-168 165z" horiz-adv-x="1000" />

<glyph glyph-name="ssid" unicode="&#xf09b;" d="M500-45l-258 250-132-93v101l140 100 255-248 175 139h211v-82h-184z m0 416l-182 182-208-151v102l216 158 182-183 383 276v-102z" horiz-adv-x="1000" />

<glyph glyph-name="stacked-bar" unicode="&#xf09c;" d="M158 6v464h163v-464z m0 526v164h163v-164z m261-526v339h162v-339z m0 401v164h162v-164z m260-401v214h163v-214z m0 276v164h163v-164z" horiz-adv-x="1000" />

<glyph glyph-name="stacked-line" unicode="&#xf09d;" d="M146-85l-63 62 327 327 166-167 311 348 59-56-368-415-168 165z m0 298l-63 62 327 326 166-167 311 349 59-57-368-414-168 165z" horiz-adv-x="1000" />

<glyph glyph-name="timeline" unicode="&#xf09e;" d="M121 94q-36 0-61 25t-25 61q0 36 25 61 25 26 61 26 6 0 12-1t17-3l184 183q-2 10-3 17-1 6-1 12 0 37 26 62 25 25 61 25 36 0 61-26 25-26 25-61 0-5-4-27l98-99q10 2 16 3 6 1 12 1 6 0 13-1t15-3l143 143q-2 9-3 16 0 7 0 13 0 35 25 60t61 25q36 0 61-25t25-60q0-37-25-62-25-25-61-25-6 0-13 1t-16 3l-143-143q2-10 3-16 2-6 2-13 0-35-26-60t-61-26q-35 0-61 26-25 25-25 61 0 6 1 12t3 17l-97 97q-11-2-17-3-6-1-12-1-5 0-27 4l-186-186q2-10 3-16 1-6 1-12 0-35-25-60t-62-25z" horiz-adv-x="1000" />

<glyph glyph-name="waterfall" unicode="&#xf09f;" d="M91 20v282h118v-282z m176 240v180h117v-180z m175 221v182h116v-182z m174 91v138h118v-138z m176-552v690h117v-690z" horiz-adv-x="1000" />

<glyph glyph-name="code" unicode="&#xf0a0;" d="M327 88l-264 264 266 267 60-59-208-207 206-205z m344-3l-58 59 207 207-205 205 58 61 265-265z" horiz-adv-x="1000" />

<glyph glyph-name="align-left" unicode="&#xf0a1;" d="M88-63v84h825v-84z m0 186v83h556v-83z m0 185v84h825v-84z m0 186v83h556v-83z m0 185v84h825v-84z" horiz-adv-x="1000" />

<glyph glyph-name="align-center1" unicode="&#xf0a2;" d="M88-63v84h825v-84z m170 186v83h485v-83z m-170 185v84h825v-84z m170 186v83h485v-83z m-170 185v84h825v-84z" horiz-adv-x="1000" />

<glyph glyph-name="align-right" unicode="&#xf0a3;" d="M88-63v84h825v-84z m269 186v83h556v-83z m-269 185v84h825v-84z m269 186v83h556v-83z m-269 185v84h825v-84z" horiz-adv-x="1000" />

<glyph glyph-name="image-left" unicode="&#xf0a4;" d="M91-63v84h818v-84z m0 176v475h474v-475z m0 566v84h818v-84z m82-483h309v309h-309z m479-73v83h257v-83z m0 185v84h257v-84z m0 186v83h257v-83z" horiz-adv-x="1000" />

<glyph glyph-name="image-right" unicode="&#xf0a5;" d="M91-63v84h818v-84z m0 186v83h257v-83z m0 185v84h257v-84z m0 186v83h257v-83z m0 185v84h818v-84z m344-566v475h474v-475z m83 83h309v309h-309z" horiz-adv-x="1000" />

<glyph glyph-name="indent-increase" unicode="&#xf0a6;" d="M88-63v84h825v-84z m0 246v336l171-166z m0 496v84h825v-84z m364-556v83h461v-83z m0 185v84h461v-84z m0 186v83h461v-83z" horiz-adv-x="1000" />

<glyph glyph-name="indent-decrease" unicode="&#xf0a7;" d="M92-63v84h821v-84z m360 186v83h461v-83z m-188 60l-172 170 172 166z m188 125v84h461v-84z m0 186v83h461v-83z m-360 185v84h821v-84z" horiz-adv-x="1000" />

<glyph glyph-name="vertical-distribute" unicode="&#xf0a8;" d="M73-77v83h854v-83z m208 365v125h438v-125z m-208 406v83h854v-83z" horiz-adv-x="1000" />

<glyph glyph-name="horizontal-distribute" unicode="&#xf0a9;" d="M73-77v854h83v-854z m365 208v438h125v-438z m406-208v854h83v-854z" horiz-adv-x="1000" />

<glyph glyph-name="border-clear" unicode="&#xf0aa;" d="M119-30v75h75v-75z m0 172v75h75v-75z m0 172v75h75v-75z m0 171v75h75v-75z m0 172v75h75v-75z m172-687v75h75v-75z m0 344v75h75v-75z m0 343v75h75v-75z m172-687v75h75v-75z m0 172v75h75v-75z m0 172v75h75v-75z m0 173v75h75v-75z m0 170v75h75v-75z m171-687v75h75v-75z m0 344v75h75v-75z m0 343v75h75v-75z m172-687v75h75v-75z m0 172v75h75v-75z m0 172v75h75v-75z m0 171v75h75v-75z m0 172v75h75v-75z" horiz-adv-x="1000" />

<glyph glyph-name="border-top" unicode="&#xf0ab;" d="M119-31v75h75v-75z m0 172v75h75v-75z m0 172v75h75v-75z m0 171v75h75v-75z m0 172v75h762v-75z m172-687v75h75v-75z m0 344v75h75v-75z m172-344v75h75v-75z m0 172v75h75v-75z m0 172v75h75v-75z m0 171v75h75v-75z m171-515v75h75v-75z m0 344v75h75v-75z m172-344v75h75v-75z m0 172v75h75v-75z m0 172v75h75v-75z m0 171v75h75v-75z" horiz-adv-x="1000" />

<glyph glyph-name="border-middle" unicode="&#xf0ac;" d="M119-31v75h75v-75z m0 172v75h75v-75z m0 172v75h75v-75z m0 171v75h75v-75z m0 172v75h75v-75z m172-687v75h75v-75z m0 344v75h75v-75z m0 343v75h75v-75z m172-687v762h75v-762z m171 0v75h75v-75z m0 344v75h75v-75z m0 343v75h75v-75z m172-687v75h75v-75z m0 172v75h75v-75z m0 172v75h75v-75z m0 171v75h75v-75z m0 172v75h75v-75z" horiz-adv-x="1000" />

<glyph glyph-name="border-inner" unicode="&#xf0ad;" d="M119-31v75h75v-75z m344 0v343h-344v75h344v345h75v-345h343v-75h-343v-343z m-172 0v75h75v-75z m343 0v75h75v-75z m172 0v75h75v-75z m-687 172v75h75v-75z m687 0v75h75v-75z m-687 343v75h75v-75z m687 0v75h75v-75z m-687 172v75h75v-75z m172 0v75h75v-75z m343 0v75h75v-75z m172 0v75h75v-75z" horiz-adv-x="1000" />

<glyph glyph-name="border-corner" unicode="&#xf0ae;" d="M119-31v762h762v-75h-687v-687z m172 0v75h75v-75z m172 0v75h75v-75z m171 0v75h75v-75z m172 0v75h75v-75z m0 172v75h75v-75z m0 172v75h75v-75z m0 171v75h75v-75z" horiz-adv-x="1000" />

<glyph glyph-name="border-outer" unicode="&#xf0af;" d="M119-31v762h762v-762z m75 75h612v612h-612z m97 269v75h75v-75z m172-172v75h75v-75z m0 172v75h75v-75z m0 171v75h75v-75z m171-171v75h75v-75z" horiz-adv-x="1000" />

<glyph glyph-name="bold" unicode="&#xf0b0;" d="M265 44v613h274q74 0 125-48 52-47 52-115 0-36-20-72-20-37-63-56v-8q54-17 78-60 24-42 24-83 0-66-53-119t-137-52z m104 87h161q30 0 64 23 34 23 34 70 0 46-33 69t-64 24h-162z m0 269h154q32 0 61 24 29 24 29 61 0 36-28 61-28 26-63 26h-153z" horiz-adv-x="1000" />

<glyph glyph-name="italic" unicode="&#xf0b1;" d="M222 43v104h143l140 413h-161v104h415v-104h-141l-141-413h162v-104z" horiz-adv-x="1000" />

<glyph glyph-name="underlined" unicode="&#xf0b2;" d="M198-40v84h604v-84z m302 160q-112 0-178 64-66 65-66 176v363h106v-360q0-66 36-104 37-37 102-37t102 37q37 38 37 104v360h105v-363q0-111-66-176-65-64-178-64z" horiz-adv-x="1000" />

<glyph glyph-name="strikethrough" unicode="&#xf0b3;" d="M528 0q-85 0-155 45-70 45-100 125l84 35q21-54 69-84 47-30 102-30 53 0 81 27t29 72q0 25-12 53-12 28-36 52h104q19-26 27-52t8-52q0-86-54-138-55-53-147-53z m-448 357v69h840v-69z m415 348q71 0 126-34 56-33 82-97l-85-34q-16 37-49 55-32 19-75 19-49 0-78-25t-29-69q0-8 1-16t3-15h-91q-2 8-3 16-1 9-1 17-1 85 55 134 56 49 144 49z" horiz-adv-x="1000" />

<glyph glyph-name="subscript" unicode="&#xf0b4;" d="M823-3v95q0 21 12 33t33 12h86v51h-131v43h131q21 0 33-12t12-31v-51q0-21-12-33t-33-12h-86v-50h131v-45z m-600 88l203 319-188 295h112l140-220h-2l139 220h113l-189-295 203-319h-112l-154 242h2l-155-242z" horiz-adv-x="1000" />

<glyph glyph-name="superscript" unicode="&#xf0b5;" d="M823 462v95q0 20 12 32t33 12h86v51h-131v45h131q21 0 33-12t12-33v-51q0-20-12-32t-33-12h-86v-51h131v-44z m-600-460l203 319-188 295h112l140-220h-2l139 220h113l-189-295 203-319h-112l-154 242h2l-155-242z" horiz-adv-x="1000" />

<glyph glyph-name="text-increase" unicode="&#xf0b6;" d="M30 58l239 584h102l236-584h-101l-57 150h-264l-57-150z m183 223h209l-102 271h-4z m545-104v136h-135v75h135v135h76v-135h136v-75h-136v-136z" horiz-adv-x="1000" />

<glyph glyph-name="text-decrease" unicode="&#xf0b7;" d="M30 58l239 584h102l236-584h-101l-57 150h-264l-57-150z m183 223h209l-102 271h-4z m425 32v75h332v-75z" horiz-adv-x="1000" />

<glyph glyph-name="text-title" unicode="&#xf0b8;" d="M438 3v570h-240v124h604v-124h-239v-570z" horiz-adv-x="1000" />

<glyph glyph-name="text-fields" unicode="&#xf0b9;" d="M289 3v576h-219v118h555v-118h-219v-576z m388 0v354h-135v118h388v-118h-135v-354z" horiz-adv-x="1000" />

<glyph glyph-name="color-text" unicode="&#xf0ba;" d="M94-150v167h812v-167z m119 305l239 584h102l236-584h-102l-57 149h-263l-58-149z m182 223h209l-102 272h-4z" horiz-adv-x="1000" />

<glyph glyph-name="color-fill" unicode="&#xf0bb;" d="M256 796l54 54 367-367q28-28 28-68 0-40-27-67l-181-182q-28-27-66-27-37 0-65 27l-181 182q-28 27-28 67t28 68l192 192z m176-176l-199-197h396z m361-496q-34 0-56 23t-23 57q0 19 8 41 9 22 25 45 9 14 21 30 12 17 25 31 12-14 25-31 12-16 22-30 14-23 24-45 9-22 9-41 0-33-24-57t-56-23z m-710-275v132h834v-132z" horiz-adv-x="1000" />

<glyph glyph-name="highlighter" unicode="&#xf0bc;" d="M153 100l130 130-4 3q-28 30-27 72 0 43 28 72l388 389q25 24 60 24t60-24l113-115q25-25 25-63-1-38-26-62l-387-387q-25-25-69-25-44 0-69 25l-10 11-50-50z m450 365z m60-59l-119 117-219-218 118-117z m-580-556v140h834v-140z" horiz-adv-x="1000" />

<glyph glyph-name="match-case" unicode="&#xf0bd;" d="M164 141l154 421h62l157-421h-61l-39 112h-174l-40-112z m115 163h139l-69 192h-1z m414-172q-44 0-73 26t-28 66q0 46 32 73 32 28 85 28 21 0 42-4t34-13v23q0 33-18 51-19 19-52 19-21 0-41-8t-37-22l-32 35q24 21 52 32 27 10 61 10 57 0 88-31 31-32 31-90v-185h-50v37h-5q-14-23-37-35t-52-12z m8 44q37 0 61 27 25 26 25 66-12 7-30 11-17 3-36 3-34 0-55-15t-21-42q0-24 15-37t41-13z" horiz-adv-x="1000" />

<glyph glyph-name="space-bar" unicode="&#xf0be;" d="M152 210v265h82v-182h532v182h83v-265z" horiz-adv-x="1000" />

<glyph glyph-name="paragraph" unicode="&#xf0bf;" d="M374 6v272h-21q-83 3-140 64t-58 143q0 87 61 148t148 61h398v-84h-94v-604h-83v604h-129v-604z" horiz-adv-x="1000" />

<glyph glyph-name="flip-to-back" unicode="&#xf0c0;" d="M182-60q-33 0-57 24-25 24-25 59v548h82v-548h549v-83z m166 170q-31 0-55 23t-23 55h78z m-78 169v100h78v-100z m0 192v100h78v-100z m0 192q0 31 23 54t55 24v-78z m170-553v78h100v-78z m0 553v78h100v-78z m191-553v78h100v-78z m0 553v78h100v-78z m192-553v78h77q0-32-23-55t-54-23z m0 169v100h77v-100z m0 192v100h77v-100z m0 192v78q31 0 54-24t23-54z" horiz-adv-x="1000" />

<glyph glyph-name="flip-to-front" unicode="&#xf0c1;" d="M182-60q-33 0-57 24-25 24-25 59h82z m-82 170v88h82v-88z m0 175v88h82v-88z m0 174v88h82v-88z m170-519v83h87v-83z m83 170q-34 0-59 25-24 24-24 58v464q0 35 24 59 25 25 59 25h465q33 0 58-25 24-24 24-59v-464q0-34-24-58-25-25-58-25z m0 83h465v464h-465v-464z m92-253v83h87v-83z m175 0v83h87v-83z" horiz-adv-x="1000" />

<glyph glyph-name="copy-all" unicode="&#xf0c2;" d="M188-87q-35 0-59 24t-24 59h83z m-83 170v88h83v-88z m0 175v88h83v-88z m0 175v88h83v-88z m0 175q0 35 24 59 24 25 59 25v-84z m170-695v83h88v-83z m83 170q-34 0-58 25-25 24-25 59v537q0 35 25 59 24 25 58 25h413q34 0 59-25 24-24 24-59v-537q0-35-24-59-25-25-59-25z m0 84h413v537h-413v-537z m92-254v83h88v-83z m175 0v83h83q0-34-24-58-25-25-59-25z" horiz-adv-x="1000" />

<glyph glyph-name="cut" unicode="&#xf0c3;" d="M810-38l-311 311-117-117q11-16 13-32t3-34q0-69-46-115t-114-45q-68 0-114 45t-46 115q0 68 46 114t114 45q17 0 34-5 18-4 36-14l116 116-118 118q-16-8-34-10t-34-3q-68 0-114 45t-46 114q0 69 45 115t115 45q68 0 114-45t46-115q0-18-2-35-2-17-11-31l538-537v-45z m-178 437l-79 78 257 256h113v-42z m-394 121q38 0 64 26t26 64q0 38-26 65-26 26-64 26-38 0-64-26-26-27-26-65 0-37 26-64 26-26 64-26z m263-204q13 0 21 9 9 8 9 21 0 12-9 21-8 9-21 9-12 0-21-9t-8-21q0-13 8-21 9-9 21-9z m-263-317q38 0 64 27t26 64q0 37-26 64-26 26-64 26-38 0-64-26-26-27-26-64 0-38 26-64 26-27 64-27z" horiz-adv-x="1000" />

<glyph glyph-name="paste" unicode="&#xf0c4;" d="M193-42q-36 0-59 24-24 23-24 60v614q0 36 24 59 23 24 59 24h194q10 37 41 61 31 24 72 24 40 0 71-24t43-61h193q36 0 60-24 24-23 24-59v-614q0-37-24-60t-60-24z m0 84h614v614h-59v-101h-496v101h-59v-614z m307 621q18 0 30 12 12 12 12 29 0 18-12 30-12 12-30 12-18 0-30-12-12-12-12-30 0-17 12-29 12-12 30-12z" horiz-adv-x="1000" />

<glyph glyph-name="crop" unicode="&#xf0c5;" d="M714-112v165h-427q-35 0-59 25-25 24-25 59v427h-164v83h164v165h84v-675h675v-84h-165v-165z m0 311v365h-365v83h365q34 0 58-25 25-24 25-58v-365z" horiz-adv-x="1000" />

<glyph glyph-name="crop-free" unicode="&#xf0c6;" d="M193-40q-34 0-58 25-25 24-25 58v174h83v-174h174v-83z m440 0v83h174v174h84v-174q0-34-25-58-24-25-59-25z m-523 523v174q0 35 25 59 24 25 58 25h174v-84h-174v-174z m697 0v174h-174v84h174q35 0 59-25 25-24 25-59v-174z" horiz-adv-x="1000" />

<glyph glyph-name="reset-image" unicode="&#xf0c7;" d="M110 437v247h69v-113q52 77 137 123 84 47 184 47 144 0 251-89t133-215h-84q-26 92-109 156-83 64-191 64-86 0-156-41-70-42-112-111h126v-68z m129-345h524l-161 217-137-178-97 133z m-46-173q-35 0-59 24t-24 58v365h83v-365h614v365h84v-365q0-34-24-58t-60-24z" horiz-adv-x="1000" />

<glyph glyph-name="grid-3x3" unicode="&#xf0c8;" d="M330 6v174h-174v83h174v175h-174v82h174v174h83v-174h175v174h82v-174h174v-82h-174v-175h174v-83h-174v-174h-82v174h-175v-174z m83 257h175v175h-175z" horiz-adv-x="1000" />

<glyph glyph-name="grid-4x4" unicode="&#xf0c9;" d="M200-91v141h-141v83h141v175h-141v84h141v175h-141v83h141v141h83v-141h175v141h84v-141h175v141h83v-141h141v-83h-141v-175h141v-84h-141v-175h141v-83h-141v-141h-83v141h-175v-141h-84v141h-175v-141z m83 224h175v175h-175z m259 0h175v175h-175z m-259 259h175v175h-175z m259 0h175v175h-175z" horiz-adv-x="1000" />

<glyph glyph-name="grid-goldenratio" unicode="&#xf0ca;" d="M373-80v296h-296v89h296v91h-296v83h296v294h82v-294h91v294h83v-294h294v-83h-294v-91h294v-89h-294v-296h-83v296h-91v-296z m82 385h91v91h-91z" horiz-adv-x="1000" />

<glyph glyph-name="line-spacing" unicode="&#xf0cb;" d="M248-13l-189 189 59 57 88-86v404l-88-86-59 57 189 188 187-188-58-57-88 86v-404l88 86 58-57z m255 41v82h438v-82z m0 280v84h438v-84z m0 282v82h438v-82z" horiz-adv-x="1000" />

<glyph glyph-name="data-array" unicode="&#xf0cc;" d="M615 6v84h145v520h-145v84h229v-688z m-459 0v688h229v-84h-145v-520h145v-84z" horiz-adv-x="1000" />

<glyph glyph-name="data-object" unicode="&#xf0cd;" d="M594 6v84h109q24 0 41 16t16 41v88q0 39 24 69 23 30 60 42v8q-37 11-60 41t-24 70v88q0 24-16 41t-41 16h-109v84h125q52 0 88-37t37-88v-89q0-24 16-40t41-17h26v-146h-26q-24 0-41-17t-16-40v-89q0-52-37-88t-88-37z m-313 0q-52 0-88 37t-37 88v89q0 24-16 40t-41 17h-26v146h26q24 0 41 17t16 40v89q0 52 37 88t88 37h125v-84h-109q-24 0-41-16t-16-41v-88q0-39-24-70t-60-41v-8q37-12 60-42t24-69v-88q0-24 16-41t41-16h109v-84z" horiz-adv-x="1000" />

<glyph glyph-name="function" unicode="&#xf0ce;" d="M412 89v75h67l130 142-130 146h-81l-73-378q-10-53-43-83-32-31-79-31t-78 28q-32 29-32 68 0 31 17 50t46 19q25 0 41-15t16-38q0-12-5-20-4-9-12-15 4-3 9-4 4-1 10-1 13 0 23 13 9 12 12 32l73 375h-139v73h153l20 98q13 56 45 87 32 31 80 31 47 0 78-27t31-68q0-31-18-51-18-19-46-19-24 0-40 14-16 14-16 37 0 10 4 19t9 16q-2 2-6 3-4 2-8 2-13 0-23-12-10-12-14-31l-19-99h211v-73h-47l84-95 78 95h-48v73h212v-73h-65l-131-146 131-142h65v-75h-212v75h48l-81 89-83-89h49v-75z" horiz-adv-x="1000" />

<glyph glyph-name="functions" unicode="&#xf0cf;" d="M237 3v86l280 261-280 262v85h527v-131h-317l227-216-227-216h317v-131z" horiz-adv-x="1000" />

<glyph glyph-name="ul" unicode="&#xf0d0;" d="M396 46v83h495v-83z m0 262v84h495v-84z m0 264v83h495v-83z m-205-564q-34 0-57 23t-24 57q0 32 24 55 23 24 57 24t55-24q23-23 23-56 0-33-23-56-23-23-55-23z m0 263q-34 0-57 23t-24 56q0 33 24 56t57 23q32 0 55-23 23-24 23-56 0-33-23-56t-55-23z m-1 263q-33 0-56 24-24 23-24 56 0 33 24 56t56 23q33 0 56-24t23-55q0-34-24-57t-55-23z" horiz-adv-x="1000" />

<glyph glyph-name="ol" unicode="&#xf0d1;" d="M121-81v71h104v27h-62v62h62v27h-104v71h129q20 0 33-13 14-13 14-33v-37q0-20-14-33t-33-13q20 0 33-14 14-13 14-32v-37q0-20-14-33t-33-13z m0 302v114q0 19 13 33t33 13h58v27h-104v72h129q20 0 33-13 14-14 14-34v-67q0-20-14-34-13-13-33-13h-57v-26h104v-72z m62 302v192h-62v67h134v-259z m207-466v84h501v-84z m0 253v84h501v-84z m0 254v83h501v-83z" horiz-adv-x="1000" />

<glyph glyph-name="list" unicode="&#xf0d2;" d="M154 109q-19 0-31 13t-13 31q0 18 13 31 14 13 31 13 19 0 31-13t13-31q0-19-13-31t-31-13z m0 197q-19 0-31 13t-13 31q0 19 13 31t31 13q19 0 31-13t13-31q0-19-13-31t-31-13z m0 198q-19 0-31 13t-13 31q0 18 13 31 14 13 31 13 19 0 31-13t13-31q0-19-13-31t-31-13z m154-392v82h582v-82z m0 196v84h582v-84z m0 198v83h582v-83z" horiz-adv-x="1000" />

<glyph glyph-name="checklist" unicode="&#xf0d3;" d="M233 58l-162 163 58 58 104-103 187 187 58-60z m0 334l-162 162 58 59 104-104 187 187 58-59z m311-250v83h385v-83z m0 333v83h385v-83z" horiz-adv-x="1000" />

<glyph glyph-name="notes" unicode="&#xf0d4;" d="M115 83v83h520v-83z m0 225v84h770v-84z m0 226v83h770v-83z" horiz-adv-x="1000" />

<glyph glyph-name="rules" unicode="&#xf0d5;" d="M73 132v83h381v-83z m0 353v84h381v-84z m519-485l-59 57 117 116-117 116 59 58 116-116 116 116 58-58-115-116 115-116-58-57-116 116z m104 402l-155 156 57 58 97-97 177 179 58-60z" horiz-adv-x="1000" />

<glyph glyph-name="subject" unicode="&#xf0d6;" d="M153 28v82h429v-82z m0 187v82h694v-82z m0 187v82h694v-82z m0 188v82h694v-82z" horiz-adv-x="1000" />

<glyph glyph-name="segment" unicode="&#xf0d7;" d="M374 76v84h511v-84z m0 232v84h511v-84z m-259 233v83h770v-83z" horiz-adv-x="1000" />

<glyph glyph-name="link" unicode="&#xf0d8;" d="M463 127h-171q-93 0-158 65t-65 158q0 93 65 158 65 66 158 66h171v-83h-171q-59 0-100-41-41-41-41-100 0-58 41-99 41-42 100-42h171z m-135 189v68h344v-68z m210-189v82h170q59 0 100 41 41 41 41 100 0 58-41 100-41 41-100 41h-170v83h170q93 0 159-66 65-65 65-158 0-93-65-158t-159-65z" horiz-adv-x="1000" />

<glyph glyph-name="transform" unicode="&#xf0d9;" d="M660-128l-168 167 54 54 76-77v142h-244q-32 0-54 22t-22 54v232h-225v76h225v142l-77-77-52 55 167 167 168-167-54-55-76 77v-450h545v-76h-225v-142l77 77 53-54z m-38 425v169h-181v76h181q32 0 54-22t22-54v-169z" horiz-adv-x="1000" />

<glyph glyph-name="images-mode" unicode="&#xf0da;" d="M203-81q-55 0-95 39t-39 95v594q0 55 39 95 40 40 95 40h594q55 0 95-40 40-40 40-95v-594q0-55-40-95t-95-39z m0 82h594q22 0 37 15 15 15 15 37v594q0 22-15 37-15 15-37 15h-594q-22 0-37-15-15-15-15-37v-594q0-22 15-37 15-15 37-15z m65 113l149 150 75-75 91 115 152-190z m69 324q-32 0-54 21-23 22-23 55 0 31 23 53 22 23 54 23 32 0 54-23t22-53q0-33-22-55t-54-21z" horiz-adv-x="1000" />

<glyph glyph-name="wallpaper" unicode="&#xf0db;" d="M193-40q-34 0-58 25-25 24-25 58v270h83v-270h270v-83z m345 0v83h269v270h84v-270q0-34-25-58-24-25-59-25z m-298 169l130 173 97-132 137 178 161-219z m-130 259v269q0 35 25 59 24 25 58 25h270v-84h-270v-269z m697 0v269h-269v84h269q35 0 59-25 25-24 25-59v-269z m-157 56q-24 0-40 16-16 16-16 40t16 40q16 16 40 16t40-16q16-16 16-40t-16-40q-16-16-40-16z" horiz-adv-x="1000" />

<glyph glyph-name="table" unicode="&#xf0dc;" d="M110-40v781h781v-781z m83 543h614v154h-614z m226-230h162v168h-162z m0-230h162v167h-162z m-226 230h163v168h-163z m451 0h163v168h-163z m-451-230h163v167h-163z m451 0h163v167h-163z" horiz-adv-x="1000" />

<glyph glyph-name="table-view" unicode="&#xf0dd;" d="M367-47q-35 0-59 25t-24 59v446q0 35 24 59 24 25 59 25h447q34 0 58-25 25-24 25-59v-446q0-35-25-59-24-25-58-25z m0 424h447v106h-447z m168-172h110v110h-110z m0-168h110v106h-110z m-168 168h106v110h-106z m340 0h107v110h-107z m-340-168h106v106h-106v-106z m340 0h107v106h-107z m-520 97q-35 0-59 24-25 24-25 59v447q0 34 25 58 24 25 59 25h446q35 0 59-25 25-24 25-58v-66h-84v66h-446v-447h66v-83z" horiz-adv-x="1000" />

<glyph glyph-name="translate" unicode="&#xf0de;" d="M495-80l195 517h87l201-517h-94l-43 136h-207l-51-136z m162 211h153l-76 209h-2z m-502-82l-58 59 220 219q-42 48-73 96t-55 99h93q18-35 40-67 22-32 50-65 49 51 81 105 32 54 55 113h-481v87h301v85h87v-85h300v-87h-121q-24-74-64-145t-96-137l106-106-32-87-137 132z" horiz-adv-x="1000" />

<glyph glyph-name="pattern" unicode="&#xf0df;" d="M229 3q-32 0-54 22t-22 53q0 32 22 54t54 22q6 0 13-1t12-3l175 175q-8 20-3 42t21 36q15 16 36 21t42-3l174 174q-1 7-2 13-1 7-1 13 0 32 22 54t53 22q32 0 54-22t22-53q0-32-22-54t-54-22q-11 0-27 3l-173-173q7-21 2-43-4-21-20-37t-37-20q-21-4-44 3l-169-169h128q9 20 27 32t41 12q23 0 42-12 18-12 28-32h133q11 20 29 32t40 12q32 0 54-22t22-53q0-32-22-54t-54-22q-22 0-41 12-18 12-28 33h-132q-11-20-29-32-19-13-41-13-23 0-42 12-18 12-27 33h-133q-9-21-28-33-19-12-41-12z m0 272q-31 0-53 22-23 22-23 53 0 31 22 53 22 22 53 22 31 0 54-22 22-22 22-53 0-31-22-53-22-22-53-22z m-1 271q-31 0-53 22-22 22-22 53 0 32 22 54t53 22q32 0 54-22t22-53q0-31-22-54-23-22-54-22z m272 0q-31 0-53 22-22 22-22 53 0 31 22 54 22 22 53 22 31 0 53-22 22-22 22-53 0-31-22-54-22-22-53-22z m272-271q-31 0-54 22-22 22-22 53 0 31 22 53 22 22 53 22 31 0 54-22 22-22 22-53 0-31-22-53-22-22-53-22z" horiz-adv-x="1000" />

<glyph glyph-name="join-inner" unicode="&#xf0e0;" d="M333 44q-128 0-217 89t-89 217q0 128 89 217t217 89q38 0 72-8 34-8 64-24-20-15-36-31-16-17-30-36-16 8-34 12-18 4-37 4-92 0-157-65-65-64-65-158 0-93 65-158t157-65q19 0 37 4t34 12q14-19 30-36 16-16 36-31-30-16-64-24-34-8-72-8z m334 0q-38 0-72 8-33 8-63 24 19 15 35 31t30 36q16-8 34-12 18-4 37-4 94 0 158 65t64 158q0 94-64 158-64 65-158 65-19 0-37-4-18-4-34-12-14 19-30 36-16 16-35 31 30 16 63 24 34 8 72 8 128 0 217-89t89-217q0-128-89-217t-217-89z m-167 50q-66 41-103 110-37 68-37 146 0 78 37 146 37 69 103 110 66-41 103-110 37-68 37-146 0-78-37-146-37-69-103-110z" horiz-adv-x="1000" />

<glyph glyph-name="join-left" unicode="&#xf0e1;" d="M333 44q-128 0-217 89t-89 217q0 128 89 217t217 89q38 0 72-8 34-8 64-24-67-49-103-121-37-72-37-153 0-82 37-154t103-120q-30-16-64-24-34-8-72-8z m334 0q-38 0-72 8-33 8-63 24 19 15 35 31t30 36q16-8 34-12 18-4 37-4 94 0 158 65t64 158q0 94-64 158-64 65-158 65-19 0-37-4-18-4-34-12-14 19-30 36-16 16-35 31 30 16 63 24 34 8 72 8 128 0 217-89t89-217q0-128-89-217t-217-89z m-167 50q-66 41-103 110-37 68-37 146 0 78 37 146 37 69 103 110 66-41 103-110 37-68 37-146 0-78-37-146-37-69-103-110z" horiz-adv-x="1000" />

<glyph glyph-name="join-right" unicode="&#xf0e2;" d="M667 44q-38 0-72 8-33 8-63 24 66 49 102 120 37 72 37 154 0 81-37 153-36 72-102 121 30 16 63 24 34 8 72 8 128 0 217-89t89-217q0-128-89-217t-217-89z m-334 0q-128 0-217 89t-89 217q0 128 89 217t217 89q38 0 72-8 34-8 64-24-20-15-36-31-16-17-30-36-16 8-34 12-18 4-37 4-92 0-157-65-65-64-65-158 0-93 65-158t157-65q19 0 37 4t34 12q14-19 30-36 16-16 36-31-30-16-64-24-34-8-72-8z m167 50q-66 41-103 110-37 68-37 146 0 78 37 146 37 69 103 110 66-41 103-110 37-68 37-146 0-78-37-146-37-69-103-110z" horiz-adv-x="1000" />

<glyph glyph-name="join-full" unicode="&#xf0e3;" d="M667 44q-33 0-61 7-29 6-56 18 65 55 103 127 38 73 38 154t-38 154q-38 72-103 127 27 12 56 19 28 6 61 6 128 0 217-89t89-217q0-128-89-217t-217-89z m-167 50q-62 40-101 108-39 67-39 148t39 148q39 68 101 108 64-40 102-108 38-67 38-148t-38-148q-38-68-102-108z m-167-50q-128 0-217 89t-89 217q0 128 89 217t217 89q33 0 62-6 29-7 55-19-65-55-103-127-38-73-38-154 0-86 38-159t102-123q-27-12-56-18-28-6-60-6z" horiz-adv-x="1000" />

<glyph glyph-name="boy" unicode="&#xf0e4;" d="M500 555q-28 0-48 21-21 20-21 48 0 29 20 49 20 21 49 21 28 0 48-21 21-20 21-48 0-29-20-49-20-21-49-21z m-69-549v213h-41v211q0 28 19 49 20 20 49 20h84q29 0 49-20 19-21 19-49v-211h-41v-213z" horiz-adv-x="1000" />

<glyph glyph-name="man" unicode="&#xf0e5;" d="M424-72v291h-83v253q0 34 24 58t58 24h154q33 0 58-24 24-24 24-58v-253h-83v-291z m76 690q-34 0-58 24t-24 59q0 33 24 58 24 24 58 24t58-24q24-24 24-58t-24-59q-24-24-58-24z" horiz-adv-x="1000" />

<glyph glyph-name="girl" unicode="&#xf0e6;" d="M500 555q-28 0-48 21-21 20-21 48 0 29 20 49 20 21 49 21 28 0 48-21 21-20 21-48 0-29-20-49-20-21-49-21z m-69-549v192h-77l92 264q5 16 21 27t33 10q19 0 34-10t20-27l93-264h-78v-192z" horiz-adv-x="1000" />

<glyph glyph-name="woman" unicode="&#xf0e7;" d="M435-72v228h-129l111 352q8 26 32 41t51 15q27 0 51-15 24-15 33-42l110-351h-128v-228z m65 690q-34 0-58 24t-24 59q0 33 24 58 24 24 58 24t58-24q24-24 24-58t-24-59q-24-24-58-24z" horiz-adv-x="1000" />

<glyph glyph-name="walk" unicode="&#xf0e8;" d="M282-115l120 608-95-41v-139h-77v191l210 86q15 6 32 7 18 2 34-1 18-3 33-12 14-9 23-24l44-68q32-48 80-76t105-28v-75q-72 1-129 28t-104 86l-35-142 95-85v-315h-75v245l-103 99-81-344z m286 757q-35 0-59 24t-24 59q0 34 24 59 24 24 59 24t59-24q24-25 24-59 0-34-24-59-25-24-59-24z" horiz-adv-x="1000" />

<glyph glyph-name="album" unicode="&#xf0e9;" d="M500 179q73 0 125 50t52 121q0 74-51 126-52 51-126 51-72 0-121-52t-50-125q0-72 50-121t121-50z m0 129q-18 0-30 12-12 12-12 30 0 18 12 30 12 12 30 12 18 0 30-12 12-12 12-30 0-18-12-30-12-12-30-12z m0-389q-88 0-167 34-79 33-138 92-58 59-92 137t-34 168q0 90 34 168 34 79 92 137 58 59 137 93 78 34 168 34 90 0 169-34t137-92q58-58 92-137t34-169q0-90-34-168-34-79-93-137-58-59-136-92t-169-34z" horiz-adv-x="1000" />

<glyph glyph-name="control-camera" unicode="&#xf0ea;" d="M501 227q-52 0-88 36-36 36-36 88 0 52 36 89t88 36q52 0 89-36t36-89q0-52-36-88-37-36-89-36z m-1-321l-201 201 59 58 142-142 142 142 59-58z m-243 243l-201 201 201 201 58-59-142-142 142-142z m101 386l-59 58 201 201 201-201-59-58-142 142z m385-386l-58 59 142 142-142 142 58 59 201-201z" horiz-adv-x="1000" />

<glyph glyph-name="thermostat" unicode="&#xf0eb;" d="M500-81q-93 0-158 65t-65 158q0 54 24 103t71 73v335q0 54 37 92 37 37 91 37 53 0 91-37 38-38 38-92v-335q47-25 71-74t24-102q0-93-66-158t-158-65z m-46 466h92v55h-46v44h46v87h-46v45h46v37q0 20-14 33t-32 13q-20 0-33-13t-13-33z" horiz-adv-x="1000" />

<glyph glyph-name="application" unicode="&#xf0ec;" d="M229 3q-32 0-54 22t-22 54q0 31 22 53 22 22 54 22 31 0 53-22 22-22 22-53 0-32-22-54t-53-22z m271 0q-31 0-53 22-22 22-22 54 0 31 21 53 22 22 54 22 31 0 53-22 22-22 22-53 0-32-21-54t-54-22z m271 0q-31 0-53 22-22 22-22 54 0 31 22 53 22 22 53 22 32 0 54-22t22-53q0-32-22-54t-54-22z m-542 272q-32 0-54 21t-22 54q0 31 22 53 22 22 54 22 31 0 53-21 22-22 22-54 0-31-22-53-22-22-53-22z m271 0q-31 0-53 21-22 22-22 54 0 31 21 53 22 22 54 22 31 0 53-21 22-22 22-54 0-31-21-53-22-22-54-22z m271 0q-31 0-53 21-22 22-22 54 0 31 22 53 22 22 53 22 32 0 54-21t22-54q0-31-22-53-22-22-54-22z m-542 271q-32 0-54 22t-22 53q0 32 22 54t54 22q31 0 53-22 22-22 22-54 0-31-22-53-22-22-53-22z m271 0q-31 0-53 22-22 22-22 53 0 32 21 54t54 22q31 0 53-22 22-22 22-54 0-31-21-53-22-22-54-22z m271 0q-31 0-53 22-22 22-22 53 0 32 22 54t53 22q32 0 54-22t22-54q0-31-22-53-22-22-54-22z" horiz-adv-x="1000" />

<glyph glyph-name="terminal" unicode="&#xf0ed;" d="M151 2q-33 0-58 25-24 24-24 57v532q0 34 24 59 25 24 58 24h698q34 0 59-24 24-25 24-59v-532q0-33-24-57-25-25-59-25z m0 82h698v444h-698v-444z m162 70l-44 44 107 108-108 109 45 43 152-152z m197-4v63h230v-63z" horiz-adv-x="1000" />

<glyph glyph-name="ads-click" unicode="&#xf0ee;" d="M491 80q-110 3-185 82t-76 188q0 113 79 192 79 79 191 79 110 0 189-76 78-76 82-188l-80 25q-11 70-64 116-54 46-127 46-81 0-137-56-57-57-57-138 0-73 46-126t115-65z m52-172q-11-1-21-1-10-1-22-1-92 0-173 35-81 35-141 95-60 60-95 141-35 81-35 173t35 173q35 81 95 141 60 60 141 95 81 35 173 35t173-35q81-35 141-95 60-60 95-141 35-81 35-173 0-11-1-22 0-11-1-22l-74 23v21q0 153-108 260t-260 108q-153 0-260-108t-108-260q0-153 108-260t260-108h21z m319-9l-182 181-52-158-128 428 428-128-158-52 181-182z" horiz-adv-x="1000" />

<glyph glyph-name="api" unicode="&#xf0ef;" d="M500 226l-124 124 124 124 124-124z m-88 332l-96 96 184 184 184-184-95-96-89 89z m-215-392l-184 184 184 184 95-95-89-89 89-88z m607 0l-96 96 89 88-89 89 96 95 184-184z m-304-304l-184 185 96 95 88-89 89 89 95-95z" horiz-adv-x="1000" />

<glyph glyph-name="architecture" unicode="&#xf0f0;" d="M273-47l-11 85 133 365q13-14 31-23 18-9 36-14l-129-353z m455 0l-61 60-130 352q17 5 35 14 19 9 32 23l135-364z m-228 428q-56 0-96 40-39 39-39 96 0 47 27 83t71 46v92h75v-92q43-11 70-46 27-36 27-83 0-57-39-96-40-40-96-40z m0 76q24 0 42 18 17 18 17 42t-17 41q-18 18-42 18t-42-18q-17-17-17-41t17-42q18-18 42-18z" horiz-adv-x="1000" />

<glyph glyph-name="construction" unicode="&#xf0f1;" d="M805-46l-263 264 68 69 265-264z m-609 0l-68 69 303 304-114 115-24-24-40 39v-82l-28-28-141 140 29 28h84l-45 44 142 141q19 19 41 26 23 6 49 6 28 0 50-9 23-9 42-28l-114-114 50-50-25-25 112-112 130 130q-8 13-13 31-4 18-4 37 0 57 42 100t100 42q18 0 31-4 13-4 21-10l-88-90 74-74 88 90q9-11 12-25 4-14 4-31 0-59-42-101-42-42-100-42-17 0-31 3t-24 7z" horiz-adv-x="1000" />

<glyph glyph-name="gavel" unicode="&#xf0f2;" d="M146-52v70h520v-70z m243 221l-246 246 87 88 248-245z m283 284l-246 247 90 88 246-246z m201-454l-573 573 58 58 573-573z" horiz-adv-x="1000" />

<glyph glyph-name="language" unicode="&#xf0f3;" d="M500-81q-91 0-169 34-79 33-137 92-59 58-92 137-33 80-33 170 0 91 33 169t92 136q58 59 137 92 78 33 169 33t169-33q79-33 137-92 59-58 92-136t34-169q0-90-34-170-33-79-92-137t-137-92q-78-34-169-34z m-1 80q35 36 59 84 24 48 41 115h-197q15-63 39-112 24-49 58-87z m-86 13q-26 37-45 83t-30 103h-154q38-74 89-115 52-41 140-71z m175 1q74 22 132 70t96 115h-152q-14-56-32-102-18-46-44-83z m-424 245h162q-3 29-4 51 0 22 0 43 0 26 1 46 1 20 4 45h-163q-8-25-10-45t-3-46q0-26 3-47t10-47z m227 0h219q4 33 5 53 1 20 1 41t-1 40q-1 18-5 51h-219q-4-33-6-51-1-19-1-40 0-21 1-41 2-20 6-53z m282 0h162q8 25 10 47 3 21 3 47 0 27-3 46t-10 45h-161l3-56q1-18 1-35 0-22-1-42-2-20-4-52z m-10 246h153q-35 71-94 118-58 48-135 67 26-38 44-82t32-103z m-261 0h198q-11 54-38 106t-63 89q-31-27-54-72-22-46-43-123z m-218 0h155q11 55 28 99t45 85q-78-19-135-66-58-46-93-118z" horiz-adv-x="1000" />

<glyph glyph-name="motion-sensor" unicode="&#xf0f4;" d="M151-81q-33 0-58 24-24 25-24 58v174h82v-174h174v-82z m-82 606v174q0 34 24 59 25 24 58 24h174v-83h-174v-174z m400-474q-106 12-181 87-75 75-87 181h82q11-73 62-124t124-62z m-268 330q12 107 87 182 75 75 181 86v-82q-73-11-124-62t-62-124z m299-114q-34 0-59 24-24 25-24 59 0 34 24 59 25 24 59 24 34 0 59-24 24-25 24-59 0-34-24-59-25-24-59-24z m31-216v82q73 11 124 62t62 124h82q-11-106-86-181-75-75-182-87z m186 330q-11 73-62 124t-124 62v82q107-11 182-86 75-75 86-182z m-42-462v82h174v174h83v-174q0-33-24-58-25-24-59-24z m174 606v174h-174v83h174q34 0 59-24 24-25 24-59v-174z" horiz-adv-x="1000" />

<glyph glyph-name="podcasts" unicode="&#xf0f5;" d="M463-94v356q-26 10-43 34-17 24-17 54 0 40 29 68t68 29q41 0 69-29 28-28 28-68 0-30-17-54-16-24-42-34v-356z m-269 123q-64 61-101 143-37 83-37 178 0 92 35 173 35 81 95 141 60 60 141 95 81 35 173 35t173-35q81-35 141-95 60-60 95-141 35-81 35-173 0-96-37-178-37-81-101-143l-54 54q54 51 85 120 31 68 31 147 0 153-108 260t-260 108q-153 0-260-108t-108-260q0-79 31-147 31-69 85-120z m122 122q-40 38-63 89t-23 110q0 113 78 192 79 79 192 79 113 0 192-79 79-79 79-192 0-59-24-110-23-51-63-89l-54 54q30 27 47 64 17 36 17 81 0 81-56 138-57 56-138 56-81 0-137-56-57-57-57-138 0-44 17-81t47-64z" horiz-adv-x="1000" />

<glyph glyph-name="radar" unicode="&#xf0f6;" d="M500-94q-92 0-173 35-81 35-141 95-60 60-95 141-35 81-35 173t35 173q35 81 95 141 60 60 141 95 81 35 173 35t173-35q81-35 141-95 60-60 95-141 35-81 35-173t-35-173q-35-81-95-141-60-60-141-95-81-35-173-35z m0 76q69 0 129 23t109 64l-70 69q-36-28-78-43-42-15-90-15-113 0-192 78-78 79-78 192 0 113 78 192 79 79 192 79 113 0 192-79 79-78 79-192 0-48-16-90-15-42-42-78l68-68q41 48 64 107 23 60 23 129 0 153-108 260t-260 108q-153 0-260-108t-108-260q0-153 108-260t260-108z m0 174q32 0 61 10 29 9 53 26l-72 70q-10-5-20-7-10-2-22-2-41 0-69 29-28 28-28 68 0 41 29 69 28 28 68 28 41 0 69-29 28-28 28-68 0-11-3-22-3-11-7-22l71-69q17 23 26 52 10 29 10 61 0 81-56 138-57 56-138 56-81 0-137-56-57-57-57-138 0-81 57-137 56-57 137-57z" horiz-adv-x="1000" />

<glyph glyph-name="webhook" unicode="&#xf0f7;" d="M281-35q-85 0-147 61t-61 147q0 73 44 129t115 73v-72q-40-14-65-50t-24-80q0-57 40-98 41-41 98-41 59 0 99 41 40 41 40 98v34h255q9 10 20 15 11 6 24 6 24 0 39-15t16-40q0-23-16-39-15-16-39-16-13 0-24 5t-20 16h-187q-17-75-74-125-57-49-133-49z m438 0q-51 0-97 23t-74 67h98q16-10 35-15t38-6q58 0 98 41 40 41 40 98 0 58-40 98-40 41-98 41-22 0-40-6-17-5-33-15l-132 223q-22 5-35 19t-13 36q0 23 16 39 16 16 39 16 24 0 39-16t16-39q0-4 0-7-1-4-3-11l102-174q10 2 23 3 14 1 21 1 86 0 147-60t61-148q0-85-61-147t-147-61z m-438 153q-23 0-39 16-16 16-16 39 0 20 13 35 13 15 34 20l110 186q-34 30-52 71-18 41-18 84 0 86 61 147t147 61q83 0 144-58 60-57 64-140h-70q-3 55-42 92-40 36-96 36-57 0-98-40-41-40-41-98 0-46 27-81 26-36 68-50l-145-245q2-6 3-11 2-5 2-9 0-23-16-39-16-16-40-16z" horiz-adv-x="1000" />

<glyph glyph-name="rss" unicode="&#xf0f8;" d="M224-25q-45 0-75 31-30 31-30 74 0 45 30 75 30 30 75 30 44 0 74-30t31-75q0-43-31-74t-74-31z m509 0q0 127-48 239t-132 195q-83 84-195 132t-239 49v107q149 0 280-57 131-57 230-155 98-97 154-229t57-281z m-255 0q0 162-99 265t-260 104v106q101 0 186-36t148-99q63-64 98-151 34-87 34-189z" horiz-adv-x="1000" />

<glyph glyph-name="lock-reset" unicode="&#xf0f9;" d="M542-44q-78 0-151 30-72 31-123 83l58 59q44-44 101-66t115-23q128 0 220 91t91 220q0 128-91 220t-220 92q-127 0-220-92-92-91-92-218v-15l73 72 49-49-163-162-163 162 49 49 73-72v15q0 81 31 153 30 71 84 124 54 53 125 85t154 31q82 0 153-31t125-85q54-54 85-125t32-154q0-166-115-280-115-114-280-114z m-84 233q-14 0-25 11-11 10-11 25v125q0 15 12 26 12 11 30 11v46q0 33 23 56 22 23 55 23 32 0 55-23 23-23 23-56v-46q18 0 30-11 12-11 12-26v-125q0-15-11-25-11-11-26-11z m37 198h94v46q0 20-14 34-13 13-33 13-20 0-34-13-13-14-13-34z" horiz-adv-x="1000" />

<glyph glyph-name="tune" unicode="&#xf0fa;" d="M442-39v248h76v-86h367v-76h-367v-86z m-327 86v76h270v-76z m194 180v86h-194v75h194v87h76v-248z m133 86v75h443v-75z m173 178v248h76v-86h194v-76h-194v-86z m-500 86v76h443v-76z" horiz-adv-x="1000" />

<glyph glyph-name="eyeglasses" unicode="&#xf0fb;" d="M276 215q32 0 59 20t39 54l15 45q19 58-6 105t-75 46h-153l20-179q5-39 34-65t67-26z m448 0q39 0 67 26t33 66l21 178h-152q-49 0-74-46-25-47-7-106l15-44q11-34 38-54 27-20 59-20z m-447-84q-72 0-123 48-52 47-60 120l-23 186h-41v84h273q45 0 87-25 41-25 69-70h84q27 45 69 70 41 25 86 25h272v-84h-41l-23-186q-8-73-60-120-52-48-123-48-57 0-105 36-47 35-69 95l-19 52q-3 6-4 14-2 7-3 16h-46q-1-9-2-16t-5-13l-17-52q-22-60-70-96t-106-36z" horiz-adv-x="1000" />

<glyph glyph-name="globe" unicode="&#xf0fc;" d="M500-81q-88 0-167 34-79 33-138 92-58 58-92 137-34 78-34 168 0 90 34 168 34 79 92 137 59 59 138 93 79 34 168 34 90 0 168-34 78-34 136-93 59-58 93-137 34-78 34-168 0-90-34-168-33-79-92-137-59-59-138-92-78-34-168-34z m-44 83v86q-36 0-61 26-24 27-24 62v46l-209 209q-6-21-8-40-2-19-2-40 0-133 87-233 86-100 217-116z m302 111q22 25 39 52t29 58q12 31 17 63t6 65q0 108-59 197-60 89-159 129v-18q0-35-25-62-25-26-61-26h-89v-90q0-17-14-29-14-11-32-11h-84v-90h265q17 0 29-13 11-14 11-32v-130h44q29 0 52-18t31-45z" horiz-adv-x="1000" />

<glyph glyph-name="record" unicode="&#xf0fd;" d="M249 169q-84 0-143 59t-59 143q0 84 59 144 59 59 143 59t144-59q59-60 59-144 0-34-13-68t-38-58h199q-24 26-37 58-13 32-13 68 0 84 59 144 59 59 143 59t144-59q59-60 59-144 0-84-59-143t-144-59z m0 82q50 0 85 35 35 35 35 85 0 50-35 85-35 35-85 35-50 0-84-35t-35-85q0-50 35-85 34-35 84-35z m503 0q50 0 85 35t34 85q0 50-34 85-35 35-85 35t-85-35q-35-35-35-85 0-50 35-85 35-35 85-35z" horiz-adv-x="1000" />

<glyph glyph-name="storage" unicode="&#xf0fe;" d="M105-18v183h791v-183z m83 50h81v83h-81z m-83 503v183h791v-183z m83 50h81v83h-81z m-83-326v182h791v-182z m83 50h81v82h-81z" horiz-adv-x="1000" />

<glyph glyph-name="support" unicode="&#xf0ff;" d="M500-81q-88 0-167 34-79 33-138 92-58 58-92 137-34 78-34 168 0 90 34 168 34 79 92 137 59 59 138 93 79 34 168 34 90 0 168-34 78-34 136-93 59-58 93-137 34-78 34-168 0-90-34-168-33-79-92-137-59-59-138-92-78-34-168-34z m-124 103l62 146q-41 13-73 44-32 31-47 75l-147-59q32-73 85-126 52-53 120-80z m-59 392q15 43 47 74t73 44l-60 147q-77-32-130-86-53-54-76-122z m183-173q46 0 78 31 32 32 32 78t-32 78q-32 32-78 32t-78-32q-31-32-31-78t31-78q32-31 78-31z m124-219q71 28 124 81 53 53 81 124l-147 60q-15-45-47-75-32-31-72-44z m58 392l147 60q-28 70-82 123-53 53-123 82l-59-147q41-13 71-43 30-31 46-75z" horiz-adv-x="1000" />
</font>
</defs>
</svg>
